SplineFontDB: 3.0
FontName: Exo-Bold
FullName: Exo Bold
FamilyName: Exo
Weight: Bold
Copyright: Copyright (c) 2011 Natanael Gama (exo@ndiscovered.com), with Reserved Font Name "Exo"
Version: 1.00
ItalicAngle: 0
UnderlinePosition: -50
UnderlineWidth: 50
Ascent: 800
Descent: 200
sfntRevision: 0x00010000
LayerCount: 2
Layer: 0 0 "Back"  1
Layer: 1 0 "Fore"  0
XUID: [1021 762 1116966003 2613444]
FSType: 8
OS2Version: 0
OS2_WeightWidthSlopeOnly: 0
OS2_UseTypoMetrics: 1
CreationTime: 1317847530
ModificationTime: 1325018112
PfmFamily: 33
TTFWeight: 700
TTFWidth: 5
LineGap: 90
VLineGap: 0
OS2TypoAscent: 0
OS2TypoAOffset: 1
OS2TypoDescent: 0
OS2TypoDOffset: 1
OS2TypoLinegap: 90
OS2WinAscent: 0
OS2WinAOffset: 1
OS2WinDescent: 0
OS2WinDOffset: 1
HheadAscent: 0
HheadAOffset: 1
HheadDescent: 0
HheadDOffset: 1
OS2Vendor: 'PfEd'
Lookup: 4 0 0 "'ordn' Ordinals lookup 21"  {"'ordn' Ordinals lookup 21-1"  } ['ordn' ('DFLT' <'dflt' > 'grek' <'dflt' > 'latn' <'dflt' > ) ]
Lookup: 1 0 0 "'smcp' Lowercase to Small Capitals lookup 16"  {"'smcp' Lowercase to Small Capitals lookup 16-1" ("smcp" ) } ['smcp' ('DFLT' <'dflt' > 'grek' <'dflt' > 'latn' <'FRA ' 'dflt' > ) ]
Lookup: 1 0 0 "'c2sc' Capitals to Small Capitals in Latin lookup 17"  {"'c2sc' Capitals to Small Capitals in Latin lookup 17 subtable" ("smcp" ) } ['c2sc' ('latn' <'dflt' > ) ]
Lookup: 4 0 0 "'dlig' Discretionary Ligatures lookup 14"  {"'dlig' Discretionary Ligatures lookup 14-1"  } ['dlig' ('DFLT' <'dflt' > 'grek' <'dflt' > 'latn' <'dflt' > ) ]
Lookup: 4 0 1 "'liga' Standard Ligatures lookup 15"  {"'liga' Standard Ligatures lookup 15-1"  } ['liga' ('DFLT' <'dflt' > 'grek' <'dflt' > 'latn' <'FRA ' 'dflt' > ) ]
Lookup: 1 0 0 "'frac' Diagonal Fractions lookup 13"  {"'frac' Diagonal Fractions lookup 13-1"  } ['frac' ('DFLT' <'dflt' > 'grek' <'dflt' > 'latn' <'FRA ' 'dflt' > ) ]

StartChar: a
Encoding: 97 97 0
Width: 519
VWidth: 0
Flags: HW
LayerCount: 2
Fore
SplineSet
170.1 155.2 m 2
 170.1 111.05 194 106.5 219.75 106.5 c 0
 278.3 106.5 341.65 147.6 341.65 147.6 c 1
 341.65 244.95 l 1
 213.15 235 l 2
 176.2 231.55 170.1 204.2 170.1 181 c 2
 170.1 155.2 l 2
30.1 135.35 m 2
 30.1 185.35 l 2
 30.1 262.6 71.85 331 185.65 331 c 2
 185.65 331 341.65 330 341.65 331 c 2
 341.65 331 342.65 364 341.65 365 c 1
 341.65 421.6 315.15 430.5 270.65 430.5 c 0
 224.5 430.5 91.3 422.2 47.65 419.05 c 1
 47.65 505.5 l 1
 117.55 532.65 190.6 540.55 289.6 541 c 0
 403.95 541.45 481.65 501.95 481.65 370.5 c 2
 481.65 0 l 1
 371.1 0 l 1
 341.65 58.5 l 1
 335.8 46.95 261.25 -7.65 180.15 -6 c 0
 78 -3.25 30.1 66.3 30.1 135.35 c 2
EndSplineSet
AlternateSubs2: "'salt' Access All Alternates in Latin lookup 4-1" a.salt
Substitution2: "'smcp' Lowercase to Small Capitals lookup 16-1" a.smcp
EndChar

StartChar: z
Encoding: 122 122 1
Width: 474
VWidth: 0
Flags: HW
LayerCount: 2
Fore
SplineSet
22.85 413 m 1
 22.85 531 l 1
 451.85 531 l 1
 451.85 413 l 1
 224.5 119 l 1
 451.85 119 l 1
 452.85 118 451.85 1 451.85 1 c 1
 37.85 1 l 1
 37.85 117.9 l 1
 276.25 413 l 1
 22.85 413 l 1
EndSplineSet
Substitution2: "'smcp' Lowercase to Small Capitals lookup 16-1" z.smcp
EndChar

StartChar: e
Encoding: 101 101 2
Width: 525
VWidth: 0
Flags: HW
LayerCount: 2
Fore
SplineSet
177.9 309 m 1
 310.6 309 l 2
 339.75 309 354.9 323.35 354.9 348.65 c 0
 354.9 415.7 345.35 428 278.05 428 c 0
 204.1 428 176.8 423.7 177.9 309 c 1
37.9 268 m 0
 37.9 496.2 101.5 535 269.9 535 c 0
 423.5 535 494.9 517.5 494.9 341.5 c 0
 494.9 246.9 442.9 208.5 346.9 208.5 c 2
 177.9 208.5 l 1
 177.9 112.65 214.1 106.95 289.9 106.95 c 0
 370.9 106.95 409.9 106.5 484.9 117.5 c 1
 484.9 23 l 1
 409.948 -4.95071 295.9 -5 212.9 -5 c 0
 77.9 -5 37.9 73.2 37.9 268 c 0
EndSplineSet
Substitution2: "'smcp' Lowercase to Small Capitals lookup 16-1" e.smcp
EndChar

StartChar: o
Encoding: 111 111 3
Width: 560
VWidth: 0
Flags: HW
HStem: -5 112.5<202.865 358.662> 423.5 112.5<203.432 357.548>
VStem: 37.9 140<134.971 395.781> 382.4 140<132.061 397.858>
LayerCount: 2
Fore
SplineSet
177.9 258 m 0
 177.9 120.6 205.75 107.5 280.15 107.5 c 0
 359 107.5 382.4 118.2 382.4 258 c 0
 382.4 406.75 363.6 423.5 280.15 423.5 c 0
 197.3 423.5 177.9 406.65 177.9 258 c 0
37.9 258 m 0
 37.9 475 100.65 536 280.15 536 c 0
 463 536 522.4 469 522.4 258 c 0
 522.4 61 465.75 -5 280.15 -5 c 0
 96.75 -5 37.9 68 37.9 258 c 0
EndSplineSet
Substitution2: "'smcp' Lowercase to Small Capitals lookup 16-1" o.smcp
EndChar

StartChar: c
Encoding: 99 99 5
Width: 494
VWidth: 0
Flags: HW
LayerCount: 2
Fore
SplineSet
37.9 266 m 0
 37.9 484.8 110.9 536 212.9 536 c 0
 264.9 536 369.8 532.9 457.4 504.5 c 1
 457.4 417.5 l 1
 457.4 417.5 361.85 423.5 272.85 423.5 c 0
 208.45 423.5 177.9 419.65 177.9 263.1 c 0
 177.9 127.15 200.85 107.5 272.85 107.5 c 0
 364.85 107.5 464.4 116.85 464.4 116.85 c 1
 464.4 28.95 l 1
 386.7 -10.55 295.9 -4 212.9 -5 c 1
 113.9 -5 37.9 46.75 37.9 266 c 0
EndSplineSet
Substitution2: "'smcp' Lowercase to Small Capitals lookup 16-1" c.smcp
EndChar

StartChar: d
Encoding: 100 100 6
Width: 556
VWidth: 0
Flags: HW
LayerCount: 2
Fore
SplineSet
177.9 268.5 m 0
 177.9 150.05 202.35 113.65 247.55 113.65 c 0
 300.15 113.65 341.7 127.2 371.5 146.45 c 1
 371.5 409.3 l 1
 334.95 423.45 295.95 429.25 247.55 429.25 c 0
 203.35 429.25 177.9 404 177.9 268.5 c 0
37.9 263 m 0
 37.9 432.55 64.1 539 211.25 539 c 0
 256.25 539 323.45 526.65 372.05 504.5 c 1
 372.05 785 l 1
 511.6 785 l 1
 511.6 0 l 1
 396.45 0 l 1
 371.5 53.5 l 1
 338.35 26.8 274.3 -6 211.25 -6 c 0
 80.55 -6 37.9 97.55 37.9 263 c 0
EndSplineSet
AlternateSubs2: "'salt' Access All Alternates in Latin lookup 4-1" d.salt
Substitution2: "'smcp' Lowercase to Small Capitals lookup 16-1" d.smcp
EndChar

StartChar: A
Encoding: 65 65 7
Width: 692
VWidth: 0
Flags: HW
LayerCount: 2
Fore
SplineSet
273.55 286.25 m 1
 443.8 286.25 l 1
 361.55 547.5 l 1
 273.55 286.25 l 1
34 0 m 1
 281 732 l 1
 440.25 732 l 1
 678 0 l 1
 528.95 0 l 1
 476.95 162.2 l 1
 237.2 162.2 l 1
 184.4 0 l 1
 34 0 l 1
EndSplineSet
Substitution2: "'c2sc' Capitals to Small Capitals in Latin lookup 17 subtable" a.smcp
EndChar

StartChar: p
Encoding: 112 112 8
Width: 556
VWidth: 0
Flags: HW
LayerCount: 2
Fore
SplineSet
185.35 121.7 m 1
 221.9 107.55 261.35 101.75 309.75 101.75 c 0
 353.95 101.75 379.4 127 379.4 262.5 c 0
 379.4 380.95 354.95 417.35 309.75 417.35 c 0
 257.15 417.35 215.15 403.8 185.35 384.55 c 1
 185.35 121.7 l 1
45.7 -270 m 1
 45.7 531 l 1
 160.85 531 l 1
 185.35 477.5 l 1
 218.5 504.2 283 537 346.05 537 c 0
 476.75 537 519.4 427.4 519.4 268 c 0
 519.4 114.4 493.2 -8 346.05 -8 c 0
 301.05 -8 233.4 4.35 184.8 26.5 c 1
 184.8 -270 l 1
 45.7 -270 l 1
EndSplineSet
AlternateSubs2: "'salt' Access All Alternates in Latin lookup 4-1" p.salt
Substitution2: "'smcp' Lowercase to Small Capitals lookup 16-1" p.smcp
EndChar

StartChar: b
Encoding: 98 98 9
Width: 556
VWidth: 0
Flags: HW
LayerCount: 2
Fore
SplineSet
185.8 146.45 m 1
 215.6 127.2 257.15 113.65 309.75 113.65 c 0
 354.95 113.65 379.4 150.05 379.4 268.5 c 0
 379.4 404 353.95 429.25 309.75 429.25 c 0
 261.35 429.25 222.35 423.45 185.8 409.3 c 1
 185.8 146.45 l 1
45.7 0 m 1
 45.7 785 l 1
 184.8 785 l 1
 184.8 504.5 l 1
 233.4 526.65 301.05 539 346.05 539 c 0
 493.2 539 519.4 428.15 519.4 263 c 0
 519.4 101.95 476.75 -6 346.05 -6 c 0
 283 -6 218.95 26.8 185.8 53.5 c 1
 160.85 0 l 1
 45.7 0 l 1
EndSplineSet
AlternateSubs2: "'salt' Access All Alternates in Latin lookup 4-1" b.salt
Substitution2: "'smcp' Lowercase to Small Capitals lookup 16-1" b.smcp
EndChar

StartChar: q
Encoding: 113 113 10
Width: 555
VWidth: 0
Flags: HW
LayerCount: 2
Fore
SplineSet
177.9 271.85 m 0
 177.9 171.1 178.85 100.3 258.75 100.3 c 0
 303.05 100.3 325.9 104.3 369.85 122 c 1
 369.85 430 l 1
 259.85 430 l 2
 179.8 430 177.9 333.2 177.9 271.85 c 0
37.9 268 m 0
 37.9 453.6 107.35 537 232.35 537 c 0
 338.35 537 459 520.75 509.85 506.85 c 1
 509.85 -270 l 1
 369.85 -270 l 1
 369.85 29 l 1
 328.95 1.35 277.35 -10 232.35 -10 c 0
 79.35 -10 37.9 91.3 37.9 268 c 0
EndSplineSet
Substitution2: "'smcp' Lowercase to Small Capitals lookup 16-1" q.smcp
EndChar

StartChar: n
Encoding: 110 110 11
Width: 550
VWidth: 0
Flags: HW
LayerCount: 2
Fore
SplineSet
45.7 0 m 1
 45.7 531 l 1
 158.2 531 l 1
 185.7 474.5 l 1
 231.3 507.3 273.2 540 354.2 540 c 0
 477.8 540 512.7 454.7 512.7 353.5 c 2
 512.7 0 l 1
 372.7 0 l 1
 372.7 355.7 l 2
 372.7 408.5 349.1 427.5 314.05 427.5 c 0
 257.7 427.5 226.95 413 185.7 381.5 c 1
 185.7 0 l 1
 45.7 0 l 1
EndSplineSet
AlternateSubs2: "'salt' Access All Alternates in Latin lookup 4-1" n.salt
Substitution2: "'smcp' Lowercase to Small Capitals lookup 16-1" n.smcp
EndChar

StartChar: i
Encoding: 105 105 12
Width: 227
VWidth: 0
Flags: HW
LayerCount: 2
Fore
SplineSet
42.95 0 m 1
 42.95 531 l 1
 182.95 531 l 1
 182.95 0 l 1
 42.95 0 l 1
37.9 609.85 m 2
 37.9 698.5 l 2
 37.9 713.5 45.9 723.5 61.9 723.5 c 2
 166.9 723.5 l 2
 181.9 723.5 189.35 712.5 189.35 698.5 c 2
 189.35 609.85 l 2
 189.35 594.85 180.9 586.85 166.9 586.85 c 2
 61.9 586.85 l 2
 47.9 586.85 37.9 595.85 37.9 609.85 c 2
EndSplineSet
Substitution2: "'smcp' Lowercase to Small Capitals lookup 16-1" i.smcp
EndChar

StartChar: h
Encoding: 104 104 13
Width: 550
VWidth: 0
Flags: HW
LayerCount: 2
Fore
SplineSet
45.7 0 m 1
 45.7 782.9 l 1
 185.15 782.9 l 1
 185.15 474.5 l 1
 229.1 506.2 273.2 540 354.2 540 c 0
 477.8 540 512.7 454.7 512.7 353.5 c 2
 512.7 0 l 1
 372.7 0 l 1
 372.7 355.7 l 2
 372.7 408.5 349.55 427.5 314.05 427.5 c 0
 257.7 427.5 226.95 413 185.7 381.5 c 1
 185.7 0 l 1
 45.7 0 l 1
EndSplineSet
Substitution2: "'smcp' Lowercase to Small Capitals lookup 16-1" h.smcp
EndChar

StartChar: u
Encoding: 117 117 14
Width: 550
VWidth: 0
Flags: HW
LayerCount: 2
Fore
SplineSet
37.9 177.5 m 2
 37.9 531 l 1
 177.9 531 l 1
 177.9 175.3 l 2
 177.9 122.5 201.5 103.5 236.55 103.5 c 0
 292.9 103.5 323.65 118 364.9 149.5 c 1
 364.9 531 l 1
 504.9 531 l 1
 504.9 0 l 1
 392.4 0 l 1
 364.9 56.5 l 1
 312.15 24.8 277.4 -9 196.4 -9 c 0
 72.8 -9 37.9 76.3 37.9 177.5 c 2
EndSplineSet
AlternateSubs2: "'salt' Access All Alternates in Latin lookup 4-1" u.salt
Substitution2: "'smcp' Lowercase to Small Capitals lookup 16-1" u.smcp
EndChar

StartChar: r
Encoding: 114 114 15
Width: 417
VWidth: 0
Flags: HW
LayerCount: 2
Fore
SplineSet
45.7 0 m 1
 45.7 531 l 1
 163.7 531 l 1
 185.7 464 l 1
 222.5 499.55 272 536.45 338.05 536.45 c 0
 361 536.45 383 535.55 397.2 530.1 c 1
 397.2 394.95 l 1
 383 396.3 350.55 397.65 320.45 397.65 c 0
 262.45 397.65 220.35 388.2 185.7 338.55 c 1
 185.7 0 l 1
 45.7 0 l 1
EndSplineSet
AlternateSubs2: "'salt' Access All Alternates in Latin lookup 4-1" r.salt
Substitution2: "'smcp' Lowercase to Small Capitals lookup 16-1" r.smcp
EndChar

StartChar: m
Encoding: 109 109 16
Width: 875
VWidth: 0
Flags: HW
LayerCount: 2
Fore
SplineSet
45.7 0 m 1
 45.7 531 l 1
 158.2 531 l 1
 185.7 473.6 l 1
 232.95 507.5 270.95 538.65 351.05 538.65 c 0
 418.8 538.65 466.8 512.95 488.7 470 c 1
 536.3 504.75 597.2 538.65 679.6 538.65 c 0
 796.9 538.65 838.1 459.2 838.1 351.7 c 2
 838.1 0 l 1
 698.1 0 l 1
 698.1 353.9 l 2
 698.1 403.55 674.95 426.15 639.45 426.15 c 0
 585.75 426.15 546.85 415.9 509.45 384.45 c 1
 509.45 380.05 510 357.55 510 352.6 c 2
 510 0 l 1
 370 0 l 1
 370 353.9 l 2
 370 403.55 346.4 426.15 310.9 426.15 c 0
 255.9 426.15 226.95 412.1 185.7 380.6 c 1
 185.7 0 l 1
 45.7 0 l 1
EndSplineSet
AlternateSubs2: "'salt' Access All Alternates in Latin lookup 4-1" m.salt
Substitution2: "'smcp' Lowercase to Small Capitals lookup 16-1" m.smcp
EndChar

StartChar: f
Encoding: 102 102 17
Width: 403
VWidth: 0
Flags: HW
LayerCount: 2
Fore
SplineSet
15.05 424 m 1
 15.05 514 l 1
 98.3 531 l 1
 98.3 630 l 2
 98.3 720.85 134.85 786 254.85 786 c 0
 303.85 786 345.3 779.75 388.8 762 c 1
 388.8 678.9 l 1
 387.8 678.9 293.3 679.9 293.3 679.9 c 2
 237 680.9 238.3 652.7 238.3 597 c 2
 238.3 531 l 1
 358.8 531 l 1
 358.8 424 l 1
 238.3 424 l 1
 238.3 0 l 1
 98.3 0 l 1
 98.3 424 l 1
 15.05 424 l 1
EndSplineSet
AlternateSubs2: "'salt' Access All Alternates in Latin lookup 4-1" f.salt
Substitution2: "'smcp' Lowercase to Small Capitals lookup 16-1" f.smcp
EndChar

StartChar: l
Encoding: 108 108 18
Width: 313
VWidth: 0
Flags: HW
HStem: 0 86<229.157 298.7> 763 20G<45.7 185.7>
VStem: 45.7 140<124.31 783>
LayerCount: 2
Fore
SplineSet
45.7 189 m 2
 45.7 783 l 1
 185.7 783 l 1
 185.7 211 l 2
 185.7 133.9 204.3 117.2 231.7 107 c 1
 231.7 107 291.7 86 298.7 86 c 1
 298.7 0 l 1
 183.2 0 l 2
 96.3 0 45.7 48 45.7 189 c 2
EndSplineSet
Substitution2: "'smcp' Lowercase to Small Capitals lookup 16-1" l.smcp
EndChar

StartChar: j
Encoding: 106 106 19
Width: 242
VWidth: 0
Flags: HW
LayerCount: 2
Fore
SplineSet
51.75 -270 m 1
 51.75 531 l 1
 191.75 531 l 1
 191.75 -4 l 1
 192.75 -90 190.75 -191.1 154.75 -270 c 1
 51.75 -270 l 1
45.7 609.85 m 2
 45.7 698.5 l 2
 45.7 713.5 53.7 723.5 69.7 723.5 c 2
 174.7 723.5 l 2
 189.7 723.5 197.7 712.5 197.7 698.5 c 2
 197.7 609.85 l 2
 197.7 594.85 188.7 586.85 174.7 586.85 c 2
 69.7 586.85 l 2
 55.7 586.85 45.7 595.85 45.7 609.85 c 2
EndSplineSet
Substitution2: "'smcp' Lowercase to Small Capitals lookup 16-1" j.smcp
EndChar

StartChar: t
Encoding: 116 116 20
Width: 381
VWidth: 0
Flags: HW
HStem: -0.1 86<283.759 353.3> 425 107<240.85 359.55>
VStem: 100.85 140<125.224 425>
LayerCount: 2
Fore
SplineSet
15.05 425 m 1
 15.05 503 l 1
 100.85 532 l 1
 124.35 680 l 1
 240.85 680 l 1
 240.85 532 l 1
 359.55 532 l 1
 359.55 425 l 1
 240.85 425 l 1
 240.85 212 l 2
 240.85 133.8 258.9 117.1 286.3 106.9 c 1
 286.3 106.9 346.3 85.9 353.3 85.9 c 1
 353.3 -0.1 l 1
 231.2 -0.1 l 2
 152.55 -0.1 100.85 49 100.85 190 c 2
 100.85 425 l 1
 15.05 425 l 1
EndSplineSet
AlternateSubs2: "'salt' Access All Alternates in Latin lookup 4-1" t.salt
Substitution2: "'smcp' Lowercase to Small Capitals lookup 16-1" t.smcp
EndChar

StartChar: s
Encoding: 115 115 21
Width: 508
VWidth: 0
Flags: HW
HStem: -5 116.35<68.3338 336.69> 204.45 121.3<174.722 337.004> 420.65 115.35<171.083 440.284>
VStem: 30.1 140<328.425 419.007> 338.1 140<114.476 202.764>
LayerCount: 2
Fore
SplineSet
30.1 347 m 2
 30.1 393 l 2
 30.1 475 65.1 536 168.1 536 c 0
 270.15 536 410.65 532.7 451.65 509 c 1
 451.65 420.65 l 1
 211 420.65 l 2
 175.05 420.65 170.1 409.4 170.1 384.2 c 2
 170.1 360.2 l 2
 170.1 326.65 187.75 325.75 211 325.75 c 2
 337.1 325.75 l 2
 438.4 325.75 478.1 265.7 478.1 188.5 c 2
 478.1 134 l 2
 478.1 25 412.1 -5 348.1 -5 c 0
 247.4 -5 89 -0.45 52.1 23.9 c 1
 52.1 111.35 l 1
 303 111.35 l 2
 312.35 111.35 338.1 112.5 338.1 145 c 2
 338.1 169.8 l 2
 338.1 192.15 331.6 204.45 303 204.45 c 2
 179.1 204.45 l 2
 85.1 204.45 30.1 244 30.1 347 c 2
EndSplineSet
Substitution2: "'smcp' Lowercase to Small Capitals lookup 16-1" s.smcp
EndChar

StartChar: k
Encoding: 107 107 22
Width: 557
VWidth: 0
Flags: HW
LayerCount: 2
Fore
SplineSet
45.7 0 m 1
 45.7 782 l 1
 185.7 782 l 1
 185.7 353 l 1
 214.7 353 l 1
 365.45 531 l 1
 542.7 531 l 1
 343.55 299.5 l 1
 542.7 0 l 1
 376.45 0 l 1
 214.7 246 l 1
 185.7 246 l 1
 185.7 0 l 1
 45.7 0 l 1
EndSplineSet
Substitution2: "'smcp' Lowercase to Small Capitals lookup 16-1" k.smcp
EndChar

StartChar: g
Encoding: 103 103 23
Width: 560
VWidth: 0
Flags: HW
LayerCount: 2
Fore
SplineSet
178.55 344 m 0
 178.55 295 193.55 261.5 243.05 261.5 c 2
 299.25 261.5 l 2
 352.3 261.5 367.45 295.9 366.55 344 c 0
 365.2 399.176 347.55 420.5 298.25 420.5 c 2
 244.55 420.5 l 2
 187.85 420.5 178.55 383.6 178.55 344 c 0
180.6 -98.95 m 2
 180.6 -151.6 208.5 -157.5 243.5 -157.5 c 2
 326.4 -157.5 l 2
 376.6 -157.5 382.6 -132.75 382.6 -101.7 c 2
 382.6 -62.95 l 2
 382.6 -33 370.257 -14.7179 330.55 -14.3 c 2
 222.85 -14.3 l 2
 203.373 -14.3 180.6 -10.7 180.6 -10.7 c 1
 180.6 -98.95 l 2
35.35 102.35 m 0
 35.35 144.15 53.9 183.4 97.1 196.9 c 1
 53.1 224.9 38.55 291 38.55 344 c 0
 38.55 471 102.9 533 222.55 533 c 2
 545.55 533 l 1
 545.55 449.5 l 1
 486.55 431.5 l 1
 495.9 409.4 506.55 391.15 506.55 327.5 c 0
 506.55 251 474.75 149 325.05 149 c 2
 202.05 149 l 2
 186.05 149 161.6 148.85 161.6 125.6 c 0
 161.6 102.35 179.908 98.75 202.05 98.75 c 2
 365 98.75 l 2
 461.02 98.75 522.05 48.7 522.05 -58.5 c 2
 522.05 -116 l 2
 522.05 -192.5 486.55 -270 355.55 -270 c 2
 205.55 -270 l 2
 111.55 -270 40.05 -221.1 40.05 -116 c 2
 40.05 -48.6 l 1
 86.65 -0.100002 l 1
 58.65 15.5 35.35 51.7 35.35 102.35 c 0
EndSplineSet
AlternateSubs2: "'salt' Access All Alternates in Latin lookup 4-1" g.salt
Substitution2: "'smcp' Lowercase to Small Capitals lookup 16-1" g.smcp
EndChar

StartChar: v
Encoding: 118 118 24
Width: 564
VWidth: 0
Flags: HW
LayerCount: 2
Fore
SplineSet
15.05 531 m 1
 164.8 531 l 1
 280.75 164 l 1
 400.35 531 l 1
 549.55 531 l 1
 356.9 0 l 1
 200.4 0 l 1
 15.05 531 l 1
EndSplineSet
Substitution2: "'smcp' Lowercase to Small Capitals lookup 16-1" v.smcp
EndChar

StartChar: w
Encoding: 119 119 25
Width: 826
VWidth: 0
Flags: HW
LayerCount: 2
Fore
SplineSet
15.05 531 m 1
 164.8 531 l 1
 271.2 164 l 1
 366.3 531 l 1
 505.7 531 l 1
 468.75 387.95 l 1
 556.7 164 l 1
 661.5 531 l 1
 811.8 531 l 1
 640.15 0 l 1
 483.65 0 l 1
 404.15 192.35 l 1
 344.1 0 l 1
 184.9 0 l 1
 15.05 531 l 1
EndSplineSet
Substitution2: "'smcp' Lowercase to Small Capitals lookup 16-1" w.smcp
EndChar

StartChar: y
Encoding: 121 121 26
Width: 578
VWidth: 0
Flags: HW
LayerCount: 2
Fore
SplineSet
16.05 531 m 1
 163.05 531 l 1
 254.65 159.45 l 2
 266.05 116.75 299.65 121 308 120.45 c 1
 414.35 531 l 1
 560.05 531 l 1
 376.1 -168 l 1
 303.3 -270 l 1
 203.4 -270 l 1
 278.15 0 l 1
 204.35 0 146.05 37.2 120.2 135.3 c 2
 16.05 531 l 1
EndSplineSet
Substitution2: "'smcp' Lowercase to Small Capitals lookup 16-1" y.smcp
EndChar

StartChar: x
Encoding: 120 120 27
Width: 572
VWidth: 0
Flags: HW
HStem: 0 21G<18.5 200.037 372.363 545.9> 0 21G<18.5 200.037 372.363 545.9> 511 20G<18.5 199.74 372.295 553.9>
DStem2: 18.5 0 187.5 0 0.567936 0.823073<95.9812 95.9812 457.478 645.143>
LayerCount: 2
Fore
SplineSet
18.5 0 m 1
 201.7 266 l 1
 18.5 531 l 1
 187.5 531 l 1
 284.75 372.1 l 1
 384.9 531 l 1
 553.9 531 l 1
 368.15 263 l 1
 545.9 0 l 1
 384.9 0 l 1
 286.2 157.45 l 1
 187.5 0 l 1
 18.5 0 l 1
EndSplineSet
AlternateSubs2: "'salt' Access All Alternates in Latin lookup 4-1" x.salt
Substitution2: "'smcp' Lowercase to Small Capitals lookup 16-1" x.smcp
EndChar

StartChar: V
Encoding: 86 86 28
Width: 685
VWidth: 0
Flags: HW
LayerCount: 2
Fore
SplineSet
34 732 m 1
 182.65 732 l 1
 345.5 184 l 1
 518.35 732 l 1
 667 732 l 1
 425.5 0 l 1
 263.5 0 l 1
 34 732 l 1
EndSplineSet
Substitution2: "'c2sc' Capitals to Small Capitals in Latin lookup 17 subtable" v.smcp
EndChar

StartChar: W
Encoding: 87 87 29
Width: 992
VWidth: 0
Flags: HW
LayerCount: 2
Fore
SplineSet
34 732 m 1
 182.65 732 l 1
 345.05 188.95 l 1
 476.55 732 l 1
 626.55 732 l 1
 575.6 543.1 l 1
 691.55 186.25 l 1
 825.75 732 l 1
 974.4 732 l 1
 772.9 0 l 1
 610.9 0 l 1
 512.4 299.75 l 1
 425.5 0 l 1
 263.5 0 l 1
 34 732 l 1
EndSplineSet
Substitution2: "'c2sc' Capitals to Small Capitals in Latin lookup 17 subtable" w.smcp
EndChar

StartChar: C
Encoding: 67 67 30
Width: 571
VWidth: 0
Flags: HW
LayerCount: 2
Fore
SplineSet
41.8 368 m 0
 41.8 602 91.75 740 290.75 740 c 0
 393.35 740 466.95 730.2 545.75 706.75 c 1
 545.75 597.15 l 1
 544.75 597.15 421.8 611 323.75 611 c 0
 221.3 611 181.8 587.55 181.8 366 c 0
 181.8 202 208.9 123 324.3 123 c 0
 429.3 123 545.75 131.1 545.75 131.1 c 1
 545.75 21.5 l 1
 480.15 1.35 395.55 -7.65 290.75 -6 c 0
 105.75 -4.35 41.8 135.95 41.8 368 c 0
EndSplineSet
Substitution2: "'c2sc' Capitals to Small Capitals in Latin lookup 17 subtable" c.smcp
EndChar

StartChar: D
Encoding: 68 68 31
Width: 662
VWidth: 0
Flags: HW
LayerCount: 2
Fore
SplineSet
200.75 124.85 m 1
 360.8 124.85 l 2
 451.55 124.85 485.75 217.15 485.75 364 c 0
 485.75 559.85 438.85 608.5 360.8 608.5 c 2
 200.75 608.5 l 1
 200.75 124.85 l 1
60.75 0 m 1
 60.75 732 l 1
 371.8 732 l 2
 582.5 732 625.75 544.35 625.75 363 c 0
 625.75 147.5 550.5 0 371.8 0 c 2
 60.75 0 l 1
EndSplineSet
Substitution2: "'c2sc' Capitals to Small Capitals in Latin lookup 17 subtable" d.smcp
EndChar

StartChar: O
Encoding: 79 79 32
Width: 671
VWidth: 0
Flags: HW
HStem: -4 129<241.568 439.63> 608 129<241.217 443.428>
VStem: 49.6 140<189.498 543.018> 497.6 140<193.989 544.176>
LayerCount: 2
Fore
SplineSet
189.6 361 m 0
 189.6 161.2 219.05 125 344.05 125 c 0
 461.55 125 497.6 163.7 497.6 361 c 0
 497.6 589.05 455.3 608 344.05 608 c 0
 235.8 608 189.6 594 189.6 361 c 0
49.6 361 m 0
 49.6 704 176.05 737 344.05 737 c 0
 517.05 737 637.6 704 637.6 361 c 0
 637.6 38 524.05 -4 344.05 -4 c 0
 164.05 -4 49.6 28 49.6 361 c 0
EndSplineSet
Substitution2: "'c2sc' Capitals to Small Capitals in Latin lookup 17 subtable" o.smcp
EndChar

StartChar: S
Encoding: 83 83 33
Width: 590
VWidth: 0
Flags: HW
LayerCount: 2
Fore
SplineSet
49.6 485.75 m 2
 49.6 549 l 2
 49.6 694 135.6 736.35 247.6 738 c 0
 352.85 740.2 472.8 726.15 530.6 709.05 c 1
 530.6 599 l 1
 466.6 604.65 322.4 609 286.1 609 c 0
 224.9 610.35 189.6 606.1 189.6 538 c 2
 189.6 502.25 l 2
 189.6 444.25 211.8 431.75 268.5 431.75 c 2
 384.1 431.75 l 2
 527.55 431.75 557.15 318.65 557.15 237.75 c 2
 557.15 189 l 2
 557.15 22.8 453.6 -8 354.6 -8 c 0
 229.7 -8 147.85 -0.35 72.15 21.95 c 1
 72.15 132 l 1
 112.15 128 234.1 121 327.1 121 c 0
 369.2 121 417.15 127.95 417.15 184.05 c 2
 417.15 223.45 l 2
 417.15 265.05 404.55 291.75 351.1 291.75 c 2
 238.6 291.75 l 2
 62.1 291.75 49.6 422.1 49.6 485.75 c 2
EndSplineSet
Substitution2: "'c2sc' Capitals to Small Capitals in Latin lookup 17 subtable" s.smcp
EndChar

StartChar: G
Encoding: 71 71 34
Width: 614
VWidth: 0
Flags: HW
LayerCount: 2
Fore
SplineSet
41.8 370 m 0
 41.8 582.65 81.75 740 280.75 740 c 0
 391.6 740 456.5 733.7 562.25 707.5 c 1
 562.25 599 l 1
 556.25 599 428.15 616.5 313.75 616.5 c 0
 203.2 616.5 181.8 548.55 181.8 368 c 0
 181.8 177.9 203.55 126.65 307.3 125.75 c 0
 375.6 125.3 433.3 171.75 433.3 171.75 c 1
 433.3 303 l 1
 330.75 303 l 1
 330.75 391.5 l 1
 373.5 409.65 432.55 416.5 505.3 416.5 c 0
 526.3 416.5 549.3 415.5 573.3 413.5 c 1
 573.3 0 l 1
 472.75 0 l 1
 435.3 49 l 1
 402.8 19.2 364.3 -2.25 279.8 -5 c 0
 72.8 -13.05 41.8 161.3 41.8 370 c 0
EndSplineSet
Substitution2: "'c2sc' Capitals to Small Capitals in Latin lookup 17 subtable" g.smcp
EndChar

StartChar: Q
Encoding: 81 81 35
Width: 671
VWidth: 0
Flags: HW
LayerCount: 2
Fore
SplineSet
299.95 -33 m 1
 379.45 -33 l 1
 410.65 -86.35 482.85 -77.3 541.95 -61.25 c 1
 541.95 -174.25 l 1
 441.35 -196.3 307.7 -161.05 299.95 -33 c 1
189.6 361 m 0
 189.6 161.2 218.15 125 343.15 125 c 0
 460.65 125 497.6 163.7 497.6 361 c 0
 497.6 589.05 454.4 608 343.15 608 c 0
 234.9 608 189.6 594 189.6 361 c 0
49.6 361 m 0
 49.6 704 173.35 737 343.15 737 c 0
 516.15 737 637.6 704 637.6 361 c 0
 637.6 38 523.15 -2.9 343.15 -4 c 1
 163.15 -4 49.6 28 49.6 361 c 0
EndSplineSet
Substitution2: "'c2sc' Capitals to Small Capitals in Latin lookup 17 subtable" q.smcp
EndChar

StartChar: M
Encoding: 77 77 36
Width: 847
VWidth: 0
Flags: HW
HStem: 0 21G<41.8 181.923 340.935 507.087 666.195 806.5> 0 21G<41.8 181.923 340.935 507.087 666.195 806.5> 712 20G<104.538 305.573 539.047 739.726>
DStem2: 41.8 0 180.15 0 0.0877747 0.99614<12.1436 502.609> 300.7 732 223.45 488.55 0.236726 -0.971577<218.243 514.73> 422.55 231.9 502.25 0 0.235809 0.971799<0 296.067> 737.85 732 620.4 488.55 0.0933744 -0.995631<231.42 722.294>
LayerCount: 2
Fore
SplineSet
41.8 0 m 1
 106.3 732 l 1
 300.7 732 l 1
 422.55 231.9 l 1
 543.9 732 l 1
 737.85 732 l 1
 806.5 0 l 1
 668.15 0 l 1
 620.4 488.55 l 1
 502.25 0 l 1
 345.95 0 l 1
 223.45 488.55 l 1
 180.15 0 l 1
 41.8 0 l 1
EndSplineSet
AlternateSubs2: "'salt' Access All Alternates in Latin lookup 4-1" M.salt
Substitution2: "'c2sc' Capitals to Small Capitals in Latin lookup 17 subtable" m.smcp
EndChar

StartChar: I
Encoding: 73 73 37
Width: 245
VWidth: 0
Flags: HW
HStem: 0 21G<60.75 200.75> 0 21G<60.75 200.75> 712 20G<60.75 200.75>
VStem: 60.75 140<0 732>
LayerCount: 2
Fore
SplineSet
60.75 0 m 1
 60.75 732 l 1
 200.75 732 l 1
 200.75 0 l 1
 60.75 0 l 1
EndSplineSet
Substitution2: "'c2sc' Capitals to Small Capitals in Latin lookup 17 subtable" i.smcp
EndChar

StartChar: J
Encoding: 74 74 38
Width: 356
VWidth: 0
Flags: HW
LayerCount: 2
Fore
SplineSet
26.75 23.2 m 1
 28.55 132.2 l 1
 119.6 124.1 171.2 121.15 171.65 226.05 c 2
 171.65 732 l 1
 311.65 732 l 1
 311.65 165 l 2
 311.65 118 308.55 50 258.55 18 c 0
 205.55 -16 78.75 -10.8 26.75 23.2 c 1
EndSplineSet
Substitution2: "'c2sc' Capitals to Small Capitals in Latin lookup 17 subtable" j.smcp
EndChar

StartChar: H
Encoding: 72 72 39
Width: 636
VWidth: 0
Flags: HW
LayerCount: 2
Fore
SplineSet
60.75 0 m 1
 60.75 732 l 1
 200.75 732 l 1
 200.75 418.5 l 1
 451.75 418.5 l 1
 451.75 732 l 1
 591.75 732 l 1
 591.75 0 l 1
 451.75 0 l 1
 451.75 289.5 l 1
 200.75 289.5 l 1
 200.75 0 l 1
 60.75 0 l 1
EndSplineSet
Substitution2: "'c2sc' Capitals to Small Capitals in Latin lookup 17 subtable" h.smcp
EndChar

StartChar: E
Encoding: 69 69 40
Width: 567
VWidth: 0
Flags: HW
LayerCount: 2
Fore
SplineSet
58 143.9 m 2
 58 580 l 2
 58 707.025 147.965 733.35 217 732 c 1
 217 732 474.7 724.8 539.05 716 c 1
 539.05 600.25 l 1
 250 600.25 l 2
 198 600.25 198 571.25 198 544.25 c 2
 198 430.05 l 1
 493.55 419.5 l 1
 493.55 304.4 l 1
 198 294.95 l 1
 198 180.75 l 2
 198.45 127.75 231 128.75 260 128.75 c 2
 539.05 128.75 l 1
 539.05 14 l 1
 482.4 6.3 227 -3 227 -3 c 2
 161.715 -5.9 58 8.9 58 143.9 c 2
EndSplineSet
Substitution2: "'c2sc' Capitals to Small Capitals in Latin lookup 17 subtable" e.smcp
EndChar

StartChar: L
Encoding: 76 76 41
Width: 539
VWidth: 0
Flags: HW
HStem: 0 129<209.517 513.75> 712 20G<60.75 200.75>
VStem: 60.75 140<137.264 732>
LayerCount: 2
Fore
SplineSet
60.75 142.5 m 2
 60.75 732 l 1
 200.75 732 l 1
 200.75 181 l 2
 200.75 128 233.75 129 262.75 129 c 2
 513.75 129 l 1
 513.75 0 l 1
 213.25 0 l 2
 133.5 0 60.75 29.5 60.75 142.5 c 2
EndSplineSet
Substitution2: "'c2sc' Capitals to Small Capitals in Latin lookup 17 subtable" l.smcp
EndChar

StartChar: F
Encoding: 70 70 42
Width: 567
VWidth: 0
Flags: HW
LayerCount: 2
Fore
SplineSet
58 0 m 1
 58 577.8 l 2
 58 697.25 140.265 733.9 217 732 c 1
 217 732 474.7 724.8 539.05 716 c 1
 539.05 600.25 l 1
 250 600.25 l 2
 198 600.25 198 571.25 198 544.25 c 2
 198 430.05 l 1
 493.55 419.5 l 1
 493.55 304.4 l 1
 198 294.95 l 1
 198 0 l 1
 58 0 l 1
EndSplineSet
Substitution2: "'c2sc' Capitals to Small Capitals in Latin lookup 17 subtable" f.smcp
EndChar

StartChar: K
Encoding: 75 75 43
Width: 628
VWidth: 0
Flags: HW
LayerCount: 2
Fore
SplineSet
60.75 0 m 1
 60.75 732 l 1
 195.25 732 l 1
 195.25 426 l 1
 254.15 426 l 1
 439.6 732 l 1
 602.75 732 l 1
 378.8 365.35 l 1
 602.75 0 l 1
 439.6 0 l 1
 254.15 302.5 l 1
 196.25 302.5 l 1
 196.25 0 l 1
 60.75 0 l 1
EndSplineSet
Substitution2: "'c2sc' Capitals to Small Capitals in Latin lookup 17 subtable" k.smcp
EndChar

StartChar: T
Encoding: 84 84 44
Width: 593
VWidth: 0
Flags: HW
HStem: 0 21G<228.75 368.75> 0 21G<228.75 368.75> 603 129<31.25 228.75 368.75 572.25>
VStem: 228.75 140<0 603>
LayerCount: 2
Fore
SplineSet
31.25 603 m 1
 31.25 732 l 1
 572.25 732 l 1
 572.25 603 l 1
 368.75 603 l 1
 368.75 0 l 1
 228.75 0 l 1
 228.75 603 l 1
 31.25 603 l 1
EndSplineSet
Substitution2: "'c2sc' Capitals to Small Capitals in Latin lookup 17 subtable" t.smcp
EndChar

StartChar: P
Encoding: 80 80 45
Width: 602
VWidth: 0
Flags: HW
HStem: 0 21G<51.2 191.2> 0 21G<51.2 191.2> 270.5 123.5<191.525 406.878> 290.5 103.5<191.2 406.878> 607.5 124.5<191.2 405.422>
VStem: 51.2 140<0 290.5 394 607.5> 428 141<415.417 582.678>
LayerCount: 2
Fore
SplineSet
191.2 394 m 1
 354.95 394 l 2
 399.25 394 428 416.7 428 504.6 c 0
 427.1 591.05 389.95 607.5 354.95 607.5 c 2
 191.2 607.5 l 1
 191.2 394 l 1
51.2 0 m 1
 51.2 732 l 1
 365.95 732 l 2
 457.6 732 569 703.4 569 506.25 c 0
 569 282.95 449.85 266.65 365.95 270.5 c 0
 325.95 272.15 196.2 287.5 191.2 290.5 c 1
 191.2 0 l 1
 51.2 0 l 1
EndSplineSet
Substitution2: "'c2sc' Capitals to Small Capitals in Latin lookup 17 subtable" p.smcp
EndChar

StartChar: R
Encoding: 82 82 46
Width: 607
VWidth: 0
Flags: HW
HStem: 0 21G<51.2 191.2 426.464 592.75> 0 21G<51.2 191.2 426.464 592.75> 291 110<191.75 252.7> 607.5 124.5<191.75 407.816>
VStem: 51.2 140<0 291 401 607.5> 429.7 141<416.525 586.536>
DStem2: 454.15 288.25 314.2 277 0.433341 -0.90123<0 251.568>
LayerCount: 2
Fore
SplineSet
191.75 401 m 1
 357.7 401 l 2
 406.45 401 429.7 415.3 429.7 503.75 c 0
 429.7 586.9 401.7 607.5 357.7 607.5 c 2
 191.75 607.5 l 1
 191.75 401 l 1
51.2 0 m 1
 51.2 732 l 1
 371.45 732 l 2
 485.7 732 570.7 678.55 570.7 503.75 c 0
 570.7 322.55 494.8 301.05 454.15 288.25 c 1
 592.75 0 l 1
 435.2 0 l 1
 314.2 277 l 1
 191.2 291 l 1
 191.2 0 l 1
 51.2 0 l 1
EndSplineSet
Substitution2: "'c2sc' Capitals to Small Capitals in Latin lookup 17 subtable" r.smcp
EndChar

StartChar: U
Encoding: 85 85 47
Width: 664
VWidth: 0
Flags: HW
LayerCount: 2
Fore
SplineSet
60.75 320 m 2
 60.75 732 l 1
 200.75 732 l 1
 200.75 320 l 2
 200.75 152.65 237.85 124 342.75 124 c 0
 436.25 124 478.75 158.45 478.75 320 c 2
 478.75 732 l 1
 619.75 732 l 1
 619.75 320 l 2
 619.75 -3 463.75 -5 342.75 -5 c 0
 206.75 -5 60.75 -13 60.75 320 c 2
EndSplineSet
Substitution2: "'c2sc' Capitals to Small Capitals in Latin lookup 17 subtable" u.smcp
EndChar

StartChar: B
Encoding: 66 66 48
Width: 604
VWidth: 0
Flags: HW
LayerCount: 2
Fore
SplineSet
201.2 442 m 1
 354.3 442 l 2
 404.55 442 431.25 472.65 431.25 524.95 c 0
 431.25 592.8 389.8 608.5 354.3 608.5 c 2
 201.2 608.5 l 1
 201.2 442 l 1
201.2 123.5 m 1
 359.8 123.5 l 2
 402.3 123.5 440.75 143.65 440.75 221.4 c 0
 440.75 275.05 419.05 324 359.8 324 c 2
 201.2 324 l 1
 201.2 123.5 l 1
60.75 0 m 1
 60.75 732 l 1
 362.55 732 l 2
 514.05 732 569.05 641.6 569.05 536.5 c 0
 569.05 469.1 540.35 393.2 468.8 380 c 1
 529.85 368.9 580.75 308.1 580.75 215 c 0
 580.75 78.9 519.3 0 365.3 0 c 2
 60.75 0 l 1
EndSplineSet
Substitution2: "'c2sc' Capitals to Small Capitals in Latin lookup 17 subtable" b.smcp
EndChar

StartChar: N
Encoding: 78 78 49
Width: 678
VWidth: 0
Flags: HW
LayerCount: 2
Fore
SplineSet
60.75 0 m 1
 60.75 732 l 1
 202.75 732 l 1
 493.2 259 l 1
 493.2 732 l 1
 633.2 732 l 1
 633.2 0 l 1
 493.2 0 l 1
 201.75 467.5 l 1
 201.75 0 l 1
 60.75 0 l 1
EndSplineSet
AlternateSubs2: "'salt' Access All Alternates in Latin lookup 4-1" N.salt
Substitution2: "'c2sc' Capitals to Small Capitals in Latin lookup 17 subtable" n.smcp
EndChar

StartChar: X
Encoding: 88 88 50
Width: 641
VWidth: 0
Flags: HW
HStem: 0 21G<37 202.719 451.998 617.7> 0 21G<37 202.719 451.998 617.7> 712 20G<34 199.809 456.747 622.7>
DStem2: 188.7 732 34 732 0.505629 -0.862751<0 285.671 489.108 770.228> 37 0 191.7 0 0.50738 0.861722<78.4917 78.4917 562.891 849.462>
LayerCount: 2
Fore
SplineSet
34 732 m 1
 188.7 732 l 1
 327.45 482.2 l 1
 468 732 l 1
 622.7 732 l 1
 402.85 366.6 l 1
 617.7 0 l 1
 463 0 l 1
 327.45 246.4 l 1
 191.7 0 l 1
 37 0 l 1
 251.5 366.6 l 1
 34 732 l 1
EndSplineSet
AlternateSubs2: "'salt' Access All Alternates in Latin lookup 4-1" X.salt
Substitution2: "'c2sc' Capitals to Small Capitals in Latin lookup 17 subtable" x.smcp
EndChar

StartChar: Z
Encoding: 90 90 51
Width: 556
VWidth: 0
Flags: HW
LayerCount: 2
Fore
SplineSet
26.75 0 m 1
 26.75 129 l 1
 362.25 603 l 1
 26.75 603 l 1
 26.75 732 l 1
 530.75 732 l 1
 530.75 603 l 1
 211.75 129 l 1
 530.75 129 l 1
 530.75 0 l 1
 26.75 0 l 1
EndSplineSet
Substitution2: "'c2sc' Capitals to Small Capitals in Latin lookup 17 subtable" z.smcp
EndChar

StartChar: Y
Encoding: 89 89 52
Width: 656
VWidth: 0
Flags: HW
LayerCount: 2
Fore
SplineSet
34 732 m 1
 186.5 732 l 1
 329.3 381 l 1
 485.5 732 l 1
 638 732 l 1
 397.1 227 l 1
 397.1 0 l 1
 257.1 0 l 1
 257.1 227 l 1
 34 732 l 1
EndSplineSet
Substitution2: "'c2sc' Capitals to Small Capitals in Latin lookup 17 subtable" y.smcp
EndChar

StartChar: Agrave
Encoding: 192 192 53
Width: 692
VWidth: 0
Flags: HW
LayerCount: 2
Fore
SplineSet
193.125 935.5 m 1
 315.625 935.5 l 1
 406.125 797 l 1
 315.125 797 l 1
 193.125 935.5 l 1
273.55 286.25 m 1
 443.8 286.25 l 1
 361.55 547.5 l 1
 273.55 286.25 l 1
34 0 m 1
 281 732 l 1
 440.25 732 l 1
 678 0 l 1
 528.95 0 l 1
 476.95 162.2 l 1
 237.2 162.2 l 1
 184.4 0 l 1
 34 0 l 1
EndSplineSet
Substitution2: "'c2sc' Capitals to Small Capitals in Latin lookup 17 subtable" agrave.smcp
EndChar

StartChar: Aacute
Encoding: 193 193 54
Width: 692
VWidth: 0
Flags: HW
LayerCount: 2
Fore
SplineSet
315.125 797 m 1
 405.625 935.5 l 1
 528.125 935.5 l 1
 406.125 797 l 1
 315.125 797 l 1
273.55 286.25 m 1
 443.8 286.25 l 1
 361.55 547.5 l 1
 273.55 286.25 l 1
34 0 m 1
 281 732 l 1
 440.25 732 l 1
 678 0 l 1
 528.95 0 l 1
 476.95 162.2 l 1
 237.2 162.2 l 1
 184.4 0 l 1
 34 0 l 1
EndSplineSet
Substitution2: "'c2sc' Capitals to Small Capitals in Latin lookup 17 subtable" aacute.smcp
EndChar

StartChar: Acircumflex
Encoding: 194 194 55
Width: 692
VWidth: 0
Flags: HW
LayerCount: 2
Fore
SplineSet
206.375 797 m 1
 314.025 932.5 l 1
 418.025 932.5 l 1
 514.875 797 l 1
 421.875 797 l 1
 362.975 857 l 1
 300.375 797 l 1
 206.375 797 l 1
273.55 286.25 m 1
 443.8 286.25 l 1
 361.55 547.5 l 1
 273.55 286.25 l 1
34 0 m 1
 281 732 l 1
 440.25 732 l 1
 678 0 l 1
 528.95 0 l 1
 476.95 162.2 l 1
 237.2 162.2 l 1
 184.4 0 l 1
 34 0 l 1
EndSplineSet
Substitution2: "'c2sc' Capitals to Small Capitals in Latin lookup 17 subtable" acircumflex.smcp
EndChar

StartChar: Atilde
Encoding: 195 195 56
Width: 692
VWidth: 0
Flags: HW
LayerCount: 2
Fore
SplineSet
188.875 852.3 m 1
 220.625 886.95 260.375 921.8 309.625 921.8 c 1
 356.325 920.45 381.475 887.25 416.075 886.8 c 1
 448.875 885.25 481.675 904.7 508.175 925 c 1
 532.375 865.4 l 1
 505.425 836 465.975 796.55 419.025 797.45 c 0
 370.175 798.8 344.725 832.45 307.075 832 c 0
 265.825 831.55 246.875 816.5 213.175 797 c 1
 188.875 852.3 l 1
273.55 286.25 m 1
 443.8 286.25 l 1
 361.55 547.5 l 1
 273.55 286.25 l 1
34 0 m 1
 281 732 l 1
 440.25 732 l 1
 678 0 l 1
 528.95 0 l 1
 476.95 162.2 l 1
 237.2 162.2 l 1
 184.4 0 l 1
 34 0 l 1
EndSplineSet
Substitution2: "'c2sc' Capitals to Small Capitals in Latin lookup 17 subtable" atilde.smcp
EndChar

StartChar: Adieresis
Encoding: 196 196 57
Width: 692
VWidth: 0
Flags: HW
LayerCount: 2
Fore
SplineSet
429.375 856.25 m 0
 429.375 888.65 456.225 914.5 488.625 914.5 c 0
 521.025 914.5 546.875 888.65 546.875 856.25 c 0
 546.875 823.85 521.025 797 488.625 797 c 0
 456.225 797 429.375 823.85 429.375 856.25 c 0
174.375 856.25 m 0
 174.375 888.65 201.225 914.5 233.625 914.5 c 0
 266.025 914.5 291.875 888.65 291.875 856.25 c 0
 291.875 823.85 266.025 797 233.625 797 c 0
 201.225 797 174.375 823.85 174.375 856.25 c 0
273.55 286.25 m 1
 443.8 286.25 l 1
 361.55 547.5 l 1
 273.55 286.25 l 1
34 0 m 1
 281 732 l 1
 440.25 732 l 1
 678 0 l 1
 528.95 0 l 1
 476.95 162.2 l 1
 237.2 162.2 l 1
 184.4 0 l 1
 34 0 l 1
EndSplineSet
Substitution2: "'c2sc' Capitals to Small Capitals in Latin lookup 17 subtable" adieresis.smcp
EndChar

StartChar: Aring
Encoding: 197 197 58
Width: 692
VWidth: 0
Flags: HW
LayerCount: 2
Fore
SplineSet
317.675 832.167 m 0
 317.675 808.217 337.175 789.717 361.125 789.717 c 0
 385.075 789.717 403.575 808.217 403.575 832.167 c 0
 403.575 856.117 385.075 875.617 361.125 875.617 c 0
 337.175 875.617 317.675 856.117 317.675 832.167 c 0
259.125 832.167 m 0
 259.125 889.167 305.125 935.167 361.125 935.167 c 0
 417.125 935.167 462.125 889.167 462.125 832.167 c 0
 462.125 781.907 427.138 740.977 380.473 732 c 1
 440.25 732 l 1
 678 0 l 1
 528.95 0 l 1
 476.95 162.2 l 1
 237.2 162.2 l 1
 184.4 0 l 1
 34 0 l 1
 281 732 l 1
 341.739 732 l 1
 294.89 740.977 259.125 781.907 259.125 832.167 c 0
273.55 286.25 m 1
 443.8 286.25 l 1
 361.55 547.5 l 1
 273.55 286.25 l 1
EndSplineSet
Substitution2: "'c2sc' Capitals to Small Capitals in Latin lookup 17 subtable" aring.smcp
EndChar

StartChar: AE
Encoding: 198 198 59
Width: 954
VWidth: 0
Flags: HW
LayerCount: 2
Fore
SplineSet
333.25 317.5 m 1
 449.05 317.5 l 1
 449.05 558.5 l 1
 333.25 317.5 l 1
22.85 0 m 1
 306 575.4 l 2
 382.95 730.95 493.35 735.85 607.15 732 c 1
 607.15 732 855.65 724.8 920 716 c 1
 920 599.8 l 1
 640.15 599.8 l 2
 589.95 599.8 589.95 572.15 589.05 545.15 c 2
 589.05 427.8 l 1
 874.5 417.25 l 1
 874.5 302.15 l 1
 589.05 292.7 l 1
 589.05 179.85 l 2
 589.05 126.85 622.05 130.1 651.05 130.1 c 2
 919.55 129.65 l 1
 919.55 13.1 l 1
 862.9 5.4 618.05 -3.9 618.05 -3.9 c 2
 549.85 -7.9 449.05 8 449.05 121 c 2
 449.05 194 l 1
 273.7 194 l 1
 177.55 0 l 1
 22.85 0 l 1
EndSplineSet
EndChar

StartChar: Ccedilla
Encoding: 199 199 60
Width: 571
VWidth: 0
Flags: HW
LayerCount: 2
Fore
SplineSet
113.5 -117.95 m 1
 157.7 -102.95 l 1
 185.7 -90.9502 187.5 -74.5498 187.5 -36.5498 c 1
 282 -36.5498 l 1
 282 -138.55 256.6 -178.05 170 -178.05 c 2
 113.5 -178.05 l 1
 113.5 -117.95 l 1
41.7998 368 m 0
 41.7998 602 91.75 740 290.75 740 c 0
 393.35 740 466.95 730.2 545.75 706.75 c 1
 545.75 597.15 l 1
 544.75 597.15 421.8 611 323.75 611 c 0
 221.3 611 181.8 587.55 181.8 366 c 0
 181.8 202 208.9 123 324.3 123 c 0
 429.3 123 545.75 131.1 545.75 131.1 c 1
 545.75 21.5 l 1
 480.15 1.34961 395.55 -7.65039 290.75 -6 c 0
 105.75 -4.34961 41.7998 135.95 41.7998 368 c 0
EndSplineSet
Substitution2: "'c2sc' Capitals to Small Capitals in Latin lookup 17 subtable" ccedilla.smcp
EndChar

StartChar: Eth
Encoding: 208 208 61
Width: 662
VWidth: 0
Flags: HW
LayerCount: 2
Fore
SplineSet
200.75 124.85 m 1
 361.25 124.85 l 2
 452 124.85 484.4 217.15 484.4 364 c 0
 484.4 558.05 435.7 606.25 361.25 606.25 c 2
 200.75 605.8 l 1
 200.75 405.5 l 1
 312.25 405.5 l 1
 312.25 340.5 l 1
 200.75 340.5 l 1
 200.75 124.85 l 1
-4.25 340.5 m 1
 -4.25 405.5 l 1
 60.75 405.5 l 1
 60.75 731.55 l 2
 60.75 732 345.25 732 372.25 732 c 0
 582.95 732 625.75 544.35 625.75 363 c 0
 625.75 147.5 550.95 0 372.25 0 c 2
 60.75 0 l 1
 60.75 340.5 l 1
 -4.25 340.5 l 1
EndSplineSet
Substitution2: "'c2sc' Capitals to Small Capitals in Latin lookup 17 subtable" eth.smcp
EndChar

StartChar: Egrave
Encoding: 200 200 62
Width: 567
VWidth: 0
Flags: HW
LayerCount: 2
Fore
SplineSet
164.45 933.8 m 1
 286.95 933.8 l 1
 377.45 795.3 l 1
 286.45 795.3 l 1
 164.45 933.8 l 1
58 143.9 m 2
 58 580 l 2
 58 707.025 147.965 733.35 217 732 c 1
 217 732 474.7 724.8 539.05 716 c 1
 539.05 600.25 l 1
 250 600.25 l 2
 198 600.25 198 571.25 198 544.25 c 2
 198 430.05 l 1
 493.55 419.5 l 1
 493.55 304.4 l 1
 198 294.95 l 1
 198 180.75 l 2
 198.45 127.75 231 128.75 260 128.75 c 2
 539.05 128.75 l 1
 539.05 14 l 1
 482.4 6.2998 227 -3 227 -3 c 2
 161.715 -5.90039 58 8.90039 58 143.9 c 2
EndSplineSet
Substitution2: "'c2sc' Capitals to Small Capitals in Latin lookup 17 subtable" egrave.smcp
EndChar

StartChar: Eacute
Encoding: 201 201 63
Width: 567
VWidth: 0
Flags: HW
LayerCount: 2
Fore
SplineSet
275.45 794.75 m 1
 365.95 933.25 l 1
 488.45 933.25 l 1
 366.45 794.75 l 1
 275.45 794.75 l 1
58 143.9 m 2
 58 580 l 2
 58 707.025 147.965 733.35 217 732 c 1
 217 732 474.7 724.8 539.05 716 c 1
 539.05 600.25 l 1
 250 600.25 l 2
 198 600.25 198 571.25 198 544.25 c 2
 198 430.05 l 1
 493.55 419.5 l 1
 493.55 304.4 l 1
 198 294.95 l 1
 198 180.75 l 2
 198.45 127.75 231 128.75 260 128.75 c 2
 539.05 128.75 l 1
 539.05 14 l 1
 482.4 6.2998 227 -3 227 -3 c 2
 161.715 -5.90039 58 8.90039 58 143.9 c 2
EndSplineSet
Substitution2: "'c2sc' Capitals to Small Capitals in Latin lookup 17 subtable" eacute.smcp
EndChar

StartChar: Ecircumflex
Encoding: 202 202 64
Width: 567
VWidth: 0
Flags: HW
LayerCount: 2
Fore
SplineSet
163.4 797 m 1
 271.05 932.5 l 1
 375.05 932.5 l 1
 471.9 797 l 1
 378.9 797 l 1
 320 857 l 1
 257.4 797 l 1
 163.4 797 l 1
58 143.9 m 2
 58 580 l 2
 58 707.025 147.965 733.35 217 732 c 1
 217 732 474.7 724.8 539.05 716 c 1
 539.05 600.25 l 1
 250 600.25 l 2
 198 600.25 198 571.25 198 544.25 c 2
 198 430.05 l 1
 493.55 419.5 l 1
 493.55 304.4 l 1
 198 294.95 l 1
 198 180.75 l 2
 198.45 127.75 231 128.75 260 128.75 c 2
 539.05 128.75 l 1
 539.05 14 l 1
 482.4 6.2998 227 -3 227 -3 c 2
 161.715 -5.90039 58 8.90039 58 143.9 c 2
EndSplineSet
Substitution2: "'c2sc' Capitals to Small Capitals in Latin lookup 17 subtable" ecircumflex.smcp
EndChar

StartChar: Edieresis
Encoding: 203 203 65
Width: 567
VWidth: 0
Flags: HW
LayerCount: 2
Fore
SplineSet
381.35 854 m 0
 381.35 886.4 408.2 912.25 440.6 912.25 c 0
 473 912.25 498.85 886.4 498.85 854 c 0
 498.85 821.6 473 794.75 440.6 794.75 c 0
 408.2 794.75 381.35 821.6 381.35 854 c 0
126.35 854 m 0
 126.35 886.4 153.2 912.25 185.6 912.25 c 0
 218 912.25 243.85 886.4 243.85 854 c 0
 243.85 821.6 218 794.75 185.6 794.75 c 0
 153.2 794.75 126.35 821.6 126.35 854 c 0
58 143.9 m 2
 58 580 l 2
 58 707.025 147.965 733.35 217 732 c 1
 217 732 474.7 724.8 539.05 716 c 1
 539.05 600.25 l 1
 250 600.25 l 2
 198 600.25 198 571.25 198 544.25 c 2
 198 430.05 l 1
 493.55 419.5 l 1
 493.55 304.4 l 1
 198 294.95 l 1
 198 180.75 l 2
 198.45 127.75 231 128.75 260 128.75 c 2
 539.05 128.75 l 1
 539.05 14 l 1
 482.4 6.2998 227 -3 227 -3 c 2
 161.715 -5.90039 58 8.90039 58 143.9 c 2
EndSplineSet
Substitution2: "'c2sc' Capitals to Small Capitals in Latin lookup 17 subtable" edieresis.smcp
EndChar

StartChar: Igrave
Encoding: 204 204 66
Width: 245
VWidth: 0
Flags: HW
LayerCount: 2
Fore
SplineSet
-36.75 935.5 m 1
 85.75 935.5 l 1
 176.25 797 l 1
 85.25 797 l 1
 -36.75 935.5 l 1
60.75 0 m 1
 60.75 732 l 1
 200.75 732 l 1
 200.75 0 l 1
 60.75 0 l 1
EndSplineSet
Substitution2: "'c2sc' Capitals to Small Capitals in Latin lookup 17 subtable" igrave.smcp
EndChar

StartChar: Iacute
Encoding: 205 205 67
Width: 245
VWidth: 0
Flags: HW
LayerCount: 2
Fore
SplineSet
85.25 797 m 1
 175.75 935.5 l 1
 298.25 935.5 l 1
 176.25 797 l 1
 85.25 797 l 1
60.75 0 m 1
 60.75 732 l 1
 200.75 732 l 1
 200.75 0 l 1
 60.75 0 l 1
EndSplineSet
Substitution2: "'c2sc' Capitals to Small Capitals in Latin lookup 17 subtable" iacute.smcp
EndChar

StartChar: Icircumflex
Encoding: 206 206 68
Width: 245
VWidth: 0
Flags: HW
LayerCount: 2
Fore
SplineSet
-23.5 797 m 1
 84.1504 932.5 l 1
 188.15 932.5 l 1
 285 797 l 1
 192 797 l 1
 133.1 857 l 1
 70.5 797 l 1
 -23.5 797 l 1
60.75 0 m 1
 60.75 732 l 1
 200.75 732 l 1
 200.75 0 l 1
 60.75 0 l 1
EndSplineSet
Substitution2: "'c2sc' Capitals to Small Capitals in Latin lookup 17 subtable" icircumflex.smcp
EndChar

StartChar: Idieresis
Encoding: 207 207 69
Width: 245
VWidth: 0
Flags: HW
LayerCount: 2
Fore
SplineSet
199.5 856.25 m 0
 199.5 888.65 226.35 914.5 258.75 914.5 c 0
 291.15 914.5 317 888.65 317 856.25 c 0
 317 823.85 291.15 797 258.75 797 c 0
 226.35 797 199.5 823.85 199.5 856.25 c 0
-55.5 856.25 m 0
 -55.5 888.65 -28.6504 914.5 3.75 914.5 c 0
 36.1504 914.5 62 888.65 62 856.25 c 0
 62 823.85 36.1504 797 3.75 797 c 0
 -28.6504 797 -55.5 823.85 -55.5 856.25 c 0
60.75 0 m 1
 60.75 732 l 1
 200.75 732 l 1
 200.75 0 l 1
 60.75 0 l 1
EndSplineSet
Substitution2: "'c2sc' Capitals to Small Capitals in Latin lookup 17 subtable" idieresis.smcp
EndChar

StartChar: Ntilde
Encoding: 209 209 70
Width: 678
VWidth: 0
Flags: HW
LayerCount: 2
Fore
SplineSet
175.225 852.3 m 1
 206.975 886.95 246.725 921.8 295.975 921.8 c 1
 342.675 920.45 367.825 887.25 402.425 886.8 c 1
 435.225 885.25 468.025 904.7 494.525 925 c 1
 518.725 865.4 l 1
 491.775 836 452.325 796.55 405.375 797.45 c 0
 356.525 798.8 331.075 832.45 293.425 832 c 0
 252.175 831.55 233.225 816.5 199.525 797 c 1
 175.225 852.3 l 1
60.75 0 m 1
 60.75 732 l 1
 202.75 732 l 1
 493.2 259 l 1
 493.2 732 l 1
 633.2 732 l 1
 633.2 0 l 1
 493.2 0 l 1
 201.75 467.5 l 1
 201.75 0 l 1
 60.75 0 l 1
EndSplineSet
AlternateSubs2: "'salt' Access All Alternates in Latin lookup 4-1" Ntilde.salt
Substitution2: "'c2sc' Capitals to Small Capitals in Latin lookup 17 subtable" ntilde.smcp
EndChar

StartChar: Ograve
Encoding: 210 210 71
Width: 671
VWidth: 0
Flags: HW
LayerCount: 2
Fore
SplineSet
176.55 935.5 m 1
 299.05 935.5 l 1
 389.55 797 l 1
 298.55 797 l 1
 176.55 935.5 l 1
189.6 361 m 0
 189.6 161.2 219.05 125 344.05 125 c 0
 461.55 125 497.6 163.7 497.6 361 c 0
 497.6 589.05 455.3 608 344.05 608 c 0
 235.8 608 189.6 594 189.6 361 c 0
49.5996 361 m 0
 49.5996 704 176.05 737 344.05 737 c 0
 517.05 737 637.6 704 637.6 361 c 0
 637.6 38 524.05 -4 344.05 -4 c 0
 164.05 -4 49.5996 28 49.5996 361 c 0
EndSplineSet
Substitution2: "'c2sc' Capitals to Small Capitals in Latin lookup 17 subtable" ograve.smcp
EndChar

StartChar: Oacute
Encoding: 211 211 72
Width: 671
VWidth: 0
Flags: HW
LayerCount: 2
Fore
SplineSet
298.55 797 m 1
 389.05 935.5 l 1
 511.55 935.5 l 1
 389.55 797 l 1
 298.55 797 l 1
189.6 361 m 0
 189.6 161.2 219.05 125 344.05 125 c 0
 461.55 125 497.6 163.7 497.6 361 c 0
 497.6 589.05 455.3 608 344.05 608 c 0
 235.8 608 189.6 594 189.6 361 c 0
49.5996 361 m 0
 49.5996 704 176.05 737 344.05 737 c 0
 517.05 737 637.6 704 637.6 361 c 0
 637.6 38 524.05 -4 344.05 -4 c 0
 164.05 -4 49.5996 28 49.5996 361 c 0
EndSplineSet
Substitution2: "'c2sc' Capitals to Small Capitals in Latin lookup 17 subtable" oacute.smcp
EndChar

StartChar: Ocircumflex
Encoding: 212 212 73
Width: 671
VWidth: 0
Flags: HW
LayerCount: 2
Fore
SplineSet
189.8 797 m 1
 297.45 932.5 l 1
 401.45 932.5 l 1
 498.3 797 l 1
 405.3 797 l 1
 346.4 857 l 1
 283.8 797 l 1
 189.8 797 l 1
189.6 361 m 0
 189.6 161.2 219.05 125 344.05 125 c 0
 461.55 125 497.6 163.7 497.6 361 c 0
 497.6 589.05 455.3 608 344.05 608 c 0
 235.8 608 189.6 594 189.6 361 c 0
49.5996 361 m 0
 49.5996 704 176.05 737 344.05 737 c 0
 517.05 737 637.6 704 637.6 361 c 0
 637.6 38 524.05 -4 344.05 -4 c 0
 164.05 -4 49.5996 28 49.5996 361 c 0
EndSplineSet
Substitution2: "'c2sc' Capitals to Small Capitals in Latin lookup 17 subtable" ocircumflex.smcp
EndChar

StartChar: Otilde
Encoding: 213 213 74
Width: 671
VWidth: 0
Flags: HW
LayerCount: 2
Fore
SplineSet
172.3 852.3 m 1
 204.05 886.95 243.8 921.8 293.05 921.8 c 1
 339.75 920.45 364.9 887.25 399.5 886.8 c 1
 432.3 885.25 465.1 904.7 491.6 925 c 1
 515.8 865.4 l 1
 488.85 836 449.4 796.55 402.45 797.45 c 0
 353.6 798.8 328.15 832.45 290.5 832 c 0
 249.25 831.55 230.3 816.5 196.6 797 c 1
 172.3 852.3 l 1
189.6 361 m 0
 189.6 161.2 219.05 125 344.05 125 c 0
 461.55 125 497.6 163.7 497.6 361 c 0
 497.6 589.05 455.3 608 344.05 608 c 0
 235.8 608 189.6 594 189.6 361 c 0
49.5996 361 m 0
 49.5996 704 176.05 737 344.05 737 c 0
 517.05 737 637.6 704 637.6 361 c 0
 637.6 38 524.05 -4 344.05 -4 c 0
 164.05 -4 49.5996 28 49.5996 361 c 0
EndSplineSet
Substitution2: "'c2sc' Capitals to Small Capitals in Latin lookup 17 subtable" otilde.smcp
EndChar

StartChar: Odieresis
Encoding: 214 214 75
Width: 671
VWidth: 0
Flags: HW
LayerCount: 2
Fore
SplineSet
412.8 856.25 m 0
 412.8 888.65 439.65 914.5 472.05 914.5 c 0
 504.45 914.5 530.3 888.65 530.3 856.25 c 0
 530.3 823.85 504.45 797 472.05 797 c 0
 439.65 797 412.8 823.85 412.8 856.25 c 0
157.8 856.25 m 0
 157.8 888.65 184.65 914.5 217.05 914.5 c 0
 249.45 914.5 275.3 888.65 275.3 856.25 c 0
 275.3 823.85 249.45 797 217.05 797 c 0
 184.65 797 157.8 823.85 157.8 856.25 c 0
189.6 361 m 0
 189.6 161.2 219.05 125 344.05 125 c 0
 461.55 125 497.6 163.7 497.6 361 c 0
 497.6 589.05 455.3 608 344.05 608 c 0
 235.8 608 189.6 594 189.6 361 c 0
49.5996 361 m 0
 49.5996 704 176.05 737 344.05 737 c 0
 517.05 737 637.6 704 637.6 361 c 0
 637.6 38 524.05 -4 344.05 -4 c 0
 164.05 -4 49.5996 28 49.5996 361 c 0
EndSplineSet
Substitution2: "'c2sc' Capitals to Small Capitals in Latin lookup 17 subtable" odieresis.smcp
EndChar

StartChar: Oslash
Encoding: 216 216 76
Width: 679
VWidth: 0
Flags: HW
LayerCount: 2
Fore
SplineSet
235.9 156.1 m 1
 259.55 132.1 294.55 125 348.55 125 c 0
 466.05 125 502.55 163.7 502.55 361 c 0
 502.55 439.3 497.05 490.95 484.5 526.15 c 1
 235.9 156.1 l 1
194.55 361 m 0
 194.55 298.1 198.6 255.4 209.05 225.05 c 1
 451.7 586.85 l 1
 427.6 605.8 393.25 608 348.55 608 c 0
 240.3 608 194.55 594 194.55 361 c 0
54.55 361 m 0
 54.55 704 178.75 737 348.55 737 c 0
 420 737 482.65 731.45 531.3 700.55 c 1
 552.85 732 l 1
 627.6 732 l 1
 577 658.5 l 1
 618.45 603.95 642.55 513.05 642.55 361 c 0
 642.55 38 528.55 -4 348.55 -4 c 0
 269.35 -4 202.95 2 153.2 37.3 c 1
 127.35 0 l 1
 52.6 0 l 1
 109.7 83.1 l 1
 74 136.65 54.55 222.45 54.55 361 c 0
EndSplineSet
Substitution2: "'c2sc' Capitals to Small Capitals in Latin lookup 17 subtable" oslash.smcp
EndChar

StartChar: Ugrave
Encoding: 217 217 77
Width: 664
VWidth: 0
Flags: HW
LayerCount: 2
Fore
SplineSet
172.75 935.5 m 1
 295.25 935.5 l 1
 385.75 797 l 1
 294.75 797 l 1
 172.75 935.5 l 1
60.75 320 m 2
 60.75 732 l 1
 200.75 732 l 1
 200.75 320 l 2
 200.75 152.65 237.85 124 342.75 124 c 0
 436.25 124 478.75 158.45 478.75 320 c 2
 478.75 732 l 1
 619.75 732 l 1
 619.75 320 l 2
 619.75 -3 463.75 -5 342.75 -5 c 0
 206.75 -5 60.75 -13 60.75 320 c 2
EndSplineSet
Substitution2: "'c2sc' Capitals to Small Capitals in Latin lookup 17 subtable" ugrave.smcp
EndChar

StartChar: Uacute
Encoding: 218 218 78
Width: 664
VWidth: 0
Flags: HW
LayerCount: 2
Fore
SplineSet
294.75 797 m 1
 385.25 935.5 l 1
 507.75 935.5 l 1
 385.75 797 l 1
 294.75 797 l 1
60.75 320 m 2
 60.75 732 l 1
 200.75 732 l 1
 200.75 320 l 2
 200.75 152.65 237.85 124 342.75 124 c 0
 436.25 124 478.75 158.45 478.75 320 c 2
 478.75 732 l 1
 619.75 732 l 1
 619.75 320 l 2
 619.75 -3 463.75 -5 342.75 -5 c 0
 206.75 -5 60.75 -13 60.75 320 c 2
EndSplineSet
Substitution2: "'c2sc' Capitals to Small Capitals in Latin lookup 17 subtable" uacute.smcp
EndChar

StartChar: Ucircumflex
Encoding: 219 219 79
Width: 664
VWidth: 0
Flags: HW
LayerCount: 2
Fore
SplineSet
186 797 m 1
 293.65 932.5 l 1
 397.65 932.5 l 1
 494.5 797 l 1
 401.5 797 l 1
 342.6 857 l 1
 280 797 l 1
 186 797 l 1
60.75 320 m 2
 60.75 732 l 1
 200.75 732 l 1
 200.75 320 l 2
 200.75 152.65 237.85 124 342.75 124 c 0
 436.25 124 478.75 158.45 478.75 320 c 2
 478.75 732 l 1
 619.75 732 l 1
 619.75 320 l 2
 619.75 -3 463.75 -5 342.75 -5 c 0
 206.75 -5 60.75 -13 60.75 320 c 2
EndSplineSet
Substitution2: "'c2sc' Capitals to Small Capitals in Latin lookup 17 subtable" ucircumflex.smcp
EndChar

StartChar: Udieresis
Encoding: 220 220 80
Width: 664
VWidth: 0
Flags: HW
LayerCount: 2
Fore
SplineSet
409 856.25 m 0
 409 888.65 435.85 914.5 468.25 914.5 c 0
 500.65 914.5 526.5 888.65 526.5 856.25 c 0
 526.5 823.85 500.65 797 468.25 797 c 0
 435.85 797 409 823.85 409 856.25 c 0
154 856.25 m 0
 154 888.65 180.85 914.5 213.25 914.5 c 0
 245.65 914.5 271.5 888.65 271.5 856.25 c 0
 271.5 823.85 245.65 797 213.25 797 c 0
 180.85 797 154 823.85 154 856.25 c 0
60.75 320 m 2
 60.75 732 l 1
 200.75 732 l 1
 200.75 320 l 2
 200.75 152.65 237.85 124 342.75 124 c 0
 436.25 124 478.75 158.45 478.75 320 c 2
 478.75 732 l 1
 619.75 732 l 1
 619.75 320 l 2
 619.75 -3 463.75 -5 342.75 -5 c 0
 206.75 -5 60.75 -13 60.75 320 c 2
EndSplineSet
Substitution2: "'c2sc' Capitals to Small Capitals in Latin lookup 17 subtable" udieresis.smcp
EndChar

StartChar: Yacute
Encoding: 221 221 81
Width: 656
VWidth: 0
Flags: HW
LayerCount: 2
Fore
SplineSet
290.5 797 m 1
 381 935.5 l 1
 503.5 935.5 l 1
 381.5 797 l 1
 290.5 797 l 1
34 732 m 1
 186.5 732 l 1
 329.3 381 l 1
 485.5 732 l 1
 638 732 l 1
 397.1 227 l 1
 397.1 0 l 1
 257.1 0 l 1
 257.1 227 l 1
 34 732 l 1
EndSplineSet
Substitution2: "'c2sc' Capitals to Small Capitals in Latin lookup 17 subtable" yacute.smcp
EndChar

StartChar: agrave
Encoding: 224 224 82
Width: 519
VWidth: 0
Flags: HW
LayerCount: 2
Fore
SplineSet
99.8252 739.5 m 1
 222.325 739.5 l 1
 312.825 601 l 1
 221.825 601 l 1
 99.8252 739.5 l 1
170.1 155.2 m 2
 170.1 111.05 194 106.5 219.75 106.5 c 0
 278.3 106.5 341.65 147.6 341.65 147.6 c 1
 341.65 244.95 l 1
 213.15 235 l 2
 176.2 231.55 170.1 204.2 170.1 181 c 2
 170.1 155.2 l 2
30.0996 135.35 m 2
 30.0996 185.35 l 2
 30.0996 262.6 71.8496 331 185.65 331 c 2
 185.65 331 341.65 330 341.65 331 c 2
 341.65 331 342.65 364 341.65 365 c 1
 341.65 421.6 315.15 430.5 270.65 430.5 c 0
 224.5 430.5 91.2998 422.2 47.6504 419.05 c 1
 47.6504 505.5 l 1
 117.55 532.65 190.6 540.55 289.6 541 c 0
 403.95 541.45 481.65 501.95 481.65 370.5 c 2
 481.65 0 l 1
 371.1 0 l 1
 341.65 58.5 l 1
 335.8 46.9502 261.25 -7.65039 180.15 -6 c 0
 78 -3.25 30.0996 66.2998 30.0996 135.35 c 2
EndSplineSet
AlternateSubs2: "'salt' Access All Alternates in Latin lookup 4-1" agrave.salt
Substitution2: "'smcp' Lowercase to Small Capitals lookup 16-1" agrave.smcp
EndChar

StartChar: aacute
Encoding: 225 225 83
Width: 519
VWidth: 0
Flags: HW
LayerCount: 2
Fore
SplineSet
219.575 601 m 1
 310.075 739.5 l 1
 432.575 739.5 l 1
 310.575 601 l 1
 219.575 601 l 1
170.1 155.2 m 2
 170.1 111.05 194 106.5 219.75 106.5 c 0
 278.3 106.5 341.65 147.6 341.65 147.6 c 1
 341.65 244.95 l 1
 213.15 235 l 2
 176.2 231.55 170.1 204.2 170.1 181 c 2
 170.1 155.2 l 2
30.0996 135.35 m 2
 30.0996 185.35 l 2
 30.0996 262.6 71.8496 331 185.65 331 c 2
 185.65 331 341.65 330 341.65 331 c 2
 341.65 331 342.65 364 341.65 365 c 1
 341.65 421.6 315.15 430.5 270.65 430.5 c 0
 224.5 430.5 91.2998 422.2 47.6504 419.05 c 1
 47.6504 505.5 l 1
 117.55 532.65 190.6 540.55 289.6 541 c 0
 403.95 541.45 481.65 501.95 481.65 370.5 c 2
 481.65 0 l 1
 371.1 0 l 1
 341.65 58.5 l 1
 335.8 46.9502 261.25 -7.65039 180.15 -6 c 0
 78 -3.25 30.0996 66.2998 30.0996 135.35 c 2
EndSplineSet
AlternateSubs2: "'salt' Access All Alternates in Latin lookup 4-1" aacute.salt
Substitution2: "'smcp' Lowercase to Small Capitals lookup 16-1" aacute.smcp
EndChar

StartChar: acircumflex
Encoding: 226 226 84
Width: 519
VWidth: 0
Flags: HW
LayerCount: 2
Fore
SplineSet
111.5 601 m 1
 219.15 736.5 l 1
 323.15 736.5 l 1
 420 601 l 1
 327 601 l 1
 268.1 661 l 1
 205.5 601 l 1
 111.5 601 l 1
170.1 155.2 m 2
 170.1 111.05 194 106.5 219.75 106.5 c 0
 278.3 106.5 341.65 147.6 341.65 147.6 c 1
 341.65 244.95 l 1
 213.15 235 l 2
 176.2 231.55 170.1 204.2 170.1 181 c 2
 170.1 155.2 l 2
30.0996 135.35 m 2
 30.0996 185.35 l 2
 30.0996 262.6 71.8496 331 185.65 331 c 2
 185.65 331 341.65 330 341.65 331 c 2
 341.65 331 342.65 364 341.65 365 c 1
 341.65 421.6 315.15 430.5 270.65 430.5 c 0
 224.5 430.5 91.2998 422.2 47.6504 419.05 c 1
 47.6504 505.5 l 1
 117.55 532.65 190.6 540.55 289.6 541 c 0
 403.95 541.45 481.65 501.95 481.65 370.5 c 2
 481.65 0 l 1
 371.1 0 l 1
 341.65 58.5 l 1
 335.8 46.9502 261.25 -7.65039 180.15 -6 c 0
 78 -3.25 30.0996 66.2998 30.0996 135.35 c 2
EndSplineSet
AlternateSubs2: "'salt' Access All Alternates in Latin lookup 4-1" acircumflex.salt
Substitution2: "'smcp' Lowercase to Small Capitals lookup 16-1" acircumflex.smcp
EndChar

StartChar: atilde
Encoding: 227 227 85
Width: 519
VWidth: 0
Flags: HW
LayerCount: 2
Fore
SplineSet
91.75 656.3 m 1
 123.5 690.95 163.25 725.8 212.5 725.8 c 1
 259.2 724.45 284.35 691.25 318.95 690.8 c 1
 351.75 689.25 384.55 708.7 411.05 729 c 1
 435.25 669.4 l 1
 408.3 640 368.85 600.55 321.9 601.45 c 0
 273.05 602.8 247.6 636.45 209.95 636 c 0
 168.7 635.55 149.75 620.5 116.05 601 c 1
 91.75 656.3 l 1
170.1 155.2 m 2
 170.1 111.05 194 106.5 219.75 106.5 c 0
 278.3 106.5 341.65 147.6 341.65 147.6 c 1
 341.65 244.95 l 1
 213.15 235 l 2
 176.2 231.55 170.1 204.2 170.1 181 c 2
 170.1 155.2 l 2
30.0996 135.35 m 2
 30.0996 185.35 l 2
 30.0996 262.6 71.8496 331 185.65 331 c 2
 185.65 331 341.65 330 341.65 331 c 2
 341.65 331 342.65 364 341.65 365 c 1
 341.65 421.6 315.15 430.5 270.65 430.5 c 0
 224.5 430.5 91.2998 422.2 47.6504 419.05 c 1
 47.6504 505.5 l 1
 117.55 532.65 190.6 540.55 289.6 541 c 0
 403.95 541.45 481.65 501.95 481.65 370.5 c 2
 481.65 0 l 1
 371.1 0 l 1
 341.65 58.5 l 1
 335.8 46.9502 261.25 -7.65039 180.15 -6 c 0
 78 -3.25 30.0996 66.2998 30.0996 135.35 c 2
EndSplineSet
AlternateSubs2: "'salt' Access All Alternates in Latin lookup 4-1" atilde.salt
Substitution2: "'smcp' Lowercase to Small Capitals lookup 16-1" atilde.smcp
EndChar

StartChar: adieresis
Encoding: 228 228 86
Width: 519
VWidth: 0
Flags: HW
LayerCount: 2
Fore
SplineSet
333.757 660.258 m 0
 333.757 692.657 360.606 718.508 393.007 718.508 c 0
 425.406 718.508 451.257 692.657 451.257 660.258 c 0
 451.257 627.857 425.406 601.008 393.007 601.008 c 0
 360.606 601.008 333.757 627.857 333.757 660.258 c 0
78.7568 660.258 m 0
 78.7568 692.657 105.606 718.508 138.007 718.508 c 0
 170.406 718.508 196.257 692.657 196.257 660.258 c 0
 196.257 627.857 170.406 601.008 138.007 601.008 c 0
 105.606 601.008 78.7568 627.857 78.7568 660.258 c 0
170.1 155.2 m 2
 170.1 111.05 194 106.5 219.75 106.5 c 0
 278.3 106.5 341.65 147.6 341.65 147.6 c 1
 341.65 244.95 l 1
 213.15 235 l 2
 176.2 231.55 170.1 204.2 170.1 181 c 2
 170.1 155.2 l 2
30.0996 135.35 m 2
 30.0996 185.35 l 2
 30.0996 262.6 71.8496 331 185.65 331 c 2
 185.65 331 341.65 330 341.65 331 c 2
 341.65 331 342.65 364 341.65 365 c 1
 341.65 421.6 315.15 430.5 270.65 430.5 c 0
 224.5 430.5 91.2998 422.2 47.6504 419.05 c 1
 47.6504 505.5 l 1
 117.55 532.65 190.6 540.55 289.6 541 c 0
 403.95 541.45 481.65 501.95 481.65 370.5 c 2
 481.65 0 l 1
 371.1 0 l 1
 341.65 58.5 l 1
 335.8 46.9502 261.25 -7.65039 180.15 -6 c 0
 78 -3.25 30.0996 66.2998 30.0996 135.35 c 2
EndSplineSet
AlternateSubs2: "'salt' Access All Alternates in Latin lookup 4-1" adieresis.salt
Substitution2: "'smcp' Lowercase to Small Capitals lookup 16-1" adieresis.smcp
EndChar

StartChar: aring
Encoding: 229 229 87
Width: 519
VWidth: 0
Flags: HW
LayerCount: 2
Fore
SplineSet
223.675 689.5 m 0
 223.675 665.55 243.175 647.05 267.125 647.05 c 0
 291.075 647.05 309.575 665.55 309.575 689.5 c 0
 309.575 713.45 291.075 732.95 267.125 732.95 c 0
 243.175 732.95 223.675 713.45 223.675 689.5 c 0
165.125 689.5 m 0
 165.125 746.5 211.125 792.5 267.125 792.5 c 0
 323.125 792.5 368.125 746.5 368.125 689.5 c 0
 368.125 632.5 323.125 587.5 267.125 587.5 c 0
 211.125 587.5 165.125 632.5 165.125 689.5 c 0
170.1 155.2 m 2
 170.1 111.05 194 106.5 219.75 106.5 c 0
 278.3 106.5 341.65 147.6 341.65 147.6 c 1
 341.65 244.95 l 1
 213.15 235 l 2
 176.2 231.55 170.1 204.2 170.1 181 c 2
 170.1 155.2 l 2
30.0996 135.35 m 2
 30.0996 185.35 l 2
 30.0996 262.6 71.8496 331 185.65 331 c 2
 185.65 331 341.65 330 341.65 331 c 2
 341.65 331 342.65 364 341.65 365 c 1
 341.65 421.6 315.15 430.5 270.65 430.5 c 0
 224.5 430.5 91.2998 422.2 47.6504 419.05 c 1
 47.6504 505.5 l 1
 117.55 532.65 190.6 540.55 289.6 541 c 0
 403.95 541.45 481.65 501.95 481.65 370.5 c 2
 481.65 0 l 1
 371.1 0 l 1
 341.65 58.5 l 1
 335.8 46.9502 261.25 -7.65039 180.15 -6 c 0
 78 -3.25 30.0996 66.2998 30.0996 135.35 c 2
EndSplineSet
AlternateSubs2: "'salt' Access All Alternates in Latin lookup 4-1" aring.salt
Substitution2: "'smcp' Lowercase to Small Capitals lookup 16-1" aring.smcp
EndChar

StartChar: ae
Encoding: 230 230 88
Width: 842
VWidth: 0
Flags: HW
LayerCount: 2
Fore
SplineSet
495.85 318.3 m 1
 628 318.3 l 2
 657.15 318.3 672.85 332.65 672.85 357.95 c 0
 672.85 425 662.75 430.7 595.45 430.7 c 0
 521.5 430.7 494.75 433 495.85 318.3 c 1
170.1 155.15 m 2
 170.1 111 194 109.2 219.75 109.2 c 0
 278.3 109.2 341.65 150.3 341.65 150.3 c 1
 341.65 235.4 l 1
 213.15 225.45 l 2
 176.2 222 170.1 194.65 170.1 171.45 c 2
 170.1 155.15 l 2
30.1 138.05 m 2
 30.1 173.1 l 2
 30.1 250.35 71.85 318.75 185.65 318.75 c 2
 185.65 318.75 341.65 317.75 341.65 318.75 c 2
 341.65 318.75 342.65 366.7 341.65 367.7 c 1
 341.65 424.3 315.15 433.2 270.65 433.2 c 0
 216.25 433.2 92.65 424.35 47.65 421.2 c 1
 47.65 508.2 l 1
 115.3 536.25 190.6 543.25 289.6 543.7 c 0
 344.25 543.05 399.6 530.55 429.25 501.1 c 1
 470.1 531.9 519.55 537.7 587.3 537.7 c 0
 740.9 537.7 812.85 516.9 812.85 350.8 c 0
 812.85 256.2 760.3 223.3 664.3 223.3 c 2
 495.85 223.3 l 1
 495.85 127.45 532.05 109.65 607.85 109.65 c 0
 688.85 109.65 727.85 109.2 802.85 120.2 c 1
 802.85 25.7 l 1
 727.9 -2.25 613.85 -2.3 530.85 -2.3 c 0
 454.3 -2.3 416.7 22.95 385.65 66.6 c 1
 374.85 44.05 256.3 -4.4 180.15 -3.3 c 0
 78 -0.55 30.1 69 30.1 138.05 c 2
EndSplineSet
Substitution2: "'smcp' Lowercase to Small Capitals lookup 16-1" ae.smcp
EndChar

StartChar: ccedilla
Encoding: 231 231 89
Width: 494
VWidth: 0
Flags: HW
LayerCount: 2
Fore
SplineSet
157.95 -118.95 m 1
 202.15 -103.95 l 1
 230.15 -91.95 231.95 -75.55 231.95 -37.55 c 1
 326.45 -37.55 l 1
 326.45 -139.55 301.05 -179.05 214.45 -179.05 c 2
 157.95 -179.05 l 1
 157.95 -118.95 l 1
37.9 266 m 0
 37.9 484.8 110.9 536.9 212.9 536.9 c 0
 264.9 536.9 369.8 532.9 457.4 504.5 c 1
 457.4 417.5 l 1
 457.4 417.5 361.85 424.4 272.85 424.4 c 0
 208.45 424.4 177.9 419.65 177.9 263.1 c 0
 177.9 127.15 200.85 106.6 272.85 106.6 c 0
 364.85 106.6 464.4 115.95 464.4 115.95 c 1
 464.4 28.05 l 1
 386.7 -11.45 295.9 -4.9 212.9 -5.9 c 1
 113.9 -5.9 37.9 46.75 37.9 266 c 0
EndSplineSet
Substitution2: "'smcp' Lowercase to Small Capitals lookup 16-1" ccedilla.smcp
EndChar

StartChar: egrave
Encoding: 232 232 90
Width: 525
VWidth: 0
Flags: HW
LayerCount: 2
Fore
SplineSet
106.25 734.5 m 1
 228.75 734.5 l 1
 319.25 596 l 1
 228.25 596 l 1
 106.25 734.5 l 1
177.9 309 m 1
 310.6 309 l 2
 339.75 309 354.9 323.35 354.9 348.65 c 0
 354.9 415.7 345.35 428 278.05 428 c 0
 204.1 428 176.8 423.7 177.9 309 c 1
37.9004 268 m 0
 37.9004 496.2 101.5 535 269.9 535 c 0
 423.5 535 494.9 517.5 494.9 341.5 c 0
 494.9 246.9 442.9 208.5 346.9 208.5 c 2
 177.9 208.5 l 1
 177.9 112.65 214.1 106.95 289.9 106.95 c 0
 370.9 106.95 409.9 106.5 484.9 117.5 c 1
 484.9 23 l 1
 409.95 -4.9502 295.9 -5 212.9 -5 c 0
 77.9004 -5 37.9004 73.2002 37.9004 268 c 0
EndSplineSet
Substitution2: "'smcp' Lowercase to Small Capitals lookup 16-1" egrave.smcp
EndChar

StartChar: eacute
Encoding: 233 233 91
Width: 525
VWidth: 0
Flags: HW
LayerCount: 2
Fore
SplineSet
223.75 596 m 1
 314.25 734.5 l 1
 436.75 734.5 l 1
 314.75 596 l 1
 223.75 596 l 1
177.9 309 m 1
 310.6 309 l 2
 339.75 309 354.9 323.35 354.9 348.65 c 0
 354.9 415.7 345.35 428 278.05 428 c 0
 204.1 428 176.8 423.7 177.9 309 c 1
37.9004 268 m 0
 37.9004 496.2 101.5 535 269.9 535 c 0
 423.5 535 494.9 517.5 494.9 341.5 c 0
 494.9 246.9 442.9 208.5 346.9 208.5 c 2
 177.9 208.5 l 1
 177.9 112.65 214.1 106.95 289.9 106.95 c 0
 370.9 106.95 409.9 106.5 484.9 117.5 c 1
 484.9 23 l 1
 409.95 -4.9502 295.9 -5 212.9 -5 c 0
 77.9004 -5 37.9004 73.2002 37.9004 268 c 0
EndSplineSet
Substitution2: "'smcp' Lowercase to Small Capitals lookup 16-1" eacute.smcp
EndChar

StartChar: ecircumflex
Encoding: 234 234 92
Width: 525
VWidth: 0
Flags: HW
LayerCount: 2
Fore
SplineSet
112.05 596 m 1
 219.7 731.5 l 1
 323.7 731.5 l 1
 420.55 596 l 1
 327.55 596 l 1
 268.65 656 l 1
 206.05 596 l 1
 112.05 596 l 1
177.9 309 m 1
 310.6 309 l 2
 339.75 309 354.9 323.35 354.9 348.65 c 0
 354.9 415.7 345.35 428 278.05 428 c 0
 204.1 428 176.8 423.7 177.9 309 c 1
37.9004 268 m 0
 37.9004 496.2 101.5 535 269.9 535 c 0
 423.5 535 494.9 517.5 494.9 341.5 c 0
 494.9 246.9 442.9 208.5 346.9 208.5 c 2
 177.9 208.5 l 1
 177.9 112.65 214.1 106.95 289.9 106.95 c 0
 370.9 106.95 409.9 106.5 484.9 117.5 c 1
 484.9 23 l 1
 409.95 -4.9502 295.9 -5 212.9 -5 c 0
 77.9004 -5 37.9004 73.2002 37.9004 268 c 0
EndSplineSet
Substitution2: "'smcp' Lowercase to Small Capitals lookup 16-1" ecircumflex.smcp
EndChar

StartChar: edieresis
Encoding: 235 235 93
Width: 525
VWidth: 0
Flags: HW
LayerCount: 2
Fore
SplineSet
333.7 655.25 m 0
 333.7 687.65 360.55 713.5 392.95 713.5 c 0
 425.35 713.5 451.2 687.65 451.2 655.25 c 0
 451.2 622.85 425.35 596 392.95 596 c 0
 360.55 596 333.7 622.85 333.7 655.25 c 0
78.7002 655.25 m 0
 78.7002 687.65 105.55 713.5 137.95 713.5 c 0
 170.35 713.5 196.2 687.65 196.2 655.25 c 0
 196.2 622.85 170.35 596 137.95 596 c 0
 105.55 596 78.7002 622.85 78.7002 655.25 c 0
177.9 309 m 1
 310.6 309 l 2
 339.75 309 354.9 323.35 354.9 348.65 c 0
 354.9 415.7 345.35 428 278.05 428 c 0
 204.1 428 176.8 423.7 177.9 309 c 1
37.9004 268 m 0
 37.9004 496.2 101.5 535 269.9 535 c 0
 423.5 535 494.9 517.5 494.9 341.5 c 0
 494.9 246.9 442.9 208.5 346.9 208.5 c 2
 177.9 208.5 l 1
 177.9 112.65 214.1 106.95 289.9 106.95 c 0
 370.9 106.95 409.9 106.5 484.9 117.5 c 1
 484.9 23 l 1
 409.95 -4.9502 295.9 -5 212.9 -5 c 0
 77.9004 -5 37.9004 73.2002 37.9004 268 c 0
EndSplineSet
Substitution2: "'smcp' Lowercase to Small Capitals lookup 16-1" edieresis.smcp
EndChar

StartChar: igrave
Encoding: 236 236 94
Width: 230
VWidth: 0
Flags: HW
LayerCount: 2
Fore
SplineSet
-51.7998 734.5 m 1
 70.7002 734.5 l 1
 161.2 596 l 1
 70.2002 596 l 1
 -51.7998 734.5 l 1
45.7002 0 m 1
 45.7002 531 l 1
 185.7 531 l 1
 185.7 0 l 1
 45.7002 0 l 1
EndSplineSet
Substitution2: "'smcp' Lowercase to Small Capitals lookup 16-1" igrave.smcp
EndChar

StartChar: iacute
Encoding: 237 237 95
Width: 230
VWidth: 0
Flags: HW
LayerCount: 2
Fore
SplineSet
70.2002 596 m 1
 160.7 734.5 l 1
 283.2 734.5 l 1
 161.2 596 l 1
 70.2002 596 l 1
45.7002 0 m 1
 45.7002 531 l 1
 185.7 531 l 1
 185.7 0 l 1
 45.7002 0 l 1
EndSplineSet
Substitution2: "'smcp' Lowercase to Small Capitals lookup 16-1" iacute.smcp
EndChar

StartChar: icircumflex
Encoding: 238 238 96
Width: 230
VWidth: 0
Flags: HW
LayerCount: 2
Fore
SplineSet
-38.5498 596 m 1
 69.0996 731.5 l 1
 173.1 731.5 l 1
 269.95 596 l 1
 176.95 596 l 1
 118.05 656 l 1
 55.4502 596 l 1
 -38.5498 596 l 1
45.7002 0 m 1
 45.7002 531 l 1
 185.7 531 l 1
 185.7 0 l 1
 45.7002 0 l 1
EndSplineSet
Substitution2: "'smcp' Lowercase to Small Capitals lookup 16-1" icircumflex.smcp
EndChar

StartChar: idieresis
Encoding: 239 239 97
Width: 230
VWidth: 0
Flags: HW
LayerCount: 2
Fore
SplineSet
184.45 655.25 m 0
 184.45 687.65 211.3 713.5 243.7 713.5 c 0
 276.1 713.5 301.95 687.65 301.95 655.25 c 0
 301.95 622.85 276.1 596 243.7 596 c 0
 211.3 596 184.45 622.85 184.45 655.25 c 0
-70.5498 655.25 m 0
 -70.5498 687.65 -43.7002 713.5 -11.2998 713.5 c 0
 21.0996 713.5 46.9502 687.65 46.9502 655.25 c 0
 46.9502 622.85 21.0996 596 -11.2998 596 c 0
 -43.7002 596 -70.5498 622.85 -70.5498 655.25 c 0
45.7002 0 m 1
 45.7002 531 l 1
 185.7 531 l 1
 185.7 0 l 1
 45.7002 0 l 1
EndSplineSet
Substitution2: "'smcp' Lowercase to Small Capitals lookup 16-1" idieresis.smcp
EndChar

StartChar: eth
Encoding: 240 240 98
Width: 540
VWidth: 0
Flags: HW
LayerCount: 2
Fore
SplineSet
170.1 264 m 0
 170.1 143.85 190.8 131 240 131 c 2
 300.4 131 l 2
 360.65 131 370.1 166.9 370.1 264 c 0
 370.1 379.9 360.2 402 300.4 402 c 2
 240 402 l 2
 191.6 402 170.1 380.7 170.1 264 c 0
30.1 264 m 0
 30.1 434 81.9 531 216.9 531 c 2
 272.9 531 l 2
 278.9 531 331.1 531 348.4 521.5 c 1
 337.15 559.25 318.55 592.85 290.9 618.3 c 1
 177.25 564.7 l 1
 148.85 622.5 l 1
 221 655.5 l 1
 183.5 668.6 138.45 669.95 95.4 668.5 c 1
 95.4 783 l 1
 210.5 783 290.9 762.9 351.15 722.9 c 1
 443.85 766.05 l 1
 472.7 708.25 l 1
 405.35 677.2 l 1
 495.45 575.1 510.1 412.25 510.1 264 c 0
 510.1 65 429.4 0 322.4 0 c 2
 216.9 0 l 2
 79.9 0 30.1 85 30.1 264 c 0
EndSplineSet
Substitution2: "'smcp' Lowercase to Small Capitals lookup 16-1" eth.smcp
EndChar

StartChar: ograve
Encoding: 242 242 99
Width: 560
VWidth: 0
Flags: HW
LayerCount: 2
Fore
SplineSet
117.15 734.5 m 1
 239.65 734.5 l 1
 330.15 596 l 1
 239.15 596 l 1
 117.15 734.5 l 1
177.9 258 m 0
 177.9 120.6 205.75 107.5 280.15 107.5 c 0
 359 107.5 382.4 118.2 382.4 258 c 0
 382.4 406.75 363.6 423.5 280.15 423.5 c 0
 197.3 423.5 177.9 406.65 177.9 258 c 0
37.9004 258 m 0
 37.9004 475 100.65 536 280.15 536 c 0
 463 536 522.4 469 522.4 258 c 0
 522.4 61 465.75 -5 280.15 -5 c 0
 96.75 -5 37.9004 68 37.9004 258 c 0
EndSplineSet
Substitution2: "'smcp' Lowercase to Small Capitals lookup 16-1" ograve.smcp
EndChar

StartChar: oacute
Encoding: 243 243 100
Width: 560
VWidth: 0
Flags: HW
LayerCount: 2
Fore
SplineSet
234.65 596 m 1
 325.15 734.5 l 1
 447.65 734.5 l 1
 325.65 596 l 1
 234.65 596 l 1
177.9 258 m 0
 177.9 120.6 205.75 107.5 280.15 107.5 c 0
 359 107.5 382.4 118.2 382.4 258 c 0
 382.4 406.75 363.6 423.5 280.15 423.5 c 0
 197.3 423.5 177.9 406.65 177.9 258 c 0
37.9004 258 m 0
 37.9004 475 100.65 536 280.15 536 c 0
 463 536 522.4 469 522.4 258 c 0
 522.4 61 465.75 -5 280.15 -5 c 0
 96.75 -5 37.9004 68 37.9004 258 c 0
EndSplineSet
Substitution2: "'smcp' Lowercase to Small Capitals lookup 16-1" oacute.smcp
EndChar

StartChar: ocircumflex
Encoding: 244 244 101
Width: 560
VWidth: 0
Flags: HW
LayerCount: 2
Fore
SplineSet
128.15 596 m 1
 235.8 731.5 l 1
 339.8 731.5 l 1
 436.65 596 l 1
 343.65 596 l 1
 284.75 656 l 1
 222.15 596 l 1
 128.15 596 l 1
177.9 258 m 0
 177.9 120.6 205.75 107.5 280.15 107.5 c 0
 359 107.5 382.4 118.2 382.4 258 c 0
 382.4 406.75 363.6 423.5 280.15 423.5 c 0
 197.3 423.5 177.9 406.65 177.9 258 c 0
37.9004 258 m 0
 37.9004 475 100.65 536 280.15 536 c 0
 463 536 522.4 469 522.4 258 c 0
 522.4 61 465.75 -5 280.15 -5 c 0
 96.75 -5 37.9004 68 37.9004 258 c 0
EndSplineSet
Substitution2: "'smcp' Lowercase to Small Capitals lookup 16-1" ocircumflex.smcp
EndChar

StartChar: otilde
Encoding: 245 245 102
Width: 560
VWidth: 0
Flags: HW
LayerCount: 2
Fore
SplineSet
112.45 651.3 m 1
 144.2 685.95 183.95 720.8 233.2 720.8 c 1
 279.9 719.45 305.05 686.25 339.65 685.8 c 1
 372.45 684.25 405.25 703.7 431.75 724 c 1
 455.95 664.4 l 1
 429 635 389.55 595.55 342.6 596.45 c 0
 293.75 597.8 268.3 631.45 230.65 631 c 0
 189.4 630.55 170.45 615.5 136.75 596 c 1
 112.45 651.3 l 1
177.9 258 m 0
 177.9 120.6 205.75 107.5 280.15 107.5 c 0
 359 107.5 382.4 118.2 382.4 258 c 0
 382.4 406.75 363.6 423.5 280.15 423.5 c 0
 197.3 423.5 177.9 406.65 177.9 258 c 0
37.9004 258 m 0
 37.9004 475 100.65 536 280.15 536 c 0
 463 536 522.4 469 522.4 258 c 0
 522.4 61 465.75 -5 280.15 -5 c 0
 96.75 -5 37.9004 68 37.9004 258 c 0
EndSplineSet
Substitution2: "'smcp' Lowercase to Small Capitals lookup 16-1" otilde.smcp
EndChar

StartChar: odieresis
Encoding: 246 246 103
Width: 560
VWidth: 0
Flags: HW
LayerCount: 2
Fore
SplineSet
349.35 655.25 m 0
 349.35 687.65 376.2 713.5 408.6 713.5 c 0
 441 713.5 466.85 687.65 466.85 655.25 c 0
 466.85 622.85 441 596 408.6 596 c 0
 376.2 596 349.35 622.85 349.35 655.25 c 0
94.3496 655.25 m 0
 94.3496 687.65 121.2 713.5 153.6 713.5 c 0
 186 713.5 211.85 687.65 211.85 655.25 c 0
 211.85 622.85 186 596 153.6 596 c 0
 121.2 596 94.3496 622.85 94.3496 655.25 c 0
177.9 258 m 0
 177.9 120.6 205.75 107.5 280.15 107.5 c 0
 359 107.5 382.4 118.2 382.4 258 c 0
 382.4 406.75 363.6 423.5 280.15 423.5 c 0
 197.3 423.5 177.9 406.65 177.9 258 c 0
37.9004 258 m 0
 37.9004 475 100.65 536 280.15 536 c 0
 463 536 522.4 469 522.4 258 c 0
 522.4 61 465.75 -5 280.15 -5 c 0
 96.75 -5 37.9004 68 37.9004 258 c 0
EndSplineSet
Substitution2: "'smcp' Lowercase to Small Capitals lookup 16-1" odieresis.smcp
EndChar

StartChar: ntilde
Encoding: 241 241 104
Width: 550
VWidth: 0
Flags: HW
LayerCount: 2
Fore
SplineSet
107.45 655.3 m 1
 139.2 689.95 178.95 724.8 228.2 724.8 c 1
 274.9 723.45 300.05 690.25 334.65 689.8 c 1
 367.45 688.25 400.25 707.7 426.75 728 c 1
 450.95 668.4 l 1
 424 639 384.55 599.55 337.6 600.45 c 0
 288.75 601.8 263.3 635.45 225.65 635 c 0
 184.4 634.55 165.45 619.5 131.75 600 c 1
 107.45 655.3 l 1
45.7002 0 m 1
 45.7002 531 l 1
 158.2 531 l 1
 185.7 474.5 l 1
 231.3 507.3 273.2 540 354.2 540 c 0
 477.8 540 512.7 454.7 512.7 353.5 c 2
 512.7 0 l 1
 372.7 0 l 1
 372.7 355.7 l 2
 372.7 408.5 349.1 427.5 314.05 427.5 c 0
 257.7 427.5 226.95 413 185.7 381.5 c 1
 185.7 0 l 1
 45.7002 0 l 1
EndSplineSet
AlternateSubs2: "'salt' Access All Alternates in Latin lookup 4-1" ntilde.salt
Substitution2: "'smcp' Lowercase to Small Capitals lookup 16-1" ntilde.smcp
EndChar

StartChar: oslash
Encoding: 248 248 105
Width: 581
VWidth: 0
Flags: HW
LayerCount: 2
Fore
SplineSet
217.15 127.6 m 1
 232.7 110.05 257.05 107.5 291.15 107.5 c 0
 370 107.5 393.4 118.2 393.4 258 c 0
 393.4 297.95 390.25 323.95 382.6 341.3 c 1
 217.15 127.6 l 1
188.9 258 m 0
 188.9 229.45 192.05 209.45 197.9 195.75 c 1
 360.65 407.1 l 1
 346 420.4 323.9 423.5 291.15 423.5 c 0
 208.3 423.5 188.9 406.65 188.9 258 c 0
48.9 258 m 0
 48.9 475 111.65 536 291.15 536 c 0
 356.1 536 405.4 527.9 442.05 507.7 c 1
 460.9 531 l 1
 537.9 531 l 1
 487.35 468.1 l 1
 520.5 424.55 533.4 357.3 533.4 258 c 0
 533.4 61 476.75 -5 291.15 -5 c 0
 223.05 -5 171.85 5 134.75 27 c 1
 113.1 0 l 1
 38.35 0 l 1
 91.7 67.05 l 1
 60.9 109.05 48.9 171.4 48.9 258 c 0
EndSplineSet
Substitution2: "'smcp' Lowercase to Small Capitals lookup 16-1" oslash.smcp
EndChar

StartChar: thorn
Encoding: 254 254 106
Width: 556
VWidth: 0
Flags: HW
LayerCount: 2
Fore
SplineSet
192.95 116.5 m 1
 235.35 100.1 278.85 98.35 316.45 97 c 1
 359.3 97 386.1 122.7 386.1 259.1 c 0
 386.1 375.3 360.3 414.85 316.45 414.85 c 1
 270.15 413.05 226.35 400.4 192.95 380.25 c 1
 192.95 116.5 l 1
52.95 -270 m 1
 52.95 782 l 1
 192.95 782 l 1
 192.95 473.2 l 1
 226.1 499.9 289.7 534.5 352.75 534.5 c 0
 479.4 534.5 526.1 429.4 526.1 263.7 c 0
 526.1 111 501.25 -12.75 352.75 -12.75 c 0
 307.75 -12.75 241 -0.85 192.95 23.5 c 1
 192.95 -270 l 1
 52.95 -270 l 1
EndSplineSet
Substitution2: "'smcp' Lowercase to Small Capitals lookup 16-1" thorn.smcp
EndChar

StartChar: ugrave
Encoding: 249 249 107
Width: 550
VWidth: 0
Flags: HW
LayerCount: 2
Fore
SplineSet
108.4 734.5 m 1
 230.9 734.5 l 1
 321.4 596 l 1
 230.4 596 l 1
 108.4 734.5 l 1
37.9004 177.5 m 2
 37.9004 531 l 1
 177.9 531 l 1
 177.9 175.3 l 2
 177.9 122.5 201.5 103.5 236.55 103.5 c 0
 292.9 103.5 323.65 118 364.9 149.5 c 1
 364.9 531 l 1
 504.9 531 l 1
 504.9 0 l 1
 392.4 0 l 1
 364.9 56.5 l 1
 312.15 24.7998 277.4 -9 196.4 -9 c 0
 72.7998 -9 37.9004 76.2998 37.9004 177.5 c 2
EndSplineSet
AlternateSubs2: "'salt' Access All Alternates in Latin lookup 4-1" ugrave.salt
Substitution2: "'smcp' Lowercase to Small Capitals lookup 16-1" ugrave.smcp
EndChar

StartChar: uacute
Encoding: 250 250 108
Width: 550
VWidth: 0
Flags: HW
LayerCount: 2
Fore
SplineSet
225.9 596 m 1
 316.4 734.5 l 1
 438.9 734.5 l 1
 316.9 596 l 1
 225.9 596 l 1
37.9004 177.5 m 2
 37.9004 531 l 1
 177.9 531 l 1
 177.9 175.3 l 2
 177.9 122.5 201.5 103.5 236.55 103.5 c 0
 292.9 103.5 323.65 118 364.9 149.5 c 1
 364.9 531 l 1
 504.9 531 l 1
 504.9 0 l 1
 392.4 0 l 1
 364.9 56.5 l 1
 312.15 24.7998 277.4 -9 196.4 -9 c 0
 72.7998 -9 37.9004 76.2998 37.9004 177.5 c 2
EndSplineSet
AlternateSubs2: "'salt' Access All Alternates in Latin lookup 4-1" uacute.salt
Substitution2: "'smcp' Lowercase to Small Capitals lookup 16-1" uacute.smcp
EndChar

StartChar: ucircumflex
Encoding: 251 251 109
Width: 550
VWidth: 0
Flags: HW
LayerCount: 2
Fore
SplineSet
117.15 596 m 1
 224.8 731.5 l 1
 328.8 731.5 l 1
 425.65 596 l 1
 332.65 596 l 1
 273.75 656 l 1
 211.15 596 l 1
 117.15 596 l 1
37.9004 177.5 m 2
 37.9004 531 l 1
 177.9 531 l 1
 177.9 175.3 l 2
 177.9 122.5 201.5 103.5 236.55 103.5 c 0
 292.9 103.5 323.65 118 364.9 149.5 c 1
 364.9 531 l 1
 504.9 531 l 1
 504.9 0 l 1
 392.4 0 l 1
 364.9 56.5 l 1
 312.15 24.7998 277.4 -9 196.4 -9 c 0
 72.7998 -9 37.9004 76.2998 37.9004 177.5 c 2
EndSplineSet
AlternateSubs2: "'salt' Access All Alternates in Latin lookup 4-1" ucircumflex.salt
Substitution2: "'smcp' Lowercase to Small Capitals lookup 16-1" ucircumflex.smcp
EndChar

StartChar: udieresis
Encoding: 252 252 110
Width: 550
VWidth: 0
Flags: HW
LayerCount: 2
Fore
SplineSet
340.15 655.25 m 0
 340.15 687.65 367 713.5 399.4 713.5 c 0
 431.8 713.5 457.65 687.65 457.65 655.25 c 0
 457.65 622.85 431.8 596 399.4 596 c 0
 367 596 340.15 622.85 340.15 655.25 c 0
85.1504 655.25 m 0
 85.1504 687.65 112 713.5 144.4 713.5 c 0
 176.8 713.5 202.65 687.65 202.65 655.25 c 0
 202.65 622.85 176.8 596 144.4 596 c 0
 112 596 85.1504 622.85 85.1504 655.25 c 0
37.9004 177.5 m 2
 37.9004 531 l 1
 177.9 531 l 1
 177.9 175.3 l 2
 177.9 122.5 201.5 103.5 236.55 103.5 c 0
 292.9 103.5 323.65 118 364.9 149.5 c 1
 364.9 531 l 1
 504.9 531 l 1
 504.9 0 l 1
 392.4 0 l 1
 364.9 56.5 l 1
 312.15 24.7998 277.4 -9 196.4 -9 c 0
 72.7998 -9 37.9004 76.2998 37.9004 177.5 c 2
EndSplineSet
AlternateSubs2: "'salt' Access All Alternates in Latin lookup 4-1" udieresis.salt
Substitution2: "'smcp' Lowercase to Small Capitals lookup 16-1" udieresis.smcp
EndChar

StartChar: yacute
Encoding: 253 253 111
Width: 578
VWidth: 0
Flags: HW
LayerCount: 2
Fore
SplineSet
242.55 596 m 1
 333.05 734.5 l 1
 455.55 734.5 l 1
 333.55 596 l 1
 242.55 596 l 1
16.0498 531 m 1
 163.05 531 l 1
 254.65 159.45 l 2
 266.05 116.75 299.65 121 308 120.45 c 1
 414.35 531 l 1
 560.05 531 l 1
 376.1 -168 l 1
 303.3 -270 l 1
 203.4 -270 l 1
 278.15 0 l 1
 204.35 0 146.05 37.2002 120.2 135.3 c 2
 16.0498 531 l 1
EndSplineSet
Substitution2: "'smcp' Lowercase to Small Capitals lookup 16-1" yacute.smcp
EndChar

StartChar: ydieresis
Encoding: 255 255 112
Width: 578
VWidth: 0
Flags: HW
LayerCount: 2
Fore
SplineSet
356.8 655.25 m 0
 356.8 687.65 383.65 713.5 416.05 713.5 c 0
 448.45 713.5 474.3 687.65 474.3 655.25 c 0
 474.3 622.85 448.45 596 416.05 596 c 0
 383.65 596 356.8 622.85 356.8 655.25 c 0
101.8 655.25 m 0
 101.8 687.65 128.65 713.5 161.05 713.5 c 0
 193.45 713.5 219.3 687.65 219.3 655.25 c 0
 219.3 622.85 193.45 596 161.05 596 c 0
 128.65 596 101.8 622.85 101.8 655.25 c 0
16.0498 531 m 1
 163.05 531 l 1
 254.65 159.45 l 2
 266.05 116.75 299.65 121 308 120.45 c 1
 414.35 531 l 1
 560.05 531 l 1
 376.1 -168 l 1
 303.3 -270 l 1
 203.4 -270 l 1
 278.15 0 l 1
 204.35 0 146.05 37.2002 120.2 135.3 c 2
 16.0498 531 l 1
EndSplineSet
Substitution2: "'smcp' Lowercase to Small Capitals lookup 16-1" ydieresis.smcp
EndChar

StartChar: Thorn
Encoding: 222 222 113
Width: 546
VWidth: 0
Flags: HW
LayerCount: 2
Fore
SplineSet
185.7 272.5 m 1
 289.2 272.5 l 2
 341.2 272.05 368.2 284.15 368.2 374.25 c 0
 367.3 461.25 326.95 464.05 289.2 464.05 c 2
 185.7 464.05 l 1
 185.7 272.5 l 1
45.7 0 m 1
 45.7 243 45.7 486 45.7 729 c 1
 185.7 729 l 1
 185.7 588 l 1
 333.2 588 l 2
 412.2 587.55 509.2 554 509.2 375 c 0
 509.2 171 407.2 150.65 333.2 149 c 0
 284.05 147.9 266.95 145.65 185.7 168 c 1
 185.7 0 l 1
 45.7 0 l 1
EndSplineSet
Substitution2: "'c2sc' Capitals to Small Capitals in Latin lookup 17 subtable" thorn.smcp
EndChar

StartChar: uni00B5
Encoding: 181 181 114
Width: 588
VWidth: 0
Flags: HW
LayerCount: 2
Fore
SplineSet
68.55 177.5 m 1
 68.55 531 l 1
 208.55 531 l 1
 208.55 175.3 l 2
 208.55 122.5 232.15 103.5 267.2 103.5 c 0
 323.55 103.5 354.3 118 395.55 149.5 c 1
 395.55 531 l 1
 535.55 531 l 1
 535.55 0 l 1
 423.05 0 l 1
 395.55 56.5 l 1
 353.8 31.4 319.05 5.85 268.85 -0.75 c 0
 247.15 -3.5 227.05 -1.65 208.55 3.9 c 1
 208.55 -270 l 1
 68.55 -270 l 1
 68.55 177.5 l 1
EndSplineSet
EndChar

StartChar: germandbls
Encoding: 223 223 115
Width: 572
VWidth: 0
Flags: HW
LayerCount: 2
Fore
SplineSet
45.7 0 m 1
 45.7 566 l 2
 45.7 682 125.6 780.85 285.2 780.85 c 0
 572.5 780.85 572.25 554.1 470.4 442.35 c 1
 430.45 400.3 398.2 383.6 398.2 348 c 0
 398.2 294.2 557.7 301.5 557.7 173.5 c 2
 557.7 143 l 2
 558.15 22.45 469.3 -8 388.7 -8 c 0
 320.7 -8 275.7 3.15 240.45 11 c 1
 240.45 110.05 l 1
 276.05 107.85 316 104.5 354.2 104.5 c 0
 384.85 104.5 416.8 120.6 417.7 160.6 c 2
 417.7 185.05 l 2
 417.7 252.15 263.7 229.15 263.7 349.65 c 0
 263.7 413.65 288.55 440.2 352.25 492.2 c 1
 382.05 518.4 393.45 544.35 393.45 575.7 c 0
 393.45 640.7 343.1 653.5 290.7 653.5 c 0
 221.05 653.5 185.7 617.5 185.7 516.5 c 2
 185.7 0 l 1
 45.7 0 l 1
EndSplineSet
Substitution2: "'smcp' Lowercase to Small Capitals lookup 16-1" germandbls.smcp
EndChar

StartChar: asciitilde
Encoding: 126 126 116
Width: 419
VWidth: 0
Flags: HW
LayerCount: 2
Fore
SplineSet
37.9 586.3 m 1
 69.65 620.95 103.55 657.6 158.2 657.6 c 0
 202.2 657.6 224.2 622.6 264.2 622.6 c 1
 303.75 621.5 333.4 642.75 357.2 662.6 c 1
 381.4 603 l 1
 357.15 573.6 319.95 531 268.05 531 c 0
 224.15 531 194.2 566 155.2 566 c 0
 116.2 566 95.45 550.5 62.2 531 c 1
 37.9 586.3 l 1
EndSplineSet
EndChar

StartChar: asciicircum
Encoding: 94 94 117
Width: 384
VWidth: 0
Flags: HW
LayerCount: 2
Fore
SplineSet
37.9 531 m 1
 145.55 666.5 l 1
 249.55 666.5 l 1
 346.4 531 l 1
 253.4 531 l 1
 194.95 591 l 1
 131.9 531 l 1
 37.9 531 l 1
EndSplineSet
EndChar

StartChar: grave
Encoding: 96 96 118
Width: 243
VWidth: 0
Flags: HW
LayerCount: 2
Fore
SplineSet
15.05 669.5 m 1
 137.55 669.5 l 1
 228.05 531 l 1
 137.05 531 l 1
 15.05 669.5 l 1
EndSplineSet
Substitution2: "'smcp' Lowercase to Small Capitals lookup 16-1" grave.smcp
EndChar

StartChar: dieresis
Encoding: 168 168 119
Width: 448
VWidth: 0
Flags: HW
LayerCount: 2
Fore
SplineSet
292.9 582 m 0
 292.9 614.4 319.75 640.25 352.15 640.25 c 0
 384.55 640.25 410.4 614.4 410.4 582 c 0
 410.4 549.6 384.55 522.75 352.15 522.75 c 0
 319.75 522.75 292.9 549.6 292.9 582 c 0
37.9 582 m 0
 37.9 614.4 64.75 640.25 97.15 640.25 c 0
 129.55 640.25 155.4 614.4 155.4 582 c 0
 155.4 549.6 129.55 522.75 97.15 522.75 c 0
 64.75 522.75 37.9 549.6 37.9 582 c 0
EndSplineSet
Substitution2: "'smcp' Lowercase to Small Capitals lookup 16-1" dieresis.smcp
EndChar

StartChar: acute
Encoding: 180 180 120
Width: 243
VWidth: 0
Flags: HW
LayerCount: 2
Fore
SplineSet
15.05 531 m 1
 105.55 669.5 l 1
 228.05 669.5 l 1
 106.05 531 l 1
 15.05 531 l 1
EndSplineSet
Substitution2: "'smcp' Lowercase to Small Capitals lookup 16-1" acute.smcp
EndChar

StartChar: cedilla
Encoding: 184 184 121
Width: 244
VWidth: 0
Flags: HW
LayerCount: 2
Fore
SplineSet
37.9 -118.4 m 1
 82.1 -103.4 l 1
 110.1 -91.4 111.9 -75 111.9 -37 c 1
 206.4 -37 l 1
 206.4 -139 181 -178.5 94.4 -178.5 c 2
 37.9 -178.5 l 1
 37.9 -118.4 l 1
EndSplineSet
EndChar

StartChar: exclam
Encoding: 33 33 122
Width: 273
VWidth: 0
Flags: HW
LayerCount: 2
Fore
SplineSet
64.9 731 m 1
 206.15 731 l 1
 191.45 196 l 1
 77.4 196 l 1
 64.9 731 l 1
66.6 23 m 2
 66.6 113 l 2
 66.6 128 74.6 138 90.6 138 c 2
 178.6 138 l 2
 193.6 138 201.6 127 201.6 113 c 2
 201.6 23 l 2
 201.6 8 192.6 0 178.6 0 c 2
 90.6 0 l 2
 76.6 0 66.6 9 66.6 23 c 2
EndSplineSet
Substitution2: "'smcp' Lowercase to Small Capitals lookup 16-1" exclam.smcp
EndChar

StartChar: degree
Encoding: 176 176 123
Width: 278
VWidth: 0
Flags: HW
LayerCount: 2
Fore
SplineSet
95.35 632 m 0
 95.35 607.5 115.4 588.45 139.9 588.45 c 0
 164.4 588.45 183.45 607.5 183.45 632 c 0
 183.45 656.5 164.4 676.55 139.9 676.55 c 0
 115.4 676.55 95.35 656.5 95.35 632 c 0
37.9 632 m 0
 37.9 689 83.9 735 139.9 735 c 0
 195.9 735 240.9 689 240.9 632 c 0
 240.9 575 195.9 530 139.9 530 c 0
 83.9 530 37.9 575 37.9 632 c 0
EndSplineSet
Substitution2: "'smcp' Lowercase to Small Capitals lookup 16-1" degree.smcp
EndChar

StartChar: period
Encoding: 46 46 124
Width: 263
VWidth: 0
Flags: HW
HStem: 0 138<64.7965 199.52>
VStem: 64.65 135<0.104492 137.884>
LayerCount: 2
Fore
SplineSet
64.65 23 m 2
 64.65 113 l 2
 64.65 128 72.65 138 88.65 138 c 2
 174.65 138 l 2
 192.65 138 199.65 129 199.65 113 c 2
 199.65 23 l 2
 199.65 5 188.65 0 174.65 0 c 2
 88.65 0 l 2
 74.65 0 64.65 9 64.65 23 c 2
EndSplineSet
EndChar

StartChar: periodcentered
Encoding: 183 183 125
Width: 263
VWidth: 0
Flags: HW
LayerCount: 2
Fore
SplineSet
64.65 339.7 m 2
 64.65 429.7 l 2
 64.65 444.7 72.65 454.7 88.65 454.7 c 2
 174.65 454.7 l 2
 192.65 454.7 199.65 445.7 199.65 429.7 c 2
 199.65 339.7 l 2
 199.65 321.7 188.65 316.7 174.65 316.7 c 2
 88.65 316.7 l 2
 74.65 316.7 64.65 325.7 64.65 339.7 c 2
EndSplineSet
Substitution2: "'smcp' Lowercase to Small Capitals lookup 16-1" periodcentered.smcp
EndChar

StartChar: comma
Encoding: 44 44 126
Width: 261
VWidth: 0
Flags: HW
LayerCount: 2
Fore
SplineSet
64.65 25 m 2
 64.65 112 l 2
 64.65 130 73.65 139 89.65 139 c 2
 173.65 139 l 2
 191.65 139 197.65 127 197.65 112 c 2
 197.65 -11 l 2
 197.65 -121.95 69.65 -88 69.65 -88 c 1
 69.65 -39.5 l 1
 99.65 -40.5 100.65 -24.45 100.65 -14 c 2
 100.65 0 l 1
 89.65 0 l 2
 75.65 0 64.65 8 64.65 25 c 2
EndSplineSet
EndChar

StartChar: bullet
Encoding: 256 8226 127
Width: 309
VWidth: 0
Flags: HW
LayerCount: 2
Fore
SplineSet
64.65 321.75 m 2
 64.65 440.25 l 2
 64.65 461.25 75.65 475.25 97.65 475.25 c 2
 210.15 475.25 l 2
 235.15 475.25 245.15 462.25 245.15 440.25 c 2
 245.15 321.75 l 2
 245.15 297.75 230.15 289.75 210.15 289.75 c 2
 97.65 289.75 l 2
 77.65 289.75 64.65 301.75 64.65 321.75 c 2
EndSplineSet
Substitution2: "'smcp' Lowercase to Small Capitals lookup 16-1" bullet.smcp
EndChar

StartChar: quoteleft
Encoding: 257 8216 128
Width: 259
VWidth: 0
Flags: HW
LayerCount: 2
Fore
SplineSet
60.75 516.3 m 2
 60.75 648.85 l 2
 60.75 768.25 192.8 740 192.8 740 c 1
 192.8 684.65 l 1
 161.45 685.1 160.45 663.2 160.45 652.3 c 2
 160.45 631.45 l 1
 171.9 631.45 l 2
 186.35 631.45 198.25 623.45 198.25 605.55 c 2
 198.25 516.3 l 2
 198.25 497.4 188.8 487.95 171.9 487.95 c 2
 85.65 487.95 l 2
 66.75 487.95 60.75 500.85 60.75 516.3 c 2
EndSplineSet
Substitution2: "'smcp' Lowercase to Small Capitals lookup 16-1" quoteleft.smcp
EndChar

StartChar: quoteright
Encoding: 258 8217 129
Width: 259
VWidth: 0
Flags: HW
LayerCount: 2
Fore
SplineSet
60.75 625.5 m 2
 60.75 714.75 l 2
 60.75 733.65 70.2 743.1 87.1 743.1 c 2
 173.35 743.1 l 2
 192.25 743.1 198.25 730.2 198.25 714.75 c 2
 198.25 582.2 l 2
 198.25 462.8 66.2 490.6 66.2 490.6 c 1
 66.2 545.95 l 1
 97.55 545.5 98.55 567.85 98.55 578.75 c 2
 98.55 599.15 l 1
 87.1 599.15 l 2
 72.65 599.15 60.75 607.6 60.75 625.5 c 2
EndSplineSet
Substitution2: "'smcp' Lowercase to Small Capitals lookup 16-1" quoteright.smcp
EndChar

StartChar: quotesinglbase
Encoding: 259 8218 130
Width: 259
VWidth: 0
Flags: HW
LayerCount: 2
Fore
SplineSet
60.75 25.9 m 2
 60.75 115.15 l 2
 60.75 134.05 70.2 143.5 87.1 143.5 c 2
 173.35 143.5 l 2
 192.25 143.5 198.25 130.6 198.25 115.15 c 2
 198.25 -17.4 l 2
 198.25 -137.25 66.2 -109 66.2 -109 c 1
 66.2 -53.65 l 1
 97.55 -54.1 98.55 -31.75 98.55 -20.85 c 2
 98.55 -0.45 l 1
 87.1 -0.45 l 2
 72.65 -0.45 60.75 8 60.75 25.9 c 2
EndSplineSet
Substitution2: "'smcp' Lowercase to Small Capitals lookup 16-1" quotesinglbase.smcp
EndChar

StartChar: quotedblleft
Encoding: 260 8220 131
Width: 425
VWidth: 0
Flags: HW
LayerCount: 2
Fore
SplineSet
55.4 515.2 m 2
 55.4 647.75 l 2
 55.4 767.15 187.45 738.9 187.45 738.9 c 1
 187.45 683.55 l 1
 156.1 684 155.1 662.1 155.1 651.2 c 2
 155.1 630.8 l 1
 166.55 630.8 l 2
 181 630.8 192.9 622.35 192.9 604.45 c 2
 192.9 515.2 l 2
 192.9 496.3 183.45 486.85 166.55 486.85 c 2
 80.3 486.85 l 2
 61.4 486.85 55.4 499.75 55.4 515.2 c 2
233.35 515.2 m 2
 233.35 647.75 l 2
 233.35 767.15 365.85 738.9 365.85 738.9 c 1
 365.85 683.55 l 1
 334.5 684 333.05 662.1 333.05 651.2 c 2
 333.05 630.8 l 1
 344.95 630.8 l 2
 359.4 630.8 370.85 622.35 370.85 604.45 c 2
 370.85 515.2 l 2
 370.85 496.3 361.85 486.85 344.95 486.85 c 2
 258.7 486.85 l 2
 239.8 486.85 233.35 499.75 233.35 515.2 c 2
EndSplineSet
Substitution2: "'smcp' Lowercase to Small Capitals lookup 16-1" quotedblleft.smcp
EndChar

StartChar: quotedblright
Encoding: 261 8221 132
Width: 425
VWidth: 0
Flags: HW
LayerCount: 2
Fore
SplineSet
233.35 624.4 m 2
 233.35 713.65 l 2
 233.35 732.55 242.8 742 259.7 742 c 2
 345.95 742 l 2
 364.85 742 370.85 729.1 370.85 713.65 c 2
 370.85 581.1 l 2
 370.85 461.7 238.8 489.5 238.8 489.5 c 1
 238.8 544.85 l 1
 270.15 544.4 271.15 566.75 271.15 577.65 c 2
 271.15 598.05 l 1
 259.7 598.05 l 2
 245.25 598.05 233.35 606.5 233.35 624.4 c 2
55.4 624.4 m 2
 55.4 713.65 l 2
 55.4 732.55 64.4 742 81.3 742 c 2
 167.55 742 l 2
 186.45 742 192.9 729.1 192.9 713.65 c 2
 192.9 581.1 l 2
 192.9 461.7 60.4 489.5 60.4 489.5 c 1
 60.4 544.85 l 1
 91.75 544.4 92.75 566.75 92.75 577.65 c 2
 92.75 598.05 l 1
 81.3 598.05 l 2
 66.85 598.05 55.4 606.5 55.4 624.4 c 2
EndSplineSet
Substitution2: "'smcp' Lowercase to Small Capitals lookup 16-1" quotedblright.smcp
EndChar

StartChar: quotedblbase
Encoding: 262 8222 133
Width: 425
VWidth: 0
Flags: HW
LayerCount: 2
Fore
SplineSet
233.35 25.9 m 2
 233.35 115.15 l 2
 233.35 134.05 242.8 143.5 259.7 143.5 c 2
 345.95 143.5 l 2
 364.85 143.5 370.85 130.6 370.85 115.15 c 2
 370.85 -17.4 l 2
 370.85 -137.25 238.8 -109 238.8 -109 c 1
 238.8 -53.65 l 1
 270.15 -54.1 271.15 -31.75 271.15 -20.85 c 2
 271.15 -0.45 l 1
 259.7 -0.45 l 2
 245.25 -0.45 233.35 8 233.35 25.9 c 2
55.4 25.9 m 2
 55.4 115.15 l 2
 55.4 134.05 64.4 143.5 81.3 143.5 c 2
 167.55 143.5 l 2
 186.45 143.5 192.9 130.6 192.9 115.15 c 2
 192.9 -17.4 l 2
 192.9 -137.25 60.4 -109 60.4 -109 c 1
 60.4 -53.65 l 1
 91.75 -54.1 92.75 -31.75 92.75 -20.85 c 2
 92.75 -0.45 l 1
 81.3 -0.45 l 2
 66.85 -0.45 55.4 8 55.4 25.9 c 2
EndSplineSet
Substitution2: "'smcp' Lowercase to Small Capitals lookup 16-1" quotedblbase.smcp
EndChar

StartChar: colon
Encoding: 58 58 134
Width: 263
VWidth: 0
Flags: HW
LayerCount: 2
Fore
SplineSet
64.65 416.45 m 2
 64.65 506.45 l 2
 64.65 521.45 72.65 531.45 88.65 531.45 c 2
 174.65 531.45 l 2
 192.65 531.45 199.65 522.45 199.65 506.45 c 2
 199.65 416.45 l 2
 199.65 398.45 188.65 393.45 174.65 393.45 c 2
 88.65 393.45 l 2
 74.65 393.45 64.65 402.45 64.65 416.45 c 2
64.65 23 m 2
 64.65 113 l 2
 64.65 128 72.65 138 88.65 138 c 2
 174.65 138 l 2
 192.65 138 199.65 129 199.65 113 c 2
 199.65 23 l 2
 199.65 5 188.65 0 174.65 0 c 2
 88.65 0 l 2
 74.65 0 64.65 9 64.65 23 c 2
EndSplineSet
EndChar

StartChar: semicolon
Encoding: 59 59 135
Width: 264
VWidth: 0
Flags: HW
LayerCount: 2
Fore
SplineSet
65.55 416.9 m 2
 65.55 506.9 l 2
 65.55 521.9 73.55 531.9 89.55 531.9 c 2
 175.55 531.9 l 2
 193.55 531.9 200.55 522.9 200.55 506.9 c 2
 200.55 416.9 l 2
 200.55 398.9 189.55 393.9 175.55 393.9 c 2
 89.55 393.9 l 2
 75.55 393.9 65.55 402.9 65.55 416.9 c 2
64.65 25 m 2
 64.65 112 l 2
 64.65 128.2 74.1 139 89.65 139 c 2
 173.65 139 l 2
 190.3 139 197.65 127 197.65 112 c 2
 197.65 -11 l 2
 197.65 -121.95 69.65 -88 69.65 -88 c 1
 69.65 -39.5 l 1
 99.65 -40.5 100.65 -24.45 100.65 -14 c 2
 100.65 0 l 1
 89.65 0 l 2
 75.65 0 64.65 10.25 64.65 25 c 2
EndSplineSet
EndChar

StartChar: quotedbl
Encoding: 34 34 136
Width: 444
VWidth: 0
Flags: HW
LayerCount: 2
Fore
SplineSet
245.3 665 m 1
 245.3 732 l 1
 380.25 732 l 1
 380.25 665 l 1
 370.25 531 l 1
 255.75 531 l 1
 245.3 665 l 1
64.65 665 m 1
 64.65 732 l 1
 199.6 732 l 1
 199.6 665 l 1
 189.6 531 l 1
 76.2 531 l 1
 64.65 665 l 1
EndSplineSet
Substitution2: "'smcp' Lowercase to Small Capitals lookup 16-1" quotedbl.smcp
EndChar

StartChar: exclamdown.alt
Encoding: 263 -1 137
Width: 273
VWidth: 0
Flags: HW
LayerCount: 2
Fore
SplineSet
65.35 0 m 1
 80.05 535 l 1
 194.1 535 l 1
 206.6 0 l 1
 65.35 0 l 1
69.9 618 m 2
 69.9 708 l 2
 69.9 723 78.9 731 92.9 731 c 2
 180.9 731 l 2
 194.9 731 204.9 722 204.9 708 c 2
 204.9 618 l 2
 204.9 603 196.9 593 180.9 593 c 2
 92.9 593 l 2
 77.9 593 69.9 604 69.9 618 c 2
EndSplineSet
EndChar

StartChar: zero
Encoding: 48 48 138
Width: 630
VWidth: 0
Flags: HW
HStem: 0 129<210.916 420.711> 603 129<211.646 419.381>
VStem: 52.95 140<146.369 585.381> 437.95 140<146.6 588.704>
LayerCount: 2
Fore
SplineSet
192.95 201.05 m 2
 192.95 140.1 234.7 129 268.4 129 c 2
 365.3 129 l 2
 412.25 129 437.95 146.5 437.95 200.5 c 2
 437.95 531.5 l 2
 437.95 577.5 417.85 603 369.7 603 c 2
 264.55 603 l 2
 204.45 603 192.95 560.25 192.95 531.5 c 2
 192.95 201.05 l 2
52.95 178.5 m 2
 52.95 548 l 2
 52.95 668.1 125.55 732 237.05 732 c 2
 401.05 732 l 2
 535.7 732 577.95 649.4 577.95 553.5 c 2
 577.95 178.5 l 2
 577.95 59.5 511.05 0 400.5 0 c 2
 236.5 0 l 2
 124.05 0 52.95 58.5 52.95 178.5 c 2
EndSplineSet
Substitution2: "'dnom' Denominators lookup 0 subtable" zero.denominator
Substitution2: "'sups' Superscript lookup 2 subtable" zerosuperior
Substitution2: "'onum' Oldstyle Figures in Latin lookup 5-1" zero.oldstyle
Substitution2: "'tnum' Tabular Numbers in Latin lookup 7-1" zero.tnum
Substitution2: "'numr' Numerators lookup 9 subtable" zero.numerator
Substitution2: "'zero' Slashed Zero lookup 20-1" uni0338
Substitution2: "'sinf' Scientific Inferiors lookup 3-1" zeroinferior
Substitution2: "'frac' Diagonal Fractions lookup 13-1" zero.numerator
Substitution2: "'smcp' Lowercase to Small Capitals lookup 16-1" zero.smcp
EndChar

StartChar: one
Encoding: 49 49 139
Width: 371
VWidth: 0
Flags: HW
HStem: 0 21G<170.6 310.6> 0 21G<170.6 310.6> 712 20G<137.497 310.6>
VStem: 170.6 140<0 593>
LayerCount: 2
Fore
SplineSet
30.1 557.7 m 1
 30.1 649.2 l 1
 171.7 732 l 1
 310.6 732 l 1
 310.6 0 l 1
 170.6 0 l 1
 170.6 593 l 1
 30.1 557.7 l 1
EndSplineSet
Substitution2: "'dnom' Denominators lookup 0 subtable" one.denominator
Substitution2: "'sups' Superscript lookup 2 subtable" onesuperior
Substitution2: "'onum' Oldstyle Figures in Latin lookup 5-1" one.oldstyle
Substitution2: "'tnum' Tabular Numbers in Latin lookup 7-1" one.tnum
Substitution2: "'numr' Numerators lookup 9 subtable" one.numerator
Substitution2: "'sinf' Scientific Inferiors lookup 3-1" oneinferior
Substitution2: "'frac' Diagonal Fractions lookup 13-1" one.numerator
Substitution2: "'smcp' Lowercase to Small Capitals lookup 16-1" one.smcp
EndChar

StartChar: two
Encoding: 50 50 140
Width: 588
VWidth: 0
Flags: HW
LayerCount: 2
Fore
SplineSet
30.1 612 m 1
 30.1 716.5 l 1
 121.1 732.25 204.95 742 334.1 742 c 0
 485.15 742 550.85 638.4 550.85 515.5 c 0
 550.85 351.4 341.2 181.85 274.7 129 c 1
 550.85 129 l 1
 550.85 0 l 1
 37.65 0 l 1
 37.65 123 l 1
 131.25 186 410.4 398.8 410.4 514.75 c 0
 410.4 581.15 375.6 612 289.65 612 c 2
 30.1 612 l 1
EndSplineSet
Substitution2: "'dnom' Denominators lookup 0 subtable" two.denominator
Substitution2: "'sups' Superscript lookup 2 subtable" twosuperior
Substitution2: "'onum' Oldstyle Figures in Latin lookup 5-1" two.oldstyle
Substitution2: "'tnum' Tabular Numbers in Latin lookup 7-1" two.tnum
Substitution2: "'numr' Numerators lookup 9 subtable" two.numerator
Substitution2: "'sinf' Scientific Inferiors lookup 3-1" twoinferior
Substitution2: "'frac' Diagonal Fractions lookup 13-1" two.numerator
Substitution2: "'smcp' Lowercase to Small Capitals lookup 16-1" two.smcp
EndChar

StartChar: three
Encoding: 51 51 141
Width: 583
VWidth: 0
Flags: HW
HStem: -7 130<49.8432 372.175> 21 102<29.85 130.972> 298.5 130<150.55 366.45> 305.5 113<90.85 230.15> 605 129<52.7777 366.509> 605 101<22.85 123.112>
VStem: 388.35 138.9<140.873 275.449 446.937 582.304>
LayerCount: 2
Fore
SplineSet
22.85 605 m 1
 22.85 706 l 1
 110.85 737 229.35 736 346.35 734 c 0
 456.35 732 527.25 664.85 527.25 558 c 2
 527.25 505.5 l 2
 527.25 432.5 502.9 383.3 451.35 364 c 1
 504.45 341.3 527.25 290.5 527.25 214.5 c 2
 527.25 172 l 2
 527.25 56.4 461.35 -7 339.35 -7 c 0
 225.35 -7 116.85 -10 28.85 21 c 1
 29.85 123 l 1
 283.85 123 l 2
 350.6 123 386.35 127.6 386.35 191.25 c 2
 386.35 222.75 l 2
 386.35 283.15 349.35 295.95 289.85 298.5 c 2
 90.85 305.5 l 1
 90.85 418.5 l 1
 289.85 428.5 l 2
 358.85 431.5 388.35 447.25 388.35 500 c 2
 388.35 536 l 2
 388.35 593.3 341.85 605 289.85 605 c 2
 22.85 605 l 1
EndSplineSet
Substitution2: "'dnom' Denominators lookup 0 subtable" three.denominator
Substitution2: "'sups' Superscript lookup 2 subtable" threesuperior
Substitution2: "'onum' Oldstyle Figures in Latin lookup 5-1" three.oldstyle
Substitution2: "'tnum' Tabular Numbers in Latin lookup 7-1" three.tnum
Substitution2: "'numr' Numerators lookup 9 subtable" three.numerator
Substitution2: "'sinf' Scientific Inferiors lookup 3-1" threeinferior
Substitution2: "'frac' Diagonal Fractions lookup 13-1" three.numerator
Substitution2: "'smcp' Lowercase to Small Capitals lookup 16-1" three.smcp
EndChar

StartChar: four
Encoding: 52 52 142
Width: 620
VWidth: 0
Flags: HW
HStem: 159.5 133<210.9 392.05> 516 20G<415.331 532.05> 712 20G<265.294 429.55>
VStem: 392.05 140<2 159.5 292.5 459.35>
DStem2: 15.05 224 210.9 292.5 0.456299 0.889827<150.319 570.898>
LayerCount: 2
Fore
SplineSet
15.05 224 m 1
 275.55 732 l 1
 429.55 732 l 1
 210.9 292.5 l 1
 392.05 292.5 l 1
 392.05 459.35 l 1
 423.55 536 l 1
 532.05 536 l 1
 532.05 292.5 l 1
 605.55 292.5 l 1
 605.55 184 l 1
 532.05 159.5 l 1
 532.05 2 l 1
 392.05 2 l 1
 392.05 159.5 l 1
 49.05 159.5 l 1
 15.05 224 l 1
EndSplineSet
Substitution2: "'dnom' Denominators lookup 0 subtable" four.denominator
Substitution2: "'sups' Superscript lookup 2 subtable" foursuperior
Substitution2: "'onum' Oldstyle Figures in Latin lookup 5-1" four.oldstyle
Substitution2: "'tnum' Tabular Numbers in Latin lookup 7-1" four.tnum
Substitution2: "'numr' Numerators lookup 9 subtable" four.numerator
Substitution2: "'sinf' Scientific Inferiors lookup 3-1" fourinferior
Substitution2: "'frac' Diagonal Fractions lookup 13-1" four.numerator
Substitution2: "'smcp' Lowercase to Small Capitals lookup 16-1" four.smcp
EndChar

StartChar: five
Encoding: 53 53 143
Width: 596
VWidth: 0
Flags: HW
HStem: -4 134<70.1755 398.767> 20 110<57.85 237.485> 339 123.5<212.183 397.362> 603 129<215.85 525.85>
VStem: 412.8 140<146.57 325.656>
LayerCount: 2
Fore
SplineSet
57.85 20 m 1
 57.85 130 l 1
 339.85 130 l 2
 405 130 412.8 170.2 412.8 201 c 2
 412.8 267.55 l 2
 412.8 300.55 406.85 339 345.9 339 c 2
 252.4 339 l 2
 217.25 339 191.3 321.85 191.3 280.5 c 1
 59.3 280.5 l 1
 81.3 732 l 1
 525.85 732 l 1
 525.85 603 l 1
 215.85 603 l 1
 208.25 438 l 1
 228.85 454.45 255.75 460.15 277.3 462.5 c 0
 315.9 466.75 365.5 463.05 386.6 462.5 c 0
 503.5 457 552.8 381.95 552.8 280 c 2
 552.8 177 l 2
 552.8 40 449.15 -4 367.35 -4 c 0
 243.35 -4 191.85 -3 57.85 20 c 1
EndSplineSet
Substitution2: "'dnom' Denominators lookup 0 subtable" five.denominator
Substitution2: "'sups' Superscript lookup 2 subtable" fivesuperior
Substitution2: "'onum' Oldstyle Figures in Latin lookup 5-1" five.oldstyle
Substitution2: "'tnum' Tabular Numbers in Latin lookup 7-1" five.tnum
Substitution2: "'numr' Numerators lookup 9 subtable" five.numerator
Substitution2: "'sinf' Scientific Inferiors lookup 3-1" fiveinferior
Substitution2: "'frac' Diagonal Fractions lookup 13-1" five.numerator
Substitution2: "'smcp' Lowercase to Small Capitals lookup 16-1" five.smcp
EndChar

StartChar: six
Encoding: 54 54 144
Width: 608
VWidth: 0
Flags: HW
HStem: -1 129<229.366 415.495> 321 123.5<192.351 411.275> 321 102.5<189.6 388.384> 609 106.15<346.948 540.1>
VStem: 49.6 140<174.007 321 423.5 557.873> 424.55 139.55<137.347 312.308>
LayerCount: 2
Fore
SplineSet
189.6 321 m 1
 189.6 220.4 199.65 128 284.9 128 c 2
 361.3 128 l 2
 402.4 128 424.55 137.45 424.55 189.75 c 2
 424.55 257 l 2
 424.55 308.1 405.1 321 364.05 321 c 2
 189.6 321 l 1
49.6 384 m 0
 49.6 649 135.3 727.55 221.6 735.25 c 0
 322.05 744.05 446.2 732 540.1 715.15 c 1
 540.1 609 l 1
 289.6 609 l 2
 198.6 609 190.5 501.45 189.6 423.5 c 1
 248.2 438.45 312.6 444.5 392.1 444.5 c 0
 533.6 444.5 564.1 368.55 564.1 273.5 c 2
 564.1 164.5 l 2
 564.1 42.6 492.7 -1 386.6 -1 c 2
 243.65 -1 l 2
 127.5 -0.55 49.6 69 49.6 384 c 0
EndSplineSet
Substitution2: "'dnom' Denominators lookup 0 subtable" six.denominator
Substitution2: "'sups' Superscript lookup 2 subtable" sixsuperior
Substitution2: "'onum' Oldstyle Figures in Latin lookup 5-1" six.oldstyle
Substitution2: "'tnum' Tabular Numbers in Latin lookup 7-1" six.tnum
Substitution2: "'numr' Numerators lookup 9 subtable" six.numerator
Substitution2: "'sinf' Scientific Inferiors lookup 3-1" sixinferior
Substitution2: "'frac' Diagonal Fractions lookup 13-1" six.numerator
Substitution2: "'smcp' Lowercase to Small Capitals lookup 16-1" six.smcp
EndChar

StartChar: seven
Encoding: 55 55 145
Width: 554
VWidth: 0
Flags: HW
HStem: 0 21G<133.85 294.097> 0 21G<133.85 294.097> 603 129<22.85 358.85>
DStem2: 133.85 0 286.75 0 0.344812 0.938672<52.7218 643.602>
LayerCount: 2
Fore
SplineSet
22.85 603 m 1
 22.85 732 l 1
 493.95 732 l 1
 531.95 667.5 l 1
 286.75 0 l 1
 133.85 0 l 1
 358.85 603 l 1
 22.85 603 l 1
EndSplineSet
Substitution2: "'dnom' Denominators lookup 0 subtable" seven.denominator
Substitution2: "'sups' Superscript lookup 2 subtable" sevensuperior
Substitution2: "'onum' Oldstyle Figures in Latin lookup 5-1" seven.oldstyle
Substitution2: "'tnum' Tabular Numbers in Latin lookup 7-1" seven.tnum
Substitution2: "'numr' Numerators lookup 9 subtable" seven.numerator
Substitution2: "'sinf' Scientific Inferiors lookup 3-1" seveninferior
Substitution2: "'frac' Diagonal Fractions lookup 13-1" seven.numerator
Substitution2: "'smcp' Lowercase to Small Capitals lookup 16-1" seven.smcp
EndChar

StartChar: percent
Encoding: 37 37 146
Width: 962
VWidth: 0
Flags: HW
LayerCount: 2
Fore
SplineSet
660.6 149.55 m 2
 660.6 115.4 669.55 100.55 708.85 100.55 c 2
 781.8 100.55 l 2
 826.6 100.55 832.6 117.2 832.6 149.55 c 2
 832.6 238.55 l 2
 832.6 278.75 818.7 287.55 783.8 287.55 c 2
 710.85 287.55 l 2
 672.65 287.55 660.6 277.5 660.6 238.55 c 2
 660.6 149.55 l 2
562.6 133.05 m 2
 562.6 255.05 l 2
 562.6 340.05 595.55 385.55 696.55 385.55 c 2
 798.1 385.55 l 2
 896.1 385.55 930.6 340.05 930.6 255.05 c 2
 930.6 133.05 l 2
 930.6 48.05 897.1 2.55 796.1 2.55 c 2
 694.55 2.55 l 2
 596.55 2.55 562.6 48.05 562.6 133.05 c 2
207.75 0 m 1
 654.55 732 l 1
 754.7 732 l 1
 311.75 0 l 1
 207.75 0 l 1
130.1 496 m 2
 130.1 461.85 139.05 447 178.35 447 c 2
 251.85 447 l 2
 296.65 447 302.1 463.65 302.1 496 c 2
 302.1 585 l 2
 302.1 625.2 288.75 634 253.85 634 c 2
 180.35 634 l 2
 142.15 634 130.1 623.95 130.1 585 c 2
 130.1 496 l 2
32.1 479.5 m 2
 32.1 601.5 l 2
 32.1 686.5 65.6 732 166.6 732 c 2
 267.6 732 l 2
 365.6 732 400.1 686.5 400.1 601.5 c 2
 400.1 479.5 l 2
 400.1 394.5 366.6 349 265.6 349 c 2
 164.6 349 l 2
 66.6 349 32.1 394.5 32.1 479.5 c 2
EndSplineSet
Substitution2: "'smcp' Lowercase to Small Capitals lookup 16-1" percent.smcp
EndChar

StartChar: nine
Encoding: 57 57 147
Width: 608
VWidth: 0
Flags: HW
HStem: 19.1 106.15<69.7 246.105> 289.75 123.5<198.525 417.449> 310.75 102.5<221.416 420.2> 606.25 129<194.305 380.434>
VStem: 45.7 139.55<421.942 596.903> 420.2 140<176.377 310.75 413.25 560.243>
LayerCount: 2
Fore
SplineSet
185.25 477.25 m 2
 185.25 426.15 204.7 413.25 245.75 413.25 c 2
 420.2 413.25 l 1
 420.2 513.85 410.15 606.25 324.9 606.25 c 2
 248.5 606.25 l 2
 207.4 606.25 185.25 596.8 185.25 544.5 c 2
 185.25 477.25 l 2
45.7 460.75 m 2
 45.7 569.75 l 2
 45.7 691.65 117.1 735.25 223.2 735.25 c 2
 366.15 735.25 l 2
 482.3 734.8 560.2 665.25 560.2 350.25 c 0
 560.2 85.25 474.5 6.7 388.2 -1 c 0
 287.75 -9.8 160 0 69.7 19.1 c 1
 69.7 125.25 l 1
 320.2 125.25 l 2
 411.2 125.25 419.3 232.8 420.2 310.75 c 1
 361.6 295.8 297.2 289.75 217.7 289.75 c 0
 76.2 289.75 45.7 365.7 45.7 460.75 c 2
EndSplineSet
Substitution2: "'dnom' Denominators lookup 0 subtable" nine.denominator
Substitution2: "'sups' Superscript lookup 2 subtable" ninesuperior
Substitution2: "'onum' Oldstyle Figures in Latin lookup 5-1" nine.oldstyle
Substitution2: "'tnum' Tabular Numbers in Latin lookup 7-1" nine.tnum
Substitution2: "'numr' Numerators lookup 9 subtable" nine.numerator
Substitution2: "'sinf' Scientific Inferiors lookup 3-1" nineinferior
Substitution2: "'frac' Diagonal Fractions lookup 13-1" nine.numerator
Substitution2: "'smcp' Lowercase to Small Capitals lookup 16-1" nine.smcp
EndChar

StartChar: eight
Encoding: 56 56 148
Width: 624
VWidth: 0
Flags: HW
HStem: 0 123.5<211.774 417.361> 315 117<208.092 416.603> 613.5 123.5<210.82 415.923>
VStem: 56.85 140<135.616 302.533 443.342 599.991> 428.35 140<138.572 302.782 442.546 601.954>
LayerCount: 2
Fore
SplineSet
196.85 494 m 2
 196.85 442.4 229.65 432 263.65 432 c 2
 363.8 432 l 2
 420.85 432 428.35 461.3 428.35 494 c 2
 428.35 541.1 l 2
 428.35 600.8 402.65 613.5 362.9 613.5 c 2
 268.6 613.5 l 2
 223.3 613.5 196.85 606.9 196.85 541.1 c 2
 196.85 494 l 2
196.85 183.45 m 2
 196.85 142.15 216.5 123.5 268.6 123.5 c 2
 362.45 123.5 l 2
 406 123.5 428.35 144.2 428.35 183.45 c 2
 428.35 252.7 l 2
 428.35 292.65 406.15 315 364.9 315 c 2
 263.65 315 l 2
 219.85 315 196.85 295.45 196.85 252.7 c 2
 196.85 183.45 l 2
56.85 167.75 m 2
 56.85 241 l 2
 56.85 301.8 87 342.7 135.8 353.5 c 1
 66.3 383.75 56.85 441.6 56.85 499 c 2
 56.85 564 l 2
 56.85 701.3 140.85 737 243.85 737 c 2
 395.35 737 l 2
 508.4 737 568.35 689.2 568.35 563.45 c 2
 568.35 510 l 2
 568.8 485.25 561.5 405.7 493.35 394 c 1
 555.6 382.35 568.8 299.95 568.35 256.95 c 2
 568.35 171.05 l 2
 568.35 22.9 476.5 0 394.35 0 c 2
 243.85 0 l 2
 61.95 0 56.85 114.1 56.85 167.75 c 2
EndSplineSet
Substitution2: "'dnom' Denominators lookup 0 subtable" eight.denominator
Substitution2: "'sups' Superscript lookup 2 subtable" eightsuperior
Substitution2: "'onum' Oldstyle Figures in Latin lookup 5-1" eight.oldstyle
Substitution2: "'tnum' Tabular Numbers in Latin lookup 7-1" eight.tnum
Substitution2: "'numr' Numerators lookup 9 subtable" eight.numerator
Substitution2: "'sinf' Scientific Inferiors lookup 3-1" eightinferior
Substitution2: "'frac' Diagonal Fractions lookup 13-1" eight.numerator
Substitution2: "'smcp' Lowercase to Small Capitals lookup 16-1" eight.smcp
EndChar

StartChar: quotesingle
Encoding: 39 39 149
Width: 224
VWidth: 0
Flags: HW
LayerCount: 2
Fore
SplineSet
41.8 665 m 1
 41.8 732 l 1
 182.8 732 l 1
 182.8 665 l 1
 172.8 531 l 1
 52.8 531 l 1
 41.8 665 l 1
EndSplineSet
Substitution2: "'smcp' Lowercase to Small Capitals lookup 16-1" quotesingle.smcp
EndChar

StartChar: onesuperior
Encoding: 185 185 150
Width: 270
VWidth: 122
Flags: HW
LayerCount: 2
Fore
SplineSet
12.15 738.95 m 1
 12.15 805 l 1
 114.3 860 l 1
 221.4 860 l 1
 221.4 377.95 l 1
 113.2 377.95 l 1
 113.2 761.85 l 1
 12.15 738.95 l 1
EndSplineSet
EndChar

StartChar: twosuperior
Encoding: 178 178 151
Width: 400
VWidth: 122
Flags: HW
LayerCount: 2
Fore
SplineSet
23.75 766.6 m 2
 22.85 766.6 23.75 847.7 23.75 847.7 c 1
 84.8 858.45 135.3 866.55 222.7 866.55 c 0
 326.75 866.55 368.65 805.25 368.65 721.2 c 0
 368.65 616.55 240.6 513.45 196.4 477.9 c 1
 368.2 477.9 l 1
 368.2 377.95 l 1
 27.3 377.95 l 1
 27.3 473.35 l 1
 87.15 515.25 259.1 634.9 259.1 709.95 c 0
 259.1 753.6 238.35 766.6 182.55 766.6 c 2
 23.75 766.6 l 2
EndSplineSet
EndChar

StartChar: threesuperior
Encoding: 179 179 152
Width: 408
VWidth: 122
Flags: HW
LayerCount: 2
Fore
SplineSet
22.85 762.05 m 1
 22.85 841.35 l 1
 82.05 863 157.25 862.65 236.55 861.55 c 0
 318.05 861 363.6 811.15 363.6 740.7 c 2
 363.6 710.65 l 2
 363.6 662.55 343.9 630.45 306.9 617.7 c 1
 344.9 602.9 363.6 568.85 363.6 518.75 c 2
 363.6 495.7 l 2
 363.6 419.2 322.85 373.4 231.55 373.4 c 0
 154.25 373.4 86.05 371.4 26.85 393.05 c 1
 27.85 472.9 l 1
 42.25 472.9 187.25 473.35 187.25 473.35 c 2
 240.15 473.35 255.4 481 255.4 512.9 c 2
 255.4 525.45 l 2
 255.4 559.95 230.65 568.7 191.25 569.7 c 2
 67.95 574.7 l 1
 67.95 661.3 l 1
 191.25 668.3 l 1
 236.8 669.75 256.95 679.65 256.95 709.75 c 2
 256.95 721.85 l 2
 256.95 753.95 230.75 762.05 191.25 762.05 c 2
 22.85 762.05 l 1
EndSplineSet
EndChar

StartChar: ordmasculine
Encoding: 186 186 153
Width: 394
VWidth: 0
Flags: HW
LayerCount: 2
Fore
SplineSet
131.05 550.55 m 0
 131.05 467.15 151.7 461.4 197.65 461.4 c 0
 246.5 461.4 263 464.6 263.9 550.55 c 0
 264.8 641.65 248.15 648.6 197.65 648.6 c 0
 146.35 648.6 131.05 640.9 131.05 550.55 c 0
36.05 263.85 m 1
 36.05 332.85 l 1
 358.45 332.85 l 1
 358.45 263.85 l 1
 36.05 263.85 l 1
22.85 550 m 0
 22.85 693.1 66.25 735.9 197.65 735.9 c 0
 329.6 735.9 372.1 690.9 372.1 550 c 0
 372.1 420.35 331.8 374.1 197.65 374.1 c 0
 65.15 374.1 22.85 423.1 22.85 550 c 0
EndSplineSet
Ligature2: "'ordn' Ordinals lookup 21-1" o
Substitution2: "'smcp' Lowercase to Small Capitals lookup 16-1" ordmasculine.smcp
EndChar

StartChar: ordfeminine
Encoding: 170 170 154
Width: 366
VWidth: 0
Flags: HW
LayerCount: 2
Fore
SplineSet
124.45 484.8 m 2
 124.45 458.1 140.8 454.7 159.65 454.7 c 0
 203.15 454.7 234.8 480.1 234.8 480.1 c 1
 234.8 538.6 l 1
 154.7 532.45 l 2
 128.2 530 124.45 513.65 124.45 499.15 c 2
 124.45 484.8 l 2
22.85 466.3 m 2
 22.85 501.3 l 2
 22.85 552 53.15 596.25 133.85 596.25 c 2
 133.85 596.25 234.8 595.25 234.8 596.25 c 2
 234.8 596.25 235.8 611.85 234.8 612.85 c 1
 234.8 648.2 216.2 653.5 183.7 653.5 c 0
 114.85 653.5 67.7 646.75 34.85 645.4 c 1
 34.85 711.6 l 1
 85.9 728.95 128.8 738 199.4 738.45 c 0
 285.05 738.9 343 712.3 343 625 c 2
 343 378 l 1
 261.2 378 l 1
 235.25 422.6 l 1
 231.05 413.8 183.5 372.9 130 374 c 0
 58.75 375.65 22.85 420.4 22.85 466.3 c 2
22.85 262.5 m 1
 22.85 331.5 l 1
 343.9 331.5 l 1
 343.9 262.5 l 1
 22.85 262.5 l 1
EndSplineSet
Ligature2: "'ordn' Ordinals lookup 21-1" a
Substitution2: "'smcp' Lowercase to Small Capitals lookup 16-1" ordfeminine.smcp
EndChar

StartChar: slash
Encoding: 47 47 155
Width: 456
VWidth: 0
Flags: HW
LayerCount: 2
Fore
SplineSet
15.05 -72 m 1
 296.05 770 l 1
 441.05 770 l 1
 160.05 -72 l 1
 15.05 -72 l 1
EndSplineSet
Substitution2: "'numr' Numerators lookup 9 subtable" fraction
Substitution2: "'frac' Diagonal Fractions lookup 12-1" fraction
EndChar

StartChar: backslash
Encoding: 92 92 156
Width: 456
VWidth: 0
Flags: HW
LayerCount: 2
Fore
SplineSet
15.05 770 m 1
 160.05 770 l 1
 441.05 -72 l 1
 296.05 -72 l 1
 15.05 770 l 1
EndSplineSet
EndChar

StartChar: bar
Encoding: 124 124 157
Width: 247
VWidth: 0
Flags: HW
LayerCount: 2
Fore
SplineSet
65.1 -72 m 1
 65.1 770 l 1
 183.1 770 l 1
 183.1 -72 l 1
 65.1 -72 l 1
EndSplineSet
EndChar

StartChar: underscore
Encoding: 95 95 158
Width: 674
VWidth: 0
Flags: HW
LayerCount: 2
Fore
SplineSet
20 -1 m 1
 20 117 l 1
 654 117 l 1
 654 -1 l 1
 20 -1 l 1
EndSplineSet
EndChar

StartChar: hyphen
Encoding: 45 45 159
Width: 354
VWidth: 0
Flags: HW
LayerCount: 2
Fore
SplineSet
20 231 m 1
 20 349 l 1
 334 349 l 1
 334 231 l 1
 20 231 l 1
EndSplineSet
Substitution2: "'case' Case-Sensitive Forms lookup 1-1" hyphen.alt
Substitution2: "'c2sc' Capitals to Small Capitals in Latin lookup 17 subtable" hyphen.smcp
Substitution2: "'smcp' Lowercase to Small Capitals lookup 16-1" hyphen.smcp
EndChar

StartChar: numbersign
Encoding: 35 35 160
Width: 721
VWidth: 0
Flags: HW
LayerCount: 2
Fore
SplineSet
278.05 306 m 1
 404 305 l 1
 424.5 427 l 1
 298.55 427 l 1
 278.05 306 l 1
15.05 210 m 1
 29.65 306 l 1
 182.05 306 l 1
 202.55 427 l 1
 49.05 427 l 1
 64.65 523 l 1
 220.45 523 l 1
 257.45 732 l 1
 353.45 732 l 1
 316.45 523 l 1
 439.55 523 l 1
 475.55 732 l 1
 571.55 732 l 1
 535.55 523 l 1
 707.05 523 l 1
 692.55 427 l 1
 520.5 427 l 1
 500 305 l 1
 672.05 305 l 1
 658.55 209 l 1
 479.9 209 l 1
 442.9 0 l 1
 346.9 0 l 1
 383.9 209 l 1
 260.25 210 l 1
 223.25 0 l 1
 127.25 0 l 1
 164.25 210 l 1
 15.05 210 l 1
EndSplineSet
Substitution2: "'smcp' Lowercase to Small Capitals lookup 16-1" numbersign.smcp
EndChar

StartChar: dollar
Encoding: 36 36 161
Width: 570
VWidth: 0
Flags: HW
LayerCount: 2
Fore
SplineSet
41.8 485.75 m 2
 41.8 549 l 2
 42.7 691.65 128.75 734.9 237.95 738 c 1
 237.95 824 l 1
 323.45 824 l 1
 323.45 736.65 l 1
 391.95 732.75 454.65 721.3 501.8 709.05 c 1
 501.8 599.9 l 1
 444.1 603.75 314.6 609.45 278.3 609.45 c 0
 217.1 610.8 181.8 603.85 181.8 538 c 2
 181.8 502.25 l 2
 181.8 449.2 209.4 431.75 261.6 431.75 c 2
 355.3 431.75 l 2
 501 431.75 528.8 318.65 528.8 237.75 c 2
 528.8 189 l 2
 528.8 27.35 424.95 -9.6 323.45 -8 c 1
 323.45 -90 l 1
 237.95 -90 l 1
 237.95 -5.75 l 1
 161.2 -2.05 119.4 6.3 64.8 21.95 c 1
 64.8 129.75 l 1
 104.8 127.55 205.3 121 298.3 121 c 0
 340.4 121 388.8 130.2 388.8 184.05 c 2
 388.8 223.45 l 2
 388.8 265.05 375.75 291.75 322.3 291.75 c 2
 230.8 291.75 l 2
 60.15 291.75 41.8 424.35 41.8 485.75 c 2
EndSplineSet
Substitution2: "'smcp' Lowercase to Small Capitals lookup 16-1" dollar.smcp
EndChar

StartChar: zerosuperior
Encoding: 264 8304 162
Width: 464
VWidth: 122
Flags: HW
LayerCount: 2
Fore
SplineSet
154.35 520.1 m 2
 154.35 483.95 171.6 477.45 201.35 477.45 c 2
 265.8 477.45 l 2
 300.85 477.45 311.35 486.2 311.35 519.55 c 2
 311.35 717.05 l 2
 311.35 747.65 300.05 759.15 268.55 759.15 c 2
 198.6 759.15 l 2
 154.2 759.15 154.35 735.4 154.35 717.05 c 2
 154.35 520.1 l 2
45.7 497.4 m 2
 45.7 735.9 l 2
 45.7 821 93.9 859.1 175.9 859.1 c 2
 294 859.1 l 2
 389.1 859.1 419.1 807.3 419.1 739.2 c 2
 419.1 497.4 l 2
 419.1 410.75 370.65 377.5 294 377.5 c 2
 175.35 377.5 l 2
 96.55 377.5 45.7 408.4 45.7 497.4 c 2
EndSplineSet
EndChar

StartChar: foursuperior
Encoding: 265 8308 163
Width: 430
VWidth: 122
Flags: HW
LayerCount: 2
Fore
SplineSet
12.15 522.5 m 1
 183.3 859.1 l 1
 293.9 859.1 l 1
 152.5 578.9 l 1
 262.85 578.9 l 1
 262.85 681.2 l 1
 287 730.85 l 1
 371.05 730.85 l 1
 371.05 578.9 l 1
 419.6 578.9 l 1
 419.6 493.9 l 1
 371.05 485.85 l 1
 371.05 379.05 l 1
 262.85 379.05 l 1
 262.85 475.95 l 1
 34.7 475.95 l 1
 12.15 522.5 l 1
EndSplineSet
EndChar

StartChar: fivesuperior
Encoding: 266 8309 164
Width: 416
VWidth: 122
Flags: HW
LayerCount: 2
Fore
SplineSet
41.8 390.25 m 1
 41.8 476.1 l 1
 233.55 476.1 l 2
 274.6 476.1 277.95 495.35 277.95 515.7 c 2
 277.95 549.15 l 2
 277.95 568.4 275.55 591.9 237.4 591.9 c 2
 169.7 591.9 l 2
 146.9 591.9 133.95 581.75 133.95 557.2 c 1
 42.35 557.2 l 1
 57.35 859.1 l 1
 367.2 859.1 l 1
 367.2 759.15 l 1
 152.2 759.15 l 1
 147.5 670.65 l 1
 177.5 694.15 236.35 689.65 270.55 687.45 c 0
 351.4 683.6 386.15 631.85 386.15 560.3 c 2
 386.15 496.3 l 2
 386.15 408.25 325.3 374.05 259.55 374.05 c 0
 175.25 374.05 132.65 374.15 41.8 390.25 c 1
EndSplineSet
EndChar

StartChar: sixsuperior
Encoding: 267 8310 165
Width: 438
VWidth: 121
Flags: HW
LayerCount: 2
Fore
SplineSet
149.45 580.1 m 1
 149.45 536.65 155.85 477.9 208.75 477.9 c 2
 262.5 477.9 l 2
 289.45 477.9 299.6 486.85 299.6 512.95 c 2
 299.6 545.9 l 2
 299.6 573.65 291.95 580.1 264.7 580.1 c 2
 149.45 580.1 l 1
41.25 631.25 m 0
 42.15 817.25 101.25 856.15 165.35 862.9 c 1
 235.65 871.75 327.65 860.55 390.7 849.8 c 1
 390.7 766.25 l 1
 214 766.25 l 2
 151.7 766.25 149.9 706.2 149.45 660.55 c 1
 187.95 670.95 233.35 675.65 285.75 675.65 c 0
 385.85 675.65 407.8 622.9 407.8 559.25 c 2
 407.8 492.3 l 2
 407.8 410.95 358.3 377.95 284.1 377.95 c 2
 180.4 377.95 l 2
 99.05 377.95 40.35 419.9 41.25 631.25 c 0
EndSplineSet
EndChar

StartChar: sevensuperior
Encoding: 268 8311 166
Width: 397
VWidth: 122
Flags: HW
LayerCount: 2
Fore
SplineSet
11.15 760.05 m 1
 11.15 860 l 1
 358.2 860 l 1
 385.65 813.6 l 1
 202.55 377.95 l 1
 84.15 377.95 l 1
 245.25 760.05 l 1
 11.15 760.05 l 1
EndSplineSet
EndChar

StartChar: eightsuperior
Encoding: 269 8312 167
Width: 463
VWidth: 122
Flags: HW
LayerCount: 2
Fore
SplineSet
158.25 705.6 m 2
 158.25 675.35 174.8 668.75 197.35 668.75 c 2
 266.55 668.75 l 2
 303.65 668.75 306.1 687 306.1 705.6 c 2
 306.1 728.25 l 2
 306.1 763.05 290.2 768 264.3 768 c 2
 201.4 768 l 2
 170.15 768 158.25 761.6 158.25 728.25 c 2
 158.25 705.6 l 2
158.25 506.5 m 2
 158.25 482.2 167.15 473.05 198.25 473.05 c 2
 267.9 473.05 l 2
 296.45 473.05 306.1 483.5 306.1 506.5 c 2
 306.1 540.55 l 2
 306.1 564.9 296.25 577.15 268.9 577.15 c 2
 197.35 577.15 l 2
 168.45 577.15 158.25 566.25 158.25 540.55 c 2
 158.25 506.5 l 2
50.05 489.3 m 2
 50.05 534.65 l 2
 50.05 574.4 70.8 602.5 105.6 609.4 c 1
 55.9 629.45 50.05 667.6 50.05 705.45 c 2
 50.05 747.1 l 2
 50.05 840.2 109.5 863.55 180.9 863.55 c 2
 292.55 863.55 l 2
 371.35 863.55 414.3 833.1 414.3 748.2 c 2
 414.3 714.25 l 2
 414.75 698.05 410 646.5 361.9 638.7 c 1
 406.25 631.05 414.3 575.3 414.3 546.75 c 2
 414.3 492.6 l 2
 414.3 394.3 357.15 377.05 293.9 377.05 c 2
 177.75 377.05 l 2
 59.9 377.05 50.05 441.9 50.05 489.3 c 2
EndSplineSet
EndChar

StartChar: ninesuperior
Encoding: 270 8313 168
Width: 438
VWidth: 122
Flags: HW
LayerCount: 2
Fore
SplineSet
142.2 696.6 m 2
 142.2 667.75 150.4 660.75 177.65 660.75 c 2
 292.35 660.75 l 1
 292.35 706.95 287.3 766.25 234.4 766.25 c 2
 179.3 766.25 l 2
 152.35 766.25 142.2 756.75 142.2 729.55 c 2
 142.2 696.6 l 2
34 682.7 m 2
 34 750.2 l 2
 34 832.65 84.05 866.2 158.25 866.2 c 2
 261.4 866.2 l 2
 342.75 866.2 401.45 823.15 400.55 608.5 c 0
 399.65 419.75 342.35 381.3 276.9 373.55 c 0
 207.05 364.7 119.55 373.2 51.1 386.65 c 1
 51.1 470.75 l 1
 227.35 470.75 l 2
 289.65 470.75 291.9 531.9 292.35 579.75 c 1
 253.85 569.35 209 564.65 156.6 564.65 c 0
 56.5 564.65 34 617.95 34 682.7 c 2
EndSplineSet
EndChar

StartChar: zeroinferior
Encoding: 271 8320 169
Width: 464
VWidth: 0
Flags: HW
LayerCount: 2
Fore
SplineSet
154.35 -57.4 m 2
 154.35 -93.55 171.6 -100.05 201.35 -100.05 c 2
 265.8 -100.05 l 2
 300.85 -100.05 311.35 -91.3 311.35 -57.95 c 2
 311.35 139.55 l 2
 311.35 170.15 300.05 181.65 268.55 181.65 c 2
 198.6 181.65 l 2
 154.2 181.65 154.35 157.9 154.35 139.55 c 2
 154.35 -57.4 l 2
45.7 -80.1 m 2
 45.7 158.4 l 2
 45.7 243.5 93.9 281.6 175.9 281.6 c 2
 294 281.6 l 2
 389.1 281.6 419.1 229.8 419.1 161.7 c 2
 419.1 -80.1 l 2
 419.1 -166.75 370.65 -200 294 -200 c 2
 175.35 -200 l 2
 96.55 -200 45.7 -169.1 45.7 -80.1 c 2
EndSplineSet
EndChar

StartChar: oneinferior
Encoding: 272 8321 170
Width: 270
VWidth: 0
Flags: HW
LayerCount: 2
Fore
SplineSet
12.15 161.45 m 1
 12.15 227.5 l 1
 114.3 282.5 l 1
 221.4 282.5 l 1
 221.4 -199.55 l 1
 113.2 -199.55 l 1
 113.2 184.35 l 1
 12.15 161.45 l 1
EndSplineSet
EndChar

StartChar: twoinferior
Encoding: 273 8322 171
Width: 403
VWidth: 0
Flags: HW
LayerCount: 2
Fore
SplineSet
23.75 189.1 m 2
 22.85 189.1 23.75 270.2 23.75 270.2 c 1
 85.35 280.95 135.85 289.05 224.35 289.05 c 0
 329.5 289.05 371.95 227.75 371.95 143.7 c 0
 371.95 39.05 241.7 -64.05 196.95 -99.6 c 1
 371.5 -99.6 l 1
 371.5 -199.55 l 1
 27.3 -199.55 l 1
 27.3 -104.15 l 1
 87.7 -62.25 262.4 57.4 262.4 133 c 0
 262.4 176.1 241.65 189.1 184.75 189.1 c 2
 23.75 189.1 l 2
EndSplineSet
EndChar

StartChar: threeinferior
Encoding: 274 8323 172
Width: 412
VWidth: 0
Flags: HW
LayerCount: 2
Fore
SplineSet
22.85 184.55 m 1
 22.85 263.85 l 1
 82.6 285.5 158.9 285.15 238.75 284.05 c 0
 320.8 283.5 366.9 234.2 366.9 163.2 c 2
 366.9 133.15 l 2
 366.9 85.05 347.2 52.95 310.2 40.2 c 1
 348.2 25.4 366.9 -8.65 366.9 -58.75 c 2
 366.9 -81.8 l 2
 366.9 -157.75 326.15 -204.1 233.75 -204.1 c 0
 155.9 -204.1 87.15 -206.1 26.85 -184.45 c 1
 27.85 -104.6 l 1
 42.25 -104.6 189.45 -104.15 189.45 -104.15 c 2
 242.9 -104.15 258.7 -96.5 258.7 -64.6 c 2
 258.7 -52.05 l 2
 258.7 -17.55 233.4 -8.8 193.45 -7.8 c 2
 67.95 -2.8 l 1
 67.95 83.25 l 1
 193.45 90.8 l 1
 240.1 92.25 260.25 102.15 260.25 132.25 c 2
 260.25 144.35 l 2
 260.25 176.45 233.5 184.55 193.45 184.55 c 2
 22.85 184.55 l 1
EndSplineSet
EndChar

StartChar: fourinferior
Encoding: 275 8324 173
Width: 434
VWidth: 0
Flags: HW
LayerCount: 2
Fore
SplineSet
12.15 -55 m 1
 183.3 281.6 l 1
 297.2 281.6 l 1
 158 1.4 l 1
 266.15 1.4 l 1
 266.15 103.7 l 1
 290.3 153.35 l 1
 374.35 153.35 l 1
 374.35 1.4 l 1
 422.9 1.4 l 1
 422.9 -83.6 l 1
 374.35 -91.65 l 1
 374.35 -198.45 l 1
 266.15 -198.45 l 1
 266.15 -101.55 l 1
 34.7 -101.55 l 1
 12.15 -55 l 1
EndSplineSet
EndChar

StartChar: fiveinferior
Encoding: 276 8325 174
Width: 418
VWidth: 0
Flags: HW
LayerCount: 2
Fore
SplineSet
42.35 -13.7 m 1
 57.35 281.6 l 1
 369.4 281.6 l 1
 369.4 181.65 l 1
 153.3 181.65 l 1
 148.05 93.15 l 1
 178.05 116.65 237.45 112.15 272.2 109.95 c 0
 353.6 106.1 388.35 54.35 388.35 -17.2 c 2
 388.35 -81.2 l 2
 388.35 -169.25 326.95 -203.45 260.65 -203.45 c 0
 175.8 -203.45 133.2 -203.35 41.8 -187.25 c 1
 41.8 -101.4 l 1
 235.2 -101.4 l 2
 276.25 -101.4 280.15 -82.15 280.15 -61.8 c 2
 280.15 -28.35 l 2
 280.15 -9.1 277.75 14.4 239.6 14.4 c 2
 171.35 14.4 l 2
 148.55 14.4 135.05 6.45 135.05 -13.7 c 1
 42.35 -13.7 l 1
EndSplineSet
EndChar

StartChar: sixinferior
Encoding: 277 8326 175
Width: 438
VWidth: 0
Flags: HW
LayerCount: 2
Fore
SplineSet
149.45 2.6 m 1
 149.45 -40.85 155.85 -99.6 208.75 -99.6 c 2
 262.5 -99.6 l 2
 289.45 -99.6 299.6 -90.65 299.6 -64.55 c 2
 299.6 -31.6 l 2
 299.6 -3.85 291.95 2.6 264.7 2.6 c 2
 149.45 2.6 l 1
41.25 53.75 m 0
 42.15 239.75 101.25 278.65 165.35 285.4 c 0
 235.2 293.8 324.95 284.85 390.7 272.3 c 1
 390.7 188.75 l 1
 214 188.75 l 2
 151.7 188.75 149.9 128.7 149.45 83.05 c 1
 187.95 93.45 232.8 98.15 285.75 98.15 c 0
 385.85 98.15 407.8 45.4 407.8 -18.25 c 2
 407.8 -85.2 l 2
 407.8 -166.55 358.3 -199.55 284.1 -199.55 c 2
 180.4 -199.55 l 2
 99.05 -199.55 40.35 -157.6 41.25 53.75 c 0
EndSplineSet
EndChar

StartChar: seveninferior
Encoding: 278 8327 176
Width: 397
VWidth: 0
Flags: HW
LayerCount: 2
Fore
SplineSet
11.15 182.55 m 1
 11.15 282.5 l 1
 358.2 282.5 l 1
 385.65 236.1 l 1
 202.55 -199.55 l 1
 84.15 -199.55 l 1
 245.25 182.55 l 1
 11.15 182.55 l 1
EndSplineSet
EndChar

StartChar: eightinferior
Encoding: 279 8328 177
Width: 463
VWidth: 0
Flags: HW
LayerCount: 2
Fore
SplineSet
158.25 128.1 m 2
 158.25 97.85 174.8 91.25 197.35 91.25 c 2
 266.55 91.25 l 2
 303.65 91.25 306.1 109.5 306.1 128.1 c 2
 306.1 150.75 l 2
 306.1 185.55 290.2 190.5 264.3 190.5 c 2
 201.4 190.5 l 2
 170.15 190.5 158.25 184.1 158.25 150.75 c 2
 158.25 128.1 l 2
158.25 -36.95 m 2
 158.25 -71 l 2
 158.25 -95.3 167.15 -104.45 198.25 -104.45 c 2
 267.9 -104.45 l 2
 296.45 -104.45 306.1 -94 306.1 -71 c 2
 306.1 -36.95 l 2
 306.1 -12.6 296.25 -0.35 268.9 -0.35 c 2
 197.35 -0.35 l 2
 168.45 -0.35 158.25 -11.25 158.25 -36.95 c 2
50.05 -42.85 m 2
 50.05 -3.1 70.25 25 105.6 31.9 c 1
 55.9 51.95 50.05 90.1 50.05 127.95 c 2
 50.05 169.6 l 2
 50.05 262.7 109.5 286.05 180.9 286.05 c 2
 292.55 286.05 l 2
 371.35 286.05 414.3 255.6 414.3 170.7 c 2
 414.3 136.75 l 2
 414.75 120.55 409.45 69 361.9 61.2 c 1
 405.7 53.55 414.3 -2.2 414.3 -30.75 c 2
 414.3 -84.9 l 2
 414.3 -183.2 357.15 -200.45 293.9 -200.45 c 2
 177.75 -200.45 l 2
 59.9 -200.45 50.05 -135.6 50.05 -88.2 c 2
 50.05 -42.85 l 2
EndSplineSet
EndChar

StartChar: nineinferior
Encoding: 280 8329 178
Width: 438
VWidth: 0
Flags: HW
LayerCount: 2
Fore
SplineSet
142.2 119.1 m 2
 142.2 90.25 150.4 83.25 177.65 83.25 c 2
 292.35 83.25 l 1
 292.35 129.45 287.3 188.75 234.4 188.75 c 2
 179.3 188.75 l 2
 152.35 188.75 142.2 179.25 142.2 152.05 c 2
 142.2 119.1 l 2
34 105.2 m 2
 34 172.7 l 2
 34 255.15 84.05 288.7 158.25 288.7 c 2
 261.4 288.7 l 2
 342.75 288.7 401.45 246.2 400.55 32.1 c 0
 399.65 -155.55 342.35 -194.55 276.9 -202.3 c 0
 207.05 -211.15 118.2 -202.2 51.1 -190.85 c 1
 51.1 -106.75 l 1
 227.35 -106.75 l 2
 289.65 -106.75 291.9 -45.6 292.35 2.25 c 1
 253.85 -8.15 209 -12.85 156.6 -12.85 c 0
 56.5 -12.85 34 40.45 34 105.2 c 2
EndSplineSet
EndChar

StartChar: zero.oldstyle
Encoding: 281 -1 179
Width: 630
VWidth: 0
Flags: HW
HStem: 0 129<210.916 420.711> 503.1 129<211.646 419.381>
VStem: 52.95 140<146.369 485.481> 437.95 140<146.6 489.45>
LayerCount: 2
Fore
SplineSet
192.95 201.05 m 2
 192.95 140.1 234.7 129 268.4 129 c 2
 365.3 129 l 2
 412.25 129 437.95 146.5 437.95 200.5 c 2
 437.95 431.6 l 2
 437.95 477.6 417.85 503.1 369.7 503.1 c 2
 264.55 503.1 l 2
 204.45 503.1 192.95 460.35 192.95 431.6 c 2
 192.95 201.05 l 2
52.95 178.5 m 2
 52.95 448.1 l 2
 52.95 568.2 125.55 632.1 237.05 632.1 c 2
 401.05 632.1 l 2
 535.7 632.1 577.95 551.75 577.95 453.6 c 2
 577.95 178.5 l 2
 577.95 59.5 511.05 0 400.5 0 c 2
 236.5 0 l 2
 124.05 0 52.95 58.5 52.95 178.5 c 2
EndSplineSet
Substitution2: "'tnum' Tabular Numbers in Latin lookup 7-1" zero.tosf
Substitution2: "'lnum' Lining Figures lookup 19-1" zero
EndChar

StartChar: one.oldstyle
Encoding: 282 -1 180
Width: 367
VWidth: 0
Flags: HW
HStem: 0 21G<163.35 303.35> 0 21G<163.35 303.35>
VStem: 163.35 140<0 492.45>
LayerCount: 2
Fore
SplineSet
22.85 457.15 m 1
 22.85 548.65 l 1
 164.45 632 l 1
 303.35 632 l 1
 303.35 0 l 1
 163.35 0 l 1
 163.35 492.45 l 1
 22.85 457.15 l 1
EndSplineSet
Substitution2: "'tnum' Tabular Numbers in Latin lookup 7-1" one.tosf
Substitution2: "'lnum' Lining Figures lookup 19-1" one
EndChar

StartChar: two.oldstyle
Encoding: 283 -1 181
Width: 589
VWidth: 0
Flags: HW
LayerCount: 2
Fore
SplineSet
31.1 510.65 m 1
 31.1 614.7 l 1
 120.3 630.9 203.7 642.45 334.65 640.2 c 1
 483.45 640.2 551.4 573.9 551.4 446.05 c 0
 551.4 293.2 343.25 161.2 286.35 129 c 1
 549.15 129 l 1
 549.15 0 l 1
 37.65 0 l 1
 37.65 123 l 1
 142.65 181.35 410.95 326.9 410.95 434.3 c 0
 410.95 493 375.6 512 289.65 510.65 c 1
 31.1 510.65 l 1
EndSplineSet
Substitution2: "'tnum' Tabular Numbers in Latin lookup 7-1" two.tosf
Substitution2: "'lnum' Lining Figures lookup 19-1" two
EndChar

StartChar: three.oldstyle
Encoding: 284 -1 182
Width: 598
VWidth: 0
Flags: HW
HStem: -102 130<64.8932 387.225> -74 102<44.9 146.022> 203.5 130<165.6 381.5> 210.5 113<105.9 245.2> 510 129<67.8277 381.559> 510 101<37.9 138.162>
VStem: 403.4 138.9<45.8731 180.449 351.937 487.304>
LayerCount: 2
Fore
SplineSet
37.9 510 m 1
 37.9 611 l 1
 125.9 642 244.4 641 361.4 639 c 0
 471.4 637 542.3 569.85 542.3 463 c 2
 542.3 410.5 l 2
 542.3 337.5 517.95 288.3 466.4 269 c 1
 519.5 246.3 542.3 195.5 542.3 119.5 c 2
 542.3 77 l 2
 542.3 -38.6 476.4 -102 354.4 -102 c 0
 240.4 -102 131.9 -105 43.9 -74 c 1
 44.9 28 l 1
 298.9 28 l 2
 365.65 28 401.4 34.85 401.4 96.25 c 2
 401.4 127.75 l 2
 401.4 188.15 364.4 200.95 304.9 203.5 c 2
 105.9 210.5 l 1
 105.9 323.5 l 1
 304.9 333.5 l 2
 373.9 336.5 403.4 352.25 403.4 405 c 2
 403.4 441 l 2
 403.4 498.3 356.9 510 304.9 510 c 2
 37.9 510 l 1
EndSplineSet
Substitution2: "'tnum' Tabular Numbers in Latin lookup 7-1" three.tosf
Substitution2: "'lnum' Lining Figures lookup 19-1" three
EndChar

StartChar: four.oldstyle
Encoding: 285 -1 183
Width: 620
VWidth: 0
Flags: HW
HStem: 59.5 133<210.9 392.05>
VStem: 392.05 140<-98 59.5 192.5 359.35>
DStem2: 15.05 124 210.9 192.5 0.456299 0.889827<150.319 570.898>
LayerCount: 2
Fore
SplineSet
15.05 124 m 1
 275.55 632 l 1
 429.55 632 l 1
 210.9 192.5 l 1
 392.05 192.5 l 1
 392.05 359.35 l 1
 423.55 436 l 1
 532.05 436 l 1
 532.05 192.5 l 1
 605.55 192.5 l 1
 605.55 84 l 1
 532.05 59.5 l 1
 532.05 -98 l 1
 392.05 -98 l 1
 392.05 59.5 l 1
 49.05 59.5 l 1
 15.05 124 l 1
EndSplineSet
Substitution2: "'tnum' Tabular Numbers in Latin lookup 7-1" four.tosf
Substitution2: "'lnum' Lining Figures lookup 19-1" four
EndChar

StartChar: five.oldstyle
Encoding: 286 -1 184
Width: 610
VWidth: 0
Flags: HW
HStem: -104 134<80.1751 408.767> -80 110<67.8496 247.484> 239 123.5<222.183 407.362> 503 129<225.85 535.85>
VStem: 422.8 140<46.5701 225.656>
LayerCount: 2
Fore
SplineSet
67.8496 30 m 1
 349.85 30 l 2
 415 30 422.8 70.2002 422.8 101 c 2
 422.8 167.55 l 2
 422.8 200.55 416.85 239 355.9 239 c 2
 262.4 239 l 2
 227.25 239 201.3 221.85 201.3 180.5 c 1
 69.2998 180.5 l 1
 91.2998 632 l 1
 535.85 632 l 1
 535.85 503 l 1
 225.85 503 l 1
 218.25 338 l 1
 238.85 354.45 265.75 360.15 287.3 362.5 c 0
 325.9 366.75 375.5 363.05 396.6 362.5 c 0
 513.5 357 562.8 281.95 562.8 180 c 2
 562.8 77 l 2
 562.8 -60 459.15 -104 377.35 -104 c 0
 253.35 -104 201.85 -103 67.8496 -80 c 1
 67.8496 30 l 1
EndSplineSet
Substitution2: "'tnum' Tabular Numbers in Latin lookup 7-1" five.tosf
Substitution2: "'lnum' Lining Figures lookup 19-1" five
EndChar

StartChar: six.oldstyle
Encoding: 287 -1 185
Width: 608
VWidth: 0
Flags: HW
HStem: -1 129<229.366 415.495> 321 123.5<192.351 411.275> 321 102.5<189.6 388.384> 609 106.15<346.948 540.1>
VStem: 49.6 140<174.007 321 423.5 557.873> 424.55 139.55<137.347 312.308>
LayerCount: 2
Fore
SplineSet
189.6 321 m 1
 189.6 220.4 199.65 128 284.9 128 c 2
 361.3 128 l 2
 402.4 128 424.55 137.45 424.55 189.75 c 2
 424.55 257 l 2
 424.55 308.1 405.1 321 364.05 321 c 2
 189.6 321 l 1
49.6 384 m 0
 49.6 649 135.3 727.55 221.6 735.25 c 0
 322.05 744.05 446.2 732 540.1 715.15 c 1
 540.1 609 l 1
 289.6 609 l 2
 198.6 609 190.5 501.45 189.6 423.5 c 1
 248.2 438.45 312.6 444.5 392.1 444.5 c 0
 533.6 444.5 564.1 368.55 564.1 273.5 c 2
 564.1 164.5 l 2
 564.1 42.6 492.7 -1 386.6 -1 c 2
 243.65 -1 l 2
 127.5 -0.55 49.6 69 49.6 384 c 0
EndSplineSet
Substitution2: "'tnum' Tabular Numbers in Latin lookup 7-1" six.tosf
Substitution2: "'lnum' Lining Figures lookup 19-1" six
EndChar

StartChar: seven.oldstyle
Encoding: 288 -1 186
Width: 554
VWidth: 0
Flags: HW
HStem: 503 129<22.85 358.85>
DStem2: 133.85 -100 286.75 -100 0.344812 0.938672<52.7218 643.602>
LayerCount: 2
Fore
SplineSet
22.85 503 m 1
 22.85 632 l 1
 493.95 632 l 1
 531.95 567.5 l 1
 286.75 -100 l 1
 133.85 -100 l 1
 358.85 503 l 1
 22.85 503 l 1
EndSplineSet
Substitution2: "'tnum' Tabular Numbers in Latin lookup 7-1" seven.tosf
Substitution2: "'lnum' Lining Figures lookup 19-1" seven
EndChar

StartChar: eight.oldstyle
Encoding: 289 -1 187
Width: 624
VWidth: 0
Flags: HW
HStem: 0 123.5<211.774 417.361> 315 117<208.092 416.603> 613.5 123.5<210.82 415.923>
VStem: 56.85 140<135.616 302.533 443.342 599.991> 428.35 140<138.572 302.782 442.546 601.954>
LayerCount: 2
Fore
SplineSet
196.85 494 m 2
 196.85 442.4 229.65 432 263.65 432 c 2
 363.8 432 l 2
 420.85 432 428.35 461.3 428.35 494 c 2
 428.35 541.1 l 2
 428.35 600.8 402.65 613.5 362.9 613.5 c 2
 268.6 613.5 l 2
 223.3 613.5 196.85 606.9 196.85 541.1 c 2
 196.85 494 l 2
196.85 183.45 m 2
 196.85 142.15 216.5 123.5 268.6 123.5 c 2
 362.45 123.5 l 2
 406 123.5 428.35 144.2 428.35 183.45 c 2
 428.35 252.7 l 2
 428.35 292.65 406.15 315 364.9 315 c 2
 263.65 315 l 2
 219.85 315 196.85 295.45 196.85 252.7 c 2
 196.85 183.45 l 2
56.85 167.75 m 2
 56.85 241 l 2
 56.85 301.8 87 342.7 135.8 353.5 c 1
 66.3 383.75 56.85 441.6 56.85 499 c 2
 56.85 564 l 2
 56.85 701.3 140.85 737 243.85 737 c 2
 395.35 737 l 2
 508.4 737 568.35 689.2 568.35 563.45 c 2
 568.35 510 l 2
 568.8 485.25 561.5 405.7 493.35 394 c 1
 555.6 382.35 568.8 299.95 568.35 256.95 c 2
 568.35 171.05 l 2
 568.35 22.9 476.5 0 394.35 0 c 2
 243.85 0 l 2
 61.95 0 56.85 114.1 56.85 167.75 c 2
EndSplineSet
Substitution2: "'tnum' Tabular Numbers in Latin lookup 7-1" eight.tosf
Substitution2: "'lnum' Lining Figures lookup 19-1" eight
EndChar

StartChar: nine.oldstyle
Encoding: 290 -1 188
Width: 608
VWidth: 0
Flags: HW
HStem: -83.6 106.15<69.7 247.559> 187.05 123.5<198.525 417.449> 208.05 102.5<221.416 420.2> 503.55 129<194.305 380.434>
VStem: 45.7 139.55<319.242 494.203> 420.2 140<73.6774 208.05 310.55 457.543>
LayerCount: 2
Fore
SplineSet
185.25 374.55 m 2
 185.25 323.45 204.7 310.55 245.75 310.55 c 2
 420.2 310.55 l 1
 420.2 411.15 410.15 503.55 324.9 503.55 c 2
 248.5 503.55 l 2
 207.4 503.55 185.25 494.1 185.25 441.8 c 2
 185.25 374.55 l 2
45.7 358.05 m 2
 45.7 467.05 l 2
 45.7 588.95 117.1 632.55 223.2 632.55 c 2
 366.15 632.55 l 2
 482.3 632.1 560.2 562.55 560.2 247.55 c 0
 560.2 -17.45 474.5 -96 388.2 -103.7 c 0
 287.75 -112.5 164.5 -102.7 69.7 -83.6 c 1
 69.7 22.55 l 1
 320.2 22.55 l 2
 411.2 22.55 419.3 130.1 420.2 208.05 c 1
 361.6 193.1 297.2 187.05 217.7 187.05 c 0
 76.2 187.05 45.7 263 45.7 358.05 c 2
EndSplineSet
Substitution2: "'tnum' Tabular Numbers in Latin lookup 7-1" nine.tosf
Substitution2: "'lnum' Lining Figures lookup 19-1" nine
EndChar

StartChar: ampersand
Encoding: 38 38 189
Width: 679
VWidth: 0
Flags: HW
LayerCount: 2
Fore
SplineSet
180.05 161.6 m 0
 206.85 128.2 256.85 105.6 299.3 147.25 c 2
 349.6 195.85 l 1
 248.6 329.6 l 1
 197 284.4 l 2
 143.4 238.2 152.75 196.4 180.05 161.6 c 0
65.35 82 m 1
 -5.8 181.4 23.7 294.2 109.6 369.3 c 2
 179.1 429.65 l 1
 127.65 503.65 l 1
 48.65 610.65 127.65 718.6 207 730 c 0
 326.3 747.05 412 727 484 710 c 1
 484 608.3 l 1
 319.5 608.3 l 2
 243.4 608.3 234.45 578.75 284.2 510.5 c 2
 452.65 279.4 l 1
 574.35 393.45 l 1
 623.2 334.25 l 1
 563.4 226.7 l 1
 525.7 182.8 l 1
 662.5 0 l 1
 497.5 0 l 1
 427.05 96.15 l 1
 361.65 37.95 l 2
 293.3 -22.75 139.65 -27.8 65.35 82 c 1
EndSplineSet
AlternateSubs2: "'salt' Access All Alternates in Latin lookup 4-1" ampersand.salt
Substitution2: "'smcp' Lowercase to Small Capitals lookup 16-1" ampersand.smcp
EndChar

StartChar: asterisk
Encoding: 42 42 190
Width: 427
VWidth: 0
Flags: HW
LayerCount: 2
Fore
SplineSet
239.45 571 m 1
 358.9 649.75 l 1
 390 602.65 l 1
 293.5 505.65 l 1
 239.45 571 l 1
190.4 466.65 m 1
 236.9 538 l 1
 349.1 448.1 l 1
 316.55 402.9 l 1
 190.4 466.65 l 1
165.55 719.75 m 1
 219.95 739.05 l 1
 287.25 616.65 l 1
 208.25 584 l 1
 165.55 719.75 l 1
94.9 416.2 m 1
 119.45 552.85 l 1
 201.9 532 l 1
 148.4 399.25 l 1
 94.9 416.2 l 1
37.9 566 m 1
 37.9 622.5 l 1
 176.9 646 l 1
 181.9 561 l 1
 37.9 566 l 1
EndSplineSet
Substitution2: "'smcp' Lowercase to Small Capitals lookup 16-1" asterisk.smcp
EndChar

StartChar: Euro
Encoding: 291 8364 191
Width: 617
VWidth: 0
Flags: HW
LayerCount: 2
Fore
SplineSet
15.05 249.5 m 1
 15.05 318.5 l 1
 92.05 325.5 l 1
 92.05 393.5 l 1
 15.05 401.5 l 1
 15.05 466.5 l 1
 92.05 475.5 l 1
 92.05 547.5 93.05 740 337.05 740 c 0
 389.05 740 519.75 727.95 598.55 704.5 c 1
 598.55 601.5 l 1
 598.55 601.5 452.05 616.5 370.05 616.5 c 0
 236.45 616.5 232.05 565 232.05 475.5 c 1
 466.05 468.5 l 1
 466.05 400.5 l 1
 232.05 393.5 l 1
 232.05 325.5 l 1
 466.05 318.5 l 1
 466.05 249.5 l 1
 466.05 249.5 229.05 244.5 232.05 242.5 c 1
 232.05 132.15 295.85 112 370.05 112 c 0
 461 112 602.55 134.5 602.55 134.5 c 1
 602.55 34.5 l 1
 528.7 2.7 442.05 -6 337.05 -6 c 0
 260.05 -6 92.05 16.5 92.05 242.5 c 1
 15.05 249.5 l 1
EndSplineSet
Substitution2: "'smcp' Lowercase to Small Capitals lookup 16-1" Euro.smcp
EndChar

StartChar: parenleft
Encoding: 40 40 192
Width: 377
VWidth: 60
Flags: HW
LayerCount: 2
Fore
SplineSet
56.85 326 m 0
 56.85 650.6 232.35 860 232.35 860 c 1
 362.85 860 l 1
 362.85 860 196.85 607.9 196.85 326 c 0
 196.85 17.2 362.85 -210 362.85 -210 c 1
 232.35 -210 l 1
 232.35 -210 56.85 -34.55 56.85 326 c 0
EndSplineSet
Substitution2: "'case' Case-Sensitive Forms lookup 1-1" parenleft.alt
Substitution2: "'c2sc' Capitals to Small Capitals in Latin lookup 17 subtable" parenleft.smcp
Substitution2: "'smcp' Lowercase to Small Capitals lookup 16-1" parenleft.smcp
EndChar

StartChar: parenright
Encoding: 41 41 193
Width: 377
VWidth: 60
Flags: HW
LayerCount: 2
Fore
SplineSet
15.05 -210 m 1
 15.05 -210 181.05 17.2 181.05 326 c 0
 181.05 607.9 15.05 860 15.05 860 c 1
 145.55 860 l 1
 145.55 860 321.05 650.6 321.05 326 c 0
 321.05 -34.55 145.55 -210 145.55 -210 c 1
 15.05 -210 l 1
EndSplineSet
Substitution2: "'case' Case-Sensitive Forms lookup 1-1" parenright.alt
Substitution2: "'c2sc' Capitals to Small Capitals in Latin lookup 17 subtable" parenright.smcp
Substitution2: "'smcp' Lowercase to Small Capitals lookup 16-1" parenright.smcp
EndChar

StartChar: plus
Encoding: 43 43 194
Width: 483
VWidth: 0
Flags: HW
LayerCount: 2
Fore
SplineSet
33.5 297 m 1
 33.5 415 l 1
 181.5 415 l 1
 181.5 564 l 1
 299.5 564 l 1
 299.5 415 l 1
 449.5 415 l 1
 449.5 297 l 1
 299.5 297 l 1
 299.5 148 l 1
 181.5 148 l 1
 181.5 297 l 1
 33.5 297 l 1
EndSplineSet
EndChar

StartChar: endash
Encoding: 292 8211 195
Width: 513
VWidth: 0
Flags: HW
LayerCount: 2
Fore
SplineSet
20 228 m 1
 20 347 l 1
 493 347 l 1
 493 228 l 1
 20 228 l 1
EndSplineSet
Substitution2: "'case' Case-Sensitive Forms lookup 1-1" endash.alt
Substitution2: "'c2sc' Capitals to Small Capitals in Latin lookup 17 subtable" endash.smcp
Substitution2: "'smcp' Lowercase to Small Capitals lookup 16-1" endash.smcp
EndChar

StartChar: emdash
Encoding: 293 8212 196
Width: 736
VWidth: 0
Flags: HW
LayerCount: 2
Fore
SplineSet
20 230 m 1
 20 349 l 1
 716 349 l 1
 716 230 l 1
 20 230 l 1
EndSplineSet
Substitution2: "'case' Case-Sensitive Forms lookup 1-1" emdash.alt
Substitution2: "'c2sc' Capitals to Small Capitals in Latin lookup 17 subtable" emdash.smcp
Substitution2: "'smcp' Lowercase to Small Capitals lookup 16-1" emdash.smcp
EndChar

StartChar: less
Encoding: 60 60 197
Width: 450
VWidth: 0
Flags: HW
LayerCount: 2
Fore
SplineSet
37.9 287.6 m 1
 37.9 417.1 l 1
 412.9 561.5 l 1
 412.9 432 l 1
 186.95 353.45 l 1
 412.9 264.9 l 1
 412.9 134.5 l 1
 37.9 287.6 l 1
EndSplineSet
EndChar

StartChar: equal
Encoding: 61 61 198
Width: 467
VWidth: 0
Flags: HW
LayerCount: 2
Fore
SplineSet
20 399 m 1
 20 517 l 1
 447 517 l 1
 447 399 l 1
 20 399 l 1
20 184.5 m 1
 20 302.5 l 1
 447 302.5 l 1
 447 184.5 l 1
 20 184.5 l 1
EndSplineSet
EndChar

StartChar: greater
Encoding: 62 62 199
Width: 450
VWidth: 0
Flags: HW
LayerCount: 2
Fore
SplineSet
37.9 134.5 m 1
 37.9 264.9 l 1
 263.85 353.45 l 1
 37.9 432 l 1
 37.9 561.5 l 1
 412.9 417.1 l 1
 412.9 287.6 l 1
 37.9 134.5 l 1
EndSplineSet
EndChar

StartChar: multiply
Encoding: 215 215 200
Width: 461
VWidth: 0
Flags: HW
LayerCount: 2
Fore
SplineSet
42.8 250.4 m 1
 147.85 355 l 1
 42.8 460.6 l 1
 125.6 544.4 l 1
 231.2 438.8 l 1
 337.25 544.95 l 1
 420.6 461.6 l 1
 314.55 355 l 1
 420.15 250.4 l 1
 336.8 166.6 l 1
 231.2 271.65 l 1
 126.6 167.05 l 1
 42.8 250.4 l 1
EndSplineSet
EndChar

StartChar: divide
Encoding: 247 247 201
Width: 497
VWidth: 0
Flags: HW
LayerCount: 2
Fore
SplineSet
186.15 478.05 m 2
 186.15 544.7 l 2
 186.15 559.7 194.15 569.7 210.15 569.7 c 2
 283.8 569.7 l 2
 300.45 569.7 307.9 559.8 307.9 544.7 c 2
 307.9 478.05 l 2
 307.9 461.4 297.8 455.05 283.8 455.05 c 2
 210.15 455.05 l 2
 196.15 455.05 186.15 464.05 186.15 478.05 c 2
186.15 154.85 m 2
 186.15 221.5 l 2
 186.15 236.5 194.15 246.5 210.15 246.5 c 2
 283.8 246.5 l 2
 300.45 246.5 307.9 236.6 307.9 221.5 c 2
 307.9 154.85 l 2
 307.9 138.2 297.8 131.85 283.8 131.85 c 2
 210.15 131.85 l 2
 196.15 131.85 186.15 140.85 186.15 154.85 c 2
37.9 294 m 1
 37.9 412 l 1
 459.95 412 l 1
 459.95 294 l 1
 37.9 294 l 1
EndSplineSet
EndChar

StartChar: question
Encoding: 63 63 202
Width: 542
VWidth: 0
Flags: HW
LayerCount: 2
Fore
SplineSet
161.75 23 m 2
 161.75 113 l 2
 161.75 128 169.75 138 185.75 138 c 2
 272.65 138 l 2
 289.3 138 296.75 128.1 296.75 113 c 2
 296.75 23 l 2
 296.75 6.35 286.65 0 272.65 0 c 2
 185.75 0 l 2
 171.75 0 161.75 9 161.75 23 c 2
15.05 609 m 1
 15.05 713.5 l 1
 108.25 732 182.05 744 297.05 739 c 1
 449.05 739 512.55 641 512.55 543 c 2
 512.55 469.5 l 2
 512.55 334.5 438.1 272.25 286.05 285 c 1
 286.05 195 l 1
 172.55 195 l 1
 172.55 390 l 1
 287.05 390 l 1
 336.05 392 373.55 412.4 373.55 471.7 c 2
 373.55 525.4 l 2
 373.55 584.7 339.05 609 264.05 609 c 2
 15.05 609 l 1
EndSplineSet
Substitution2: "'smcp' Lowercase to Small Capitals lookup 16-1" question.smcp
EndChar

StartChar: bracketleft
Encoding: 91 91 203
Width: 333
VWidth: 60
Flags: HW
LayerCount: 2
Fore
SplineSet
64.65 -10.5 m 2
 64.65 653.5 l 2
 64.65 753.1 102.75 842 233.65 842 c 2
 319.15 842 l 1
 319.15 724 l 1
 266.65 724 l 2
 228.65 724 204.65 697 204.65 637 c 2
 204.65 -5 l 2
 204.65 -65 228.65 -92 266.65 -92 c 2
 319.15 -92 l 1
 319.15 -210 l 1
 233.65 -210 l 2
 86.25 -210 64.65 -91.4 64.65 -10.5 c 2
EndSplineSet
EndChar

StartChar: bracketright
Encoding: 93 93 204
Width: 333
VWidth: 60
Flags: HW
LayerCount: 2
Fore
SplineSet
15.05 -92 m 1
 67.55 -92 l 2
 105.55 -92 129.55 -65 129.55 -5 c 2
 129.55 637 l 2
 129.55 697 105.55 724 67.55 724 c 2
 15.05 724 l 1
 15.05 842 l 1
 100.55 842 l 2
 231.45 842 269.55 753.1 269.55 653.5 c 2
 269.55 -10.5 l 2
 269.55 -91.4 247.95 -210 100.55 -210 c 2
 15.05 -210 l 1
 15.05 -92 l 1
EndSplineSet
EndChar

StartChar: braceleft
Encoding: 123 123 205
Width: 321
VWidth: 60
Flags: HW
LayerCount: 2
Fore
SplineSet
15.05 280.75 m 1
 15.05 386.25 l 1
 48.05 389.25 88.55 395.4 88.55 439.25 c 2
 88.55 656 l 2
 88.55 765.2 156 842 306.05 842 c 1
 306.05 724 l 1
 254.6 724 228.55 703 228.55 612 c 2
 228.55 431 l 2
 228.55 368.7 189.9 340.8 132.55 334 c 1
 189.9 323.7 227.55 290.25 227.55 240 c 2
 227.55 0.5 l 2
 227.55 -64.5 249.25 -99.3 306.05 -97.5 c 1
 306.05 -210 l 1
 142.2 -210 87.55 -141.3 87.55 -38 c 2
 87.55 227.75 l 2
 87.55 265.35 55.05 283.75 15.05 280.75 c 1
EndSplineSet
EndChar

StartChar: braceright
Encoding: 125 125 206
Width: 321
VWidth: 60
Flags: HW
LayerCount: 2
Fore
SplineSet
15.05 -97.5 m 1
 71.85 -99.3 93.55 -64.5 93.55 0.5 c 2
 93.55 240 l 2
 93.55 290.25 131.2 323.7 188.55 334 c 1
 131.2 340.8 92.55 368.7 92.55 431 c 2
 92.55 612 l 2
 92.55 703 66.5 724 15.05 724 c 1
 15.05 842 l 1
 165.1 842 232.55 765.2 232.55 656 c 2
 232.55 439.25 l 2
 232.55 395.4 273.05 389.25 306.05 386.25 c 1
 306.05 280.75 l 1
 266.05 283.75 233.55 265.35 233.55 227.75 c 2
 233.55 -38 l 2
 233.55 -141.3 178.9 -210 15.05 -210 c 1
 15.05 -97.5 l 1
EndSplineSet
EndChar

StartChar: at
Encoding: 64 64 207
Width: 868
VWidth: 0
Flags: HW
LayerCount: 2
Fore
SplineSet
348.5 142.05 m 0
 348.5 121.05 365.5 103.05 395.2 103.5 c 0
 437.7 103.05 481.75 119.2 511.4 146.5 c 1
 511.4 225.5 l 1
 392 215 l 2
 362.45 212.1 348.05 197.85 348.5 168.9 c 0
 347.95 167.9 347.95 143.05 348.5 142.05 c 0
49.6 11 m 2
 49.6 315 l 2
 49.6 400.5 84.6 512 256.1 512 c 2
 448 512 l 2
 532.75 512 623 491.9 623 355.5 c 2
 623 0 l 1
 532.9 0 l 1
 513.4 58.5 l 1
 511.4 58.5 449.5 -9 358.5 -9 c 0
 273.5 -9.9 230.05 56.5 230.5 124.5 c 2
 230.5 166.5 l 2
 230.5 256.4 283.65 305 376 305 c 0
 426.95 305 511.4 304 511.4 305 c 2
 511.4 305 512.4 347.45 511.4 348 c 1
 511.4 391.35 490.75 399.5 449.4 399.5 c 2
 256.1 399.5 l 2
 208.1 399.5 162.1 389.5 162.1 309.5 c 2
 162.1 22 l 2
 162.1 -68 216.1 -86.5 256.1 -86.5 c 2
 588.6 -86.5 l 2
 670.6 -86.5 691.6 -46 691.6 22 c 2
 691.6 479 l 2
 691.6 556 649.6 595.75 588.6 595.75 c 2
 184.6 595.75 l 1
 184.6 681.25 l 1
 232.6 691.25 363.1 709.25 489.1 708.25 c 1
 588.6 708.25 l 2
 699.55 707.35 804.1 647.45 804.1 479 c 2
 804.1 22 l 2
 804.1 -125.5 737.05 -200 594.1 -200 c 2
 256.1 -200 l 2
 143.1 -200 49.6 -140.75 49.6 11 c 2
EndSplineSet
Substitution2: "'case' Case-Sensitive Forms lookup 1-1" at.alt
Substitution2: "'smcp' Lowercase to Small Capitals lookup 16-1" at.smcp
EndChar

StartChar: breve
Encoding: 294 728 208
Width: 304
VWidth: 0
Flags: HW
LayerCount: 2
Fore
SplineSet
37.9 644 m 1
 95.9 644 l 1
 95.9 609.95 119.45 588 151.9 588 c 0
 189.9 588 209.9 609.7 209.9 644 c 1
 267.9 644 l 1
 267.9 572.4 215.7 530 151.9 530 c 0
 89.2 530 37.9 574.2 37.9 644 c 1
EndSplineSet
EndChar

StartChar: ogonek
Encoding: 295 731 209
Width: 209
VWidth: 0
Flags: HW
LayerCount: 2
Fore
SplineSet
107.8 0 m 1
 163.3 0 l 1
 83.6 -59.75 116.45 -112.4 171.8 -110 c 1
 171.8 -186.5 l 1
 65.6 -212.4 -34.5 -71.7 107.8 0 c 1
EndSplineSet
EndChar

StartChar: caron
Encoding: 296 711 210
Width: 384
VWidth: 0
Flags: HW
LayerCount: 2
Fore
SplineSet
37.9 666.5 m 1
 131.35 666.5 l 1
 194.3 606.5 l 1
 252.85 666.5 l 1
 346.4 666.5 l 1
 244.6 531 l 1
 140.6 531 l 1
 37.9 666.5 l 1
EndSplineSet
Substitution2: "'smcp' Lowercase to Small Capitals lookup 16-1" caron.smcp
EndChar

StartChar: hungarumlaut
Encoding: 297 733 211
Width: 401
VWidth: 0
Flags: HW
LayerCount: 2
Fore
SplineSet
170.95 531 m 1
 261.45 669.5 l 1
 383.95 669.5 l 1
 261.95 531 l 1
 170.95 531 l 1
15.05 531 m 1
 105.55 669.5 l 1
 228.05 669.5 l 1
 106.05 531 l 1
 15.05 531 l 1
EndSplineSet
EndChar

StartChar: dotaccent
Encoding: 298 729 212
Width: 194
VWidth: 0
Flags: HW
LayerCount: 2
Fore
SplineSet
37.9 545 m 2
 37.9 621 l 2
 37.9 636 45.9 646 61.9 646 c 2
 133.9 646 l 2
 148.9 646 156.9 635 156.9 621 c 2
 156.9 545 l 2
 156.9 530 147.9 522 133.9 522 c 2
 61.9 522 l 2
 47.9 522 37.9 531 37.9 545 c 2
EndSplineSet
EndChar

StartChar: Aogonek
Encoding: 299 260 213
Width: 692
VWidth: 0
Flags: HW
LayerCount: 2
Fore
SplineSet
273.55 286.25 m 1
 443.8 286.25 l 1
 361.55 547.5 l 1
 273.55 286.25 l 1
34 0 m 1
 281 732 l 1
 440.25 732 l 1
 678 0 l 1
 633.582 2.33213e-09 l 1
 555.31 -59.401 588.11 -111.545 643.2 -109.156 c 1
 643.2 -185.656 l 1
 537.415 -211.455 437.683 -71.9536 577.543 5.28965e-06 c 1
 528.95 0 l 1
 476.95 162.2 l 1
 237.2 162.2 l 1
 184.4 0 l 1
 34 0 l 1
EndSplineSet
Substitution2: "'c2sc' Capitals to Small Capitals in Latin lookup 17 subtable" aogonek.smcp
EndChar

StartChar: Lcaron
Encoding: 300 317 214
Width: 539
VWidth: 0
Flags: HW
LayerCount: 2
Fore
SplineSet
262.9 705 m 1
 262.9 772 l 1
 358.9 772 l 1
 358.9 705 l 1
 348.9 571 l 1
 273.9 571 l 1
 262.9 705 l 1
60.75 142.5 m 2
 60.75 732 l 1
 200.75 732 l 1
 200.75 181 l 2
 200.75 128 233.75 129 262.75 129 c 2
 513.75 129 l 1
 513.75 0 l 1
 213.25 0 l 2
 133.496 0 60.75 29.5 60.75 142.5 c 2
EndSplineSet
Substitution2: "'c2sc' Capitals to Small Capitals in Latin lookup 17 subtable" lcaron.smcp
EndChar

StartChar: Sacute
Encoding: 301 346 215
Width: 590
VWidth: 0
Flags: HW
LayerCount: 2
Fore
SplineSet
261.006 798.467 m 1
 351.506 936.967 l 1
 474.006 936.967 l 1
 352.006 798.467 l 1
 261.006 798.467 l 1
49.5996 485.75 m 2
 49.5996 549 l 2
 49.5996 694 135.6 736.35 247.6 738 c 0
 352.85 740.2 472.8 726.15 530.6 709.05 c 1
 530.6 599 l 1
 466.6 604.65 322.4 609 286.1 609 c 0
 224.9 610.35 189.6 606.1 189.6 538 c 2
 189.6 502.25 l 2
 189.6 444.25 211.8 431.75 268.5 431.75 c 2
 384.1 431.75 l 2
 527.55 431.75 557.15 318.65 557.15 237.75 c 2
 557.15 189 l 2
 557.15 22.7998 453.6 -8 354.6 -8 c 0
 229.7 -8 147.85 -0.349609 72.1504 21.9502 c 1
 72.1504 132 l 1
 112.15 128 234.1 121 327.1 121 c 0
 369.2 121 417.15 127.95 417.15 184.05 c 2
 417.15 223.45 l 2
 417.15 265.05 404.55 291.75 351.1 291.75 c 2
 238.6 291.75 l 2
 62.0996 291.75 49.5996 422.1 49.5996 485.75 c 2
EndSplineSet
Substitution2: "'c2sc' Capitals to Small Capitals in Latin lookup 17 subtable" sacute.smcp
EndChar

StartChar: Scaron
Encoding: 302 352 216
Width: 590
VWidth: 0
Flags: HW
LayerCount: 2
Fore
SplineSet
155.431 933.967 m 1
 248.881 933.967 l 1
 311.831 873.967 l 1
 370.381 933.967 l 1
 463.931 933.967 l 1
 362.131 798.467 l 1
 258.131 798.467 l 1
 155.431 933.967 l 1
49.5996 485.75 m 2
 49.5996 549 l 2
 49.5996 694 135.6 736.35 247.6 738 c 0
 352.85 740.2 472.8 726.15 530.6 709.05 c 1
 530.6 599 l 1
 466.6 604.65 322.4 609 286.1 609 c 0
 224.9 610.35 189.6 606.1 189.6 538 c 2
 189.6 502.25 l 2
 189.6 444.25 211.8 431.75 268.5 431.75 c 2
 384.1 431.75 l 2
 527.55 431.75 557.15 318.65 557.15 237.75 c 2
 557.15 189 l 2
 557.15 22.7998 453.6 -8 354.6 -8 c 0
 229.7 -8 147.85 -0.349609 72.1504 21.9502 c 1
 72.1504 132 l 1
 112.15 128 234.1 121 327.1 121 c 0
 369.2 121 417.15 127.95 417.15 184.05 c 2
 417.15 223.45 l 2
 417.15 265.05 404.55 291.75 351.1 291.75 c 2
 238.6 291.75 l 2
 62.0996 291.75 49.5996 422.1 49.5996 485.75 c 2
EndSplineSet
Substitution2: "'c2sc' Capitals to Small Capitals in Latin lookup 17 subtable" scaron.smcp
EndChar

StartChar: Scedilla
Encoding: 303 350 217
Width: 590
VWidth: 0
Flags: HW
LayerCount: 2
Fore
SplineSet
196 -125.3 m 1
 240.2 -110.3 l 1
 268.2 -98.2998 270 -81.9004 270 -43.9004 c 1
 364.5 -43.9004 l 1
 364.5 -145.9 339.1 -185.4 252.5 -185.4 c 2
 196 -185.4 l 1
 196 -125.3 l 1
49.5996 485.75 m 2
 49.5996 549 l 2
 49.5996 694 135.6 736.35 247.6 738 c 0
 352.85 740.2 472.8 726.15 530.6 709.05 c 1
 530.6 599 l 1
 466.6 604.65 322.4 609 286.1 609 c 0
 224.9 610.35 189.6 606.1 189.6 538 c 2
 189.6 502.25 l 2
 189.6 444.25 211.8 431.75 268.5 431.75 c 2
 384.1 431.75 l 2
 527.55 431.75 557.15 318.65 557.15 237.75 c 2
 557.15 189 l 2
 557.15 22.7998 453.6 -8 354.6 -8 c 0
 229.7 -8 147.85 -0.349609 72.1504 21.9502 c 1
 72.1504 132 l 1
 112.15 128 234.1 121 327.1 121 c 0
 369.2 121 417.15 127.95 417.15 184.05 c 2
 417.15 223.45 l 2
 417.15 265.05 404.55 291.75 351.1 291.75 c 2
 238.6 291.75 l 2
 62.0996 291.75 49.5996 422.1 49.5996 485.75 c 2
EndSplineSet
Substitution2: "'c2sc' Capitals to Small Capitals in Latin lookup 17 subtable" scedilla.smcp
EndChar

StartChar: Tcaron
Encoding: 304 356 218
Width: 593
VWidth: 0
Flags: HW
LayerCount: 2
Fore
SplineSet
143 932.5 m 1
 236.45 932.5 l 1
 299.4 872.5 l 1
 357.95 932.5 l 1
 451.5 932.5 l 1
 349.7 797 l 1
 245.7 797 l 1
 143 932.5 l 1
31.25 603 m 1
 31.25 732 l 1
 572.25 732 l 1
 572.25 603 l 1
 368.75 603 l 1
 368.75 0 l 1
 228.75 0 l 1
 228.75 603 l 1
 31.25 603 l 1
EndSplineSet
Substitution2: "'c2sc' Capitals to Small Capitals in Latin lookup 17 subtable" tcaron.smcp
EndChar

StartChar: Zacute
Encoding: 305 377 219
Width: 556
VWidth: 0
Flags: HW
LayerCount: 2
Fore
SplineSet
233.25 797 m 1
 323.75 935.5 l 1
 446.25 935.5 l 1
 324.25 797 l 1
 233.25 797 l 1
26.75 0 m 1
 26.75 129 l 1
 362.25 603 l 1
 26.75 603 l 1
 26.75 732 l 1
 530.75 732 l 1
 530.75 603 l 1
 211.75 129 l 1
 530.75 129 l 1
 530.75 0 l 1
 26.75 0 l 1
EndSplineSet
Substitution2: "'c2sc' Capitals to Small Capitals in Latin lookup 17 subtable" zacute.smcp
EndChar

StartChar: Zcaron
Encoding: 306 381 220
Width: 556
VWidth: 0
Flags: HW
LayerCount: 2
Fore
SplineSet
124.5 932.5 m 1
 217.95 932.5 l 1
 280.9 872.5 l 1
 339.45 932.5 l 1
 433 932.5 l 1
 331.2 797 l 1
 227.2 797 l 1
 124.5 932.5 l 1
26.75 0 m 1
 26.75 129 l 1
 362.25 603 l 1
 26.75 603 l 1
 26.75 732 l 1
 530.75 732 l 1
 530.75 603 l 1
 211.75 129 l 1
 530.75 129 l 1
 530.75 0 l 1
 26.75 0 l 1
EndSplineSet
Substitution2: "'c2sc' Capitals to Small Capitals in Latin lookup 17 subtable" zcaron.smcp
EndChar

StartChar: Zdotaccent
Encoding: 307 379 221
Width: 556
VWidth: 0
Flags: HW
LayerCount: 2
Fore
SplineSet
219.25 820 m 2
 219.25 896 l 2
 219.25 911 227.25 921 243.25 921 c 2
 315.25 921 l 2
 330.25 921 338.25 910 338.25 896 c 2
 338.25 820 l 2
 338.25 805 329.25 797 315.25 797 c 2
 243.25 797 l 2
 229.25 797 219.25 806 219.25 820 c 2
26.75 0 m 1
 26.75 129 l 1
 362.25 603 l 1
 26.75 603 l 1
 26.75 732 l 1
 530.75 732 l 1
 530.75 603 l 1
 211.75 129 l 1
 530.75 129 l 1
 530.75 0 l 1
 26.75 0 l 1
EndSplineSet
Substitution2: "'c2sc' Capitals to Small Capitals in Latin lookup 17 subtable" zdotaccent.smcp
EndChar

StartChar: aogonek
Encoding: 308 261 222
Width: 519
VWidth: 0
Flags: HW
LayerCount: 2
Fore
SplineSet
170.1 155.2 m 2
 170.1 111.05 194 106.5 219.75 106.5 c 0
 278.3 106.5 341.65 147.6 341.65 147.6 c 1
 341.65 244.95 l 1
 213.15 235 l 2
 176.2 231.55 170.1 204.2 170.1 181 c 2
 170.1 155.2 l 2
30.0996 135.35 m 2
 30.0996 185.35 l 2
 30.0996 262.6 71.8496 331 185.65 331 c 2
 185.65 331 341.65 330 341.65 331 c 2
 341.65 331 342.65 364 341.65 365 c 1
 341.65 421.6 315.15 430.5 270.65 430.5 c 0
 224.5 430.5 91.2998 422.2 47.6504 419.05 c 1
 47.6504 505.5 l 1
 117.55 532.65 190.6 540.55 289.6 541 c 0
 403.95 541.45 481.65 501.95 481.65 370.5 c 2
 481.65 0 l 1
 456.68 -3.2053e-09 l 1
 377.337 -59.6633 410.175 -112.188 465.46 -109.79 c 1
 465.46 -186.29 l 1
 359.363 -212.165 259.355 -71.7645 401.044 -5.44505e-06 c 1
 371.1 0 l 1
 341.65 58.5 l 1
 335.8 46.9502 261.25 -7.65039 180.15 -6 c 0
 78 -3.25 30.0996 66.2998 30.0996 135.35 c 2
EndSplineSet
AlternateSubs2: "'salt' Access All Alternates in Latin lookup 4-1" aogonek.salt
Substitution2: "'smcp' Lowercase to Small Capitals lookup 16-1" aogonek.smcp
EndChar

StartChar: lcaron
Encoding: 309 318 223
Width: 358
VWidth: 0
Flags: HW
LayerCount: 2
Fore
SplineSet
250.7 714.55 m 1
 250.7 781.55 l 1
 346.7 781.55 l 1
 346.7 714.55 l 1
 336.7 580.55 l 1
 261.7 580.55 l 1
 250.7 714.55 l 1
45.7 189 m 2
 45.7 783 l 1
 185.7 783 l 1
 185.7 211 l 2
 185.7 133.9 200.25 119 231.7 107 c 1
 231.7 107 291.7 86 298.7 86 c 1
 298.7 0 l 1
 183.2 0 l 2
 88.65 0 45.7 48 45.7 189 c 2
EndSplineSet
Substitution2: "'smcp' Lowercase to Small Capitals lookup 16-1" lcaron.smcp
EndChar

StartChar: sacute
Encoding: 310 347 224
Width: 508
VWidth: 0
Flags: HW
LayerCount: 2
Fore
SplineSet
210.6 598.25 m 1
 301.1 736.75 l 1
 423.6 736.75 l 1
 301.6 598.25 l 1
 210.6 598.25 l 1
30.0996 347 m 2
 30.0996 393 l 2
 30.0996 475 65.0996 536 168.1 536 c 0
 270.15 536 410.65 532.7 451.65 509 c 1
 451.65 420.65 l 1
 211 420.65 l 2
 175.05 420.65 170.1 409.4 170.1 384.2 c 2
 170.1 360.2 l 2
 170.1 326.65 187.75 325.75 211 325.75 c 2
 337.1 325.75 l 2
 438.4 325.75 478.1 265.7 478.1 188.5 c 2
 478.1 134 l 2
 478.1 25 412.1 -5 348.1 -5 c 0
 247.4 -5 89 -0.450195 52.0996 23.9004 c 1
 52.0996 111.35 l 1
 303 111.35 l 2
 312.35 111.35 338.1 112.5 338.1 145 c 2
 338.1 169.8 l 2
 338.1 192.15 331.6 204.45 303 204.45 c 2
 179.1 204.45 l 2
 85.0996 204.45 30.0996 244 30.0996 347 c 2
EndSplineSet
Substitution2: "'smcp' Lowercase to Small Capitals lookup 16-1" sacute.smcp
EndChar

StartChar: scaron
Encoding: 311 353 225
Width: 508
VWidth: 0
Flags: HW
LayerCount: 2
Fore
SplineSet
105.6 733.75 m 1
 199.05 733.75 l 1
 262 673.75 l 1
 320.55 733.75 l 1
 414.1 733.75 l 1
 312.3 598.25 l 1
 208.3 598.25 l 1
 105.6 733.75 l 1
30.0996 347 m 2
 30.0996 393 l 2
 30.0996 475 65.0996 536 168.1 536 c 0
 270.15 536 410.65 532.7 451.65 509 c 1
 451.65 420.65 l 1
 211 420.65 l 2
 175.05 420.65 170.1 409.4 170.1 384.2 c 2
 170.1 360.2 l 2
 170.1 326.65 187.75 325.75 211 325.75 c 2
 337.1 325.75 l 2
 438.4 325.75 478.1 265.7 478.1 188.5 c 2
 478.1 134 l 2
 478.1 25 412.1 -5 348.1 -5 c 0
 247.4 -5 89 -0.450195 52.0996 23.9004 c 1
 52.0996 111.35 l 1
 303 111.35 l 2
 312.35 111.35 338.1 112.5 338.1 145 c 2
 338.1 169.8 l 2
 338.1 192.15 331.6 204.45 303 204.45 c 2
 179.1 204.45 l 2
 85.0996 204.45 30.0996 244 30.0996 347 c 2
EndSplineSet
Substitution2: "'smcp' Lowercase to Small Capitals lookup 16-1" scaron.smcp
EndChar

StartChar: scedilla
Encoding: 312 351 226
Width: 508
VWidth: 0
Flags: HW
LayerCount: 2
Fore
SplineSet
82.4502 -119.3 m 1
 126.65 -104.3 l 1
 154.65 -92.2998 156.45 -75.9004 156.45 -37.9004 c 1
 250.95 -37.9004 l 1
 250.95 -139.9 225.55 -179.4 138.95 -179.4 c 2
 82.4502 -179.4 l 1
 82.4502 -119.3 l 1
30.0996 347 m 2
 30.0996 393 l 2
 30.0996 475 65.0996 536 168.1 536 c 0
 270.15 536 410.65 532.7 451.65 509 c 1
 451.65 420.65 l 1
 211 420.65 l 2
 175.05 420.65 170.1 409.4 170.1 384.2 c 2
 170.1 360.2 l 2
 170.1 326.65 187.75 325.75 211 325.75 c 2
 337.1 325.75 l 2
 438.4 325.75 478.1 265.7 478.1 188.5 c 2
 478.1 134 l 2
 478.1 25 412.1 -5 348.1 -5 c 0
 247.4 -5 89 -0.450195 52.0996 23.9004 c 1
 52.0996 111.35 l 1
 303 111.35 l 2
 312.35 111.35 338.1 112.5 338.1 145 c 2
 338.1 169.8 l 2
 338.1 192.15 331.6 204.45 303 204.45 c 2
 179.1 204.45 l 2
 85.0996 204.45 30.0996 244 30.0996 347 c 2
EndSplineSet
Substitution2: "'smcp' Lowercase to Small Capitals lookup 16-1" scedilla.smcp
EndChar

StartChar: tcaron
Encoding: 313 357 227
Width: 413
VWidth: 0
Flags: HW
LayerCount: 2
Fore
SplineSet
294.5 800.55 m 1
 390.95 800.55 l 1
 390.95 733.55 l 1
 380.5 599.55 l 1
 305.5 599.55 l 1
 294.95 733.55 l 1
 294.5 800.55 l 1
15.05 425 m 1
 15.05 503 l 1
 100.85 532 l 1
 124.35 680 l 1
 240.85 680 l 1
 240.85 532 l 1
 359.55 532 l 1
 359.55 425 l 1
 240.85 425 l 1
 240.85 212 l 2
 240.85 133.8 258.9 117.1 286.3 106.9 c 1
 286.3 106.9 346.3 85.9 353.3 85.9 c 1
 353.3 -0.1 l 1
 231.2 -0.1 l 2
 152.55 -0.1 100.85 49 100.85 190 c 2
 100.85 425 l 1
 15.05 425 l 1
EndSplineSet
AlternateSubs2: "'salt' Access All Alternates in Latin lookup 4-1" tcaron.salt
Substitution2: "'smcp' Lowercase to Small Capitals lookup 16-1" tcaron.smcp
EndChar

StartChar: zacute
Encoding: 314 378 228
Width: 474
VWidth: 0
Flags: HW
LayerCount: 2
Fore
SplineSet
191.85 596 m 1
 282.35 734.5 l 1
 404.85 734.5 l 1
 282.85 596 l 1
 191.85 596 l 1
22.8496 413 m 1
 22.8496 531 l 1
 451.85 531 l 1
 451.85 413 l 1
 224.5 119 l 1
 451.85 119 l 1
 452.85 118 451.85 1 451.85 1 c 1
 37.8496 1 l 1
 37.8496 117.9 l 1
 276.25 413 l 1
 22.8496 413 l 1
EndSplineSet
Substitution2: "'smcp' Lowercase to Small Capitals lookup 16-1" zacute.smcp
EndChar

StartChar: zcaron
Encoding: 315 382 229
Width: 474
VWidth: 0
Flags: HW
LayerCount: 2
Fore
SplineSet
83.0996 731.5 m 1
 176.55 731.5 l 1
 239.5 671.5 l 1
 298.05 731.5 l 1
 391.6 731.5 l 1
 289.8 596 l 1
 185.8 596 l 1
 83.0996 731.5 l 1
22.8496 413 m 1
 22.8496 531 l 1
 451.85 531 l 1
 451.85 413 l 1
 224.5 119 l 1
 451.85 119 l 1
 452.85 118 451.85 1 451.85 1 c 1
 37.8496 1 l 1
 37.8496 117.9 l 1
 276.25 413 l 1
 22.8496 413 l 1
EndSplineSet
Substitution2: "'smcp' Lowercase to Small Capitals lookup 16-1" zcaron.smcp
EndChar

StartChar: zdotaccent
Encoding: 316 380 230
Width: 474
VWidth: 0
Flags: HW
LayerCount: 2
Fore
SplineSet
177.85 619 m 2
 177.85 695 l 2
 177.85 710 185.85 720 201.85 720 c 2
 273.85 720 l 2
 288.85 720 296.85 709 296.85 695 c 2
 296.85 619 l 2
 296.85 604 287.85 596 273.85 596 c 2
 201.85 596 l 2
 187.85 596 177.85 605 177.85 619 c 2
22.8496 413 m 1
 22.8496 531 l 1
 451.85 531 l 1
 451.85 413 l 1
 224.5 119 l 1
 451.85 119 l 1
 452.85 118 451.85 1 451.85 1 c 1
 37.8496 1 l 1
 37.8496 117.9 l 1
 276.25 413 l 1
 22.8496 413 l 1
EndSplineSet
Substitution2: "'smcp' Lowercase to Small Capitals lookup 16-1" zdotaccent.smcp
EndChar

StartChar: Racute
Encoding: 317 340 231
Width: 607
VWidth: 0
Flags: HW
LayerCount: 2
Fore
SplineSet
258.75 794.75 m 1
 349.25 933.25 l 1
 471.75 933.25 l 1
 349.75 794.75 l 1
 258.75 794.75 l 1
191.75 401 m 1
 357.7 401 l 2
 406.45 401 429.7 415.3 429.7 503.75 c 0
 429.7 586.9 401.7 607.5 357.7 607.5 c 2
 191.75 607.5 l 1
 191.75 401 l 1
51.2002 0 m 1
 51.2002 732 l 1
 371.45 732 l 2
 485.7 732 570.7 678.55 570.7 503.75 c 0
 570.7 322.55 494.8 301.05 454.15 288.25 c 1
 592.75 0 l 1
 435.2 0 l 1
 314.2 277 l 1
 191.2 291 l 1
 191.2 0 l 1
 51.2002 0 l 1
EndSplineSet
Substitution2: "'c2sc' Capitals to Small Capitals in Latin lookup 17 subtable" racute.smcp
EndChar

StartChar: Abreve
Encoding: 318 258 232
Width: 692
VWidth: 0
Flags: HW
LayerCount: 2
Fore
SplineSet
245.625 911 m 1
 303.625 911 l 1
 303.625 876.95 327.175 855 359.625 855 c 0
 397.625 855 417.625 876.7 417.625 911 c 1
 475.625 911 l 1
 475.625 839.4 423.425 797 359.625 797 c 0
 296.925 797 245.625 841.2 245.625 911 c 1
273.55 286.25 m 1
 443.8 286.25 l 1
 361.55 547.5 l 1
 273.55 286.25 l 1
34 0 m 1
 281 732 l 1
 440.25 732 l 1
 678 0 l 1
 528.95 0 l 1
 476.95 162.2 l 1
 237.2 162.2 l 1
 184.4 0 l 1
 34 0 l 1
EndSplineSet
Substitution2: "'c2sc' Capitals to Small Capitals in Latin lookup 17 subtable" abreve.smcp
EndChar

StartChar: Lacute
Encoding: 319 313 233
Width: 539
VWidth: 0
Flags: HW
LayerCount: 2
Fore
SplineSet
85.25 797 m 1
 175.75 935.5 l 1
 298.25 935.5 l 1
 176.25 797 l 1
 85.25 797 l 1
60.75 142.5 m 2
 60.75 732 l 1
 200.75 732 l 1
 200.75 181 l 2
 200.75 128 233.75 129 262.75 129 c 2
 513.75 129 l 1
 513.75 0 l 1
 213.25 0 l 2
 133.5 0 60.75 29.5 60.75 142.5 c 2
EndSplineSet
Substitution2: "'c2sc' Capitals to Small Capitals in Latin lookup 17 subtable" lacute.smcp
EndChar

StartChar: Cacute
Encoding: 320 262 234
Width: 571
VWidth: 0
Flags: HW
LayerCount: 2
Fore
SplineSet
286.25 800 m 1
 376.75 938.5 l 1
 499.25 938.5 l 1
 377.25 800 l 1
 286.25 800 l 1
41.7998 368 m 0
 41.7998 602 91.75 740 290.75 740 c 0
 393.35 740 466.95 730.2 545.75 706.75 c 1
 545.75 597.15 l 1
 544.75 597.15 421.8 611 323.75 611 c 0
 221.3 611 181.8 587.55 181.8 366 c 0
 181.8 202 208.9 123 324.3 123 c 0
 429.3 123 545.75 131.1 545.75 131.1 c 1
 545.75 21.5 l 1
 480.15 1.34961 395.55 -7.65039 290.75 -6 c 0
 105.75 -4.34961 41.7998 135.95 41.7998 368 c 0
EndSplineSet
Substitution2: "'c2sc' Capitals to Small Capitals in Latin lookup 17 subtable" cacute.smcp
EndChar

StartChar: Ccaron
Encoding: 321 268 235
Width: 571
VWidth: 0
Flags: HW
LayerCount: 2
Fore
SplineSet
184.15 935.5 m 1
 277.6 935.5 l 1
 340.55 875.5 l 1
 399.1 935.5 l 1
 492.65 935.5 l 1
 390.85 800 l 1
 286.85 800 l 1
 184.15 935.5 l 1
41.7998 368 m 0
 41.7998 602 91.75 740 290.75 740 c 0
 393.35 740 466.95 730.2 545.75 706.75 c 1
 545.75 597.15 l 1
 544.75 597.15 421.8 611 323.75 611 c 0
 221.3 611 181.8 587.55 181.8 366 c 0
 181.8 202 208.9 123 324.3 123 c 0
 429.3 123 545.75 131.1 545.75 131.1 c 1
 545.75 21.5 l 1
 480.15 1.34961 395.55 -7.65039 290.75 -6 c 0
 105.75 -4.34961 41.7998 135.95 41.7998 368 c 0
EndSplineSet
Substitution2: "'c2sc' Capitals to Small Capitals in Latin lookup 17 subtable" ccaron.smcp
EndChar

StartChar: Eogonek
Encoding: 322 280 236
Width: 567
VWidth: 0
Flags: HW
LayerCount: 2
Fore
SplineSet
58 143.9 m 2
 58 580 l 2
 58 707.025 147.965 733.35 217 732 c 1
 217 732 474.7 724.8 539.05 716 c 1
 539.05 600.25 l 1
 250 600.25 l 2
 198 600.25 198 571.25 198 544.25 c 2
 198 430.05 l 1
 493.55 419.5 l 1
 493.55 304.4 l 1
 198 294.95 l 1
 198 180.75 l 2
 198.45 127.75 231 128.75 260 128.75 c 2
 539.05 128.75 l 1
 539.05 14 l 2
 538.847 13.9725 538.642 13.9449 538.435 13.9174 c 0
 459.424 -45.665 492.25 -98.0707 547.475 -95.6768 c 1
 547.475 -172.177 l 1
 444.088 -197.39 346.482 -64.7124 472.673 8.48526 c 1
 377.089 2.46513 227 -3 227 -3 c 1
 161.715 -5.90039 58 8.90039 58 143.9 c 2
EndSplineSet
Substitution2: "'c2sc' Capitals to Small Capitals in Latin lookup 17 subtable" eogonek.smcp
EndChar

StartChar: Ecaron
Encoding: 323 282 237
Width: 567
VWidth: 0
Flags: HW
LayerCount: 2
Fore
SplineSet
165.15 930.25 m 1
 258.6 930.25 l 1
 321.55 870.25 l 1
 380.1 930.25 l 1
 473.65 930.25 l 1
 371.85 794.75 l 1
 267.85 794.75 l 1
 165.15 930.25 l 1
58 143.9 m 2
 58 580 l 2
 58 707.025 147.965 733.35 217 732 c 1
 217 732 474.7 724.8 539.05 716 c 1
 539.05 600.25 l 1
 250 600.25 l 2
 198 600.25 198 571.25 198 544.25 c 2
 198 430.05 l 1
 493.55 419.5 l 1
 493.55 304.4 l 1
 198 294.95 l 1
 198 180.75 l 2
 198.45 127.75 231 128.75 260 128.75 c 2
 539.05 128.75 l 1
 539.05 14 l 1
 482.4 6.2998 227 -3 227 -3 c 2
 161.715 -5.90039 58 8.90039 58 143.9 c 2
EndSplineSet
Substitution2: "'c2sc' Capitals to Small Capitals in Latin lookup 17 subtable" ecaron.smcp
EndChar

StartChar: Dcaron
Encoding: 324 270 238
Width: 662
VWidth: 0
Flags: HW
LayerCount: 2
Fore
SplineSet
163.75 930.25 m 1
 257.2 930.25 l 1
 320.15 870.25 l 1
 378.7 930.25 l 1
 472.25 930.25 l 1
 370.45 794.75 l 1
 266.45 794.75 l 1
 163.75 930.25 l 1
200.75 124.85 m 1
 360.8 124.85 l 2
 451.55 124.85 485.75 217.15 485.75 364 c 0
 485.75 559.85 438.85 608.5 360.8 608.5 c 2
 200.75 608.5 l 1
 200.75 124.85 l 1
60.75 0 m 1
 60.75 732 l 1
 371.8 732 l 2
 582.5 732 625.75 544.35 625.75 363 c 0
 625.75 147.5 550.5 0 371.8 0 c 2
 60.75 0 l 1
EndSplineSet
Substitution2: "'c2sc' Capitals to Small Capitals in Latin lookup 17 subtable" dcaron.smcp
EndChar

StartChar: Nacute
Encoding: 325 323 239
Width: 678
VWidth: 0
Flags: HW
LayerCount: 2
Fore
SplineSet
305.975 797 m 1
 396.475 935.5 l 1
 518.975 935.5 l 1
 396.975 797 l 1
 305.975 797 l 1
60.75 0 m 1
 60.75 732 l 1
 202.75 732 l 1
 493.2 259 l 1
 493.2 732 l 1
 633.2 732 l 1
 633.2 0 l 1
 493.2 0 l 1
 201.75 467.5 l 1
 201.75 0 l 1
 60.75 0 l 1
EndSplineSet
AlternateSubs2: "'salt' Access All Alternates in Latin lookup 4-1" Nacute.salt
Substitution2: "'c2sc' Capitals to Small Capitals in Latin lookup 17 subtable" nacute.smcp
EndChar

StartChar: Ncaron
Encoding: 326 327 240
Width: 678
VWidth: 0
Flags: HW
LayerCount: 2
Fore
SplineSet
197.225 932.5 m 1
 290.675 932.5 l 1
 353.625 872.5 l 1
 412.175 932.5 l 1
 505.725 932.5 l 1
 403.925 797 l 1
 299.925 797 l 1
 197.225 932.5 l 1
60.75 0 m 1
 60.75 732 l 1
 202.75 732 l 1
 493.2 259 l 1
 493.2 732 l 1
 633.2 732 l 1
 633.2 0 l 1
 493.2 0 l 1
 201.75 467.5 l 1
 201.75 0 l 1
 60.75 0 l 1
EndSplineSet
AlternateSubs2: "'salt' Access All Alternates in Latin lookup 4-1" Ncaron.salt
Substitution2: "'c2sc' Capitals to Small Capitals in Latin lookup 17 subtable" ncaron.smcp
EndChar

StartChar: Ohungarumlaut
Encoding: 327 336 241
Width: 671
VWidth: 0
Flags: HW
LayerCount: 2
Fore
SplineSet
376.5 797 m 1
 467 935.5 l 1
 589.5 935.5 l 1
 467.5 797 l 1
 376.5 797 l 1
220.6 797 m 1
 311.1 935.5 l 1
 433.6 935.5 l 1
 311.6 797 l 1
 220.6 797 l 1
189.6 361 m 0
 189.6 161.2 219.05 125 344.05 125 c 0
 461.55 125 497.6 163.7 497.6 361 c 0
 497.6 589.05 455.3 608 344.05 608 c 0
 235.8 608 189.6 594 189.6 361 c 0
49.5996 361 m 0
 49.5996 704 176.05 737 344.05 737 c 0
 517.05 737 637.6 704 637.6 361 c 0
 637.6 38 524.05 -4 344.05 -4 c 0
 164.05 -4 49.5996 28 49.5996 361 c 0
EndSplineSet
Substitution2: "'c2sc' Capitals to Small Capitals in Latin lookup 17 subtable" ohungarumlaut.smcp
EndChar

StartChar: Rcaron
Encoding: 328 344 242
Width: 607
VWidth: 0
Flags: HW
LayerCount: 2
Fore
SplineSet
150.9 932.5 m 1
 244.35 932.5 l 1
 307.3 872.5 l 1
 365.85 932.5 l 1
 459.4 932.5 l 1
 357.6 797 l 1
 253.6 797 l 1
 150.9 932.5 l 1
191.75 401 m 1
 357.7 401 l 2
 406.45 401 429.7 415.3 429.7 503.75 c 0
 429.7 586.9 401.7 607.5 357.7 607.5 c 2
 191.75 607.5 l 1
 191.75 401 l 1
51.2002 0 m 1
 51.2002 732 l 1
 371.45 732 l 2
 485.7 732 570.7 678.55 570.7 503.75 c 0
 570.7 322.55 494.8 301.05 454.15 288.25 c 1
 592.75 0 l 1
 435.2 0 l 1
 314.2 277 l 1
 191.2 291 l 1
 191.2 0 l 1
 51.2002 0 l 1
EndSplineSet
Substitution2: "'c2sc' Capitals to Small Capitals in Latin lookup 17 subtable" rcaron.smcp
EndChar

StartChar: Uring
Encoding: 329 366 243
Width: 664
VWidth: 0
Flags: HW
LayerCount: 2
Fore
SplineSet
297.3 899 m 0
 297.3 875.05 316.8 856.55 340.75 856.55 c 0
 364.7 856.55 383.2 875.05 383.2 899 c 0
 383.2 922.95 364.7 942.45 340.75 942.45 c 0
 316.8 942.45 297.3 922.95 297.3 899 c 0
238.75 899 m 0
 238.75 956 284.75 1002 340.75 1002 c 0
 396.75 1002 441.75 956 441.75 899 c 0
 441.75 842 396.75 797 340.75 797 c 0
 284.75 797 238.75 842 238.75 899 c 0
60.75 320 m 2
 60.75 732 l 1
 200.75 732 l 1
 200.75 320 l 2
 200.75 152.65 237.85 124 342.75 124 c 0
 436.25 124 478.75 158.45 478.75 320 c 2
 478.75 732 l 1
 619.75 732 l 1
 619.75 320 l 2
 619.75 -3 463.75 -5 342.75 -5 c 0
 206.75 -5 60.75 -13 60.75 320 c 2
EndSplineSet
Substitution2: "'c2sc' Capitals to Small Capitals in Latin lookup 17 subtable" uring.smcp
EndChar

StartChar: Uhungarumlaut
Encoding: 330 368 244
Width: 664
VWidth: 0
Flags: HW
LayerCount: 2
Fore
SplineSet
372.7 797 m 1
 463.2 935.5 l 1
 585.7 935.5 l 1
 463.7 797 l 1
 372.7 797 l 1
216.8 797 m 1
 307.3 935.5 l 1
 429.8 935.5 l 1
 307.8 797 l 1
 216.8 797 l 1
60.75 320 m 2
 60.75 732 l 1
 200.75 732 l 1
 200.75 320 l 2
 200.75 152.65 237.85 124 342.75 124 c 0
 436.25 124 478.75 158.45 478.75 320 c 2
 478.75 732 l 1
 619.75 732 l 1
 619.75 320 l 2
 619.75 -3 463.75 -5 342.75 -5 c 0
 206.75 -5 60.75 -13 60.75 320 c 2
EndSplineSet
Substitution2: "'c2sc' Capitals to Small Capitals in Latin lookup 17 subtable" uhungarumlaut.smcp
EndChar

StartChar: Tcommaaccent
Encoding: 331 354 245
Width: 593
VWidth: 0
Flags: HW
LayerCount: 2
Fore
SplineSet
94.5996 -123.8 m 1
 138.8 -108.8 l 1
 166.8 -96.7998 168.6 -80.4004 168.6 -42.4004 c 1
 263.1 -42.4004 l 1
 263.1 -144.4 237.7 -183.9 151.1 -183.9 c 2
 94.5996 -183.9 l 1
 94.5996 -123.8 l 1
31.25 603 m 1
 31.25 732 l 1
 572.25 732 l 1
 572.25 603 l 1
 368.75 603 l 1
 368.75 0 l 1
 228.75 0 l 1
 228.75 603 l 1
 31.25 603 l 1
EndSplineSet
Substitution2: "'c2sc' Capitals to Small Capitals in Latin lookup 17 subtable" tcommaaccent.smcp
EndChar

StartChar: racute
Encoding: 332 341 246
Width: 417
VWidth: 0
Flags: HW
LayerCount: 2
Fore
SplineSet
184.725 596.9 m 1
 275.225 735.4 l 1
 397.725 735.4 l 1
 275.725 596.9 l 1
 184.725 596.9 l 1
45.7002 0 m 1
 45.7002 531 l 1
 163.7 531 l 1
 185.7 464 l 1
 222.5 499.55 272 536.45 338.05 536.45 c 0
 361 536.45 383 535.55 397.2 530.1 c 1
 397.2 394.95 l 1
 383 396.3 350.55 397.65 320.45 397.65 c 0
 262.45 397.65 220.35 388.2 185.7 338.55 c 1
 185.7 0 l 1
 45.7002 0 l 1
EndSplineSet
AlternateSubs2: "'salt' Access All Alternates in Latin lookup 4-1" racute.salt
Substitution2: "'smcp' Lowercase to Small Capitals lookup 16-1" racute.smcp
EndChar

StartChar: abreve
Encoding: 333 259 247
Width: 519
VWidth: 0
Flags: HW
LayerCount: 2
Fore
SplineSet
155.25 715 m 1
 213.25 715 l 1
 213.25 680.95 236.8 659 269.25 659 c 0
 307.25 659 327.25 680.7 327.25 715 c 1
 385.25 715 l 1
 385.25 643.4 333.05 601 269.25 601 c 0
 206.55 601 155.25 645.2 155.25 715 c 1
170.1 155.2 m 2
 170.1 111.05 194 106.5 219.75 106.5 c 0
 278.3 106.5 341.65 147.6 341.65 147.6 c 1
 341.65 244.95 l 1
 213.15 235 l 2
 176.2 231.55 170.1 204.2 170.1 181 c 2
 170.1 155.2 l 2
30.0996 135.35 m 2
 30.0996 185.35 l 2
 30.0996 262.6 71.8496 331 185.65 331 c 2
 185.65 331 341.65 330 341.65 331 c 2
 341.65 331 342.65 364 341.65 365 c 1
 341.65 421.6 315.15 430.5 270.65 430.5 c 0
 224.5 430.5 91.2998 422.2 47.6504 419.05 c 1
 47.6504 505.5 l 1
 117.55 532.65 190.6 540.55 289.6 541 c 0
 403.95 541.45 481.65 501.95 481.65 370.5 c 2
 481.65 0 l 1
 371.1 0 l 1
 341.65 58.5 l 1
 335.8 46.9502 261.25 -7.65039 180.15 -6 c 0
 78 -3.25 30.0996 66.2998 30.0996 135.35 c 2
EndSplineSet
Substitution2: "'smcp' Lowercase to Small Capitals lookup 16-1" abreve.smcp
EndChar

StartChar: lacute
Encoding: 334 314 248
Width: 313
VWidth: 0
Flags: HW
LayerCount: 2
Fore
SplineSet
84.375 843 m 1
 174.875 981.5 l 1
 297.375 981.5 l 1
 175.375 843 l 1
 84.375 843 l 1
45.7002 189 m 2
 45.7002 783 l 1
 185.7 783 l 1
 185.7 211 l 2
 185.7 133.9 204.3 117.2 231.7 107 c 1
 231.7 107 291.7 86 298.7 86 c 1
 298.7 0 l 1
 183.2 0 l 2
 96.2998 0 45.7002 48 45.7002 189 c 2
EndSplineSet
Substitution2: "'smcp' Lowercase to Small Capitals lookup 16-1" lacute.smcp
EndChar

StartChar: cacute
Encoding: 335 263 249
Width: 494
VWidth: 0
Flags: HW
LayerCount: 2
Fore
SplineSet
228.873 597.006 m 1
 319.373 735.506 l 1
 441.873 735.506 l 1
 319.873 597.006 l 1
 228.873 597.006 l 1
37.9004 266 m 0
 37.9004 484.8 110.9 536 212.9 536 c 0
 264.9 536 369.8 532.9 457.4 504.5 c 1
 457.4 417.5 l 1
 457.4 417.5 361.85 423.5 272.85 423.5 c 0
 208.45 423.5 177.9 419.65 177.9 263.1 c 0
 177.9 127.15 200.85 107.5 272.85 107.5 c 0
 364.85 107.5 464.4 116.85 464.4 116.85 c 1
 464.4 28.9502 l 1
 386.7 -10.5498 295.9 -4 212.9 -5 c 1
 113.9 -5 37.9004 46.75 37.9004 266 c 0
EndSplineSet
Substitution2: "'smcp' Lowercase to Small Capitals lookup 16-1" cacute.smcp
EndChar

StartChar: ccaron
Encoding: 336 269 250
Width: 494
VWidth: 0
Flags: HW
LayerCount: 2
Fore
SplineSet
116.599 732.506 m 1
 210.048 732.506 l 1
 272.998 672.506 l 1
 331.548 732.506 l 1
 425.099 732.506 l 1
 323.298 597.006 l 1
 219.298 597.006 l 1
 116.599 732.506 l 1
37.9004 266 m 0
 37.9004 484.8 110.9 536 212.9 536 c 0
 264.9 536 369.8 532.9 457.4 504.5 c 1
 457.4 417.5 l 1
 457.4 417.5 361.85 423.5 272.85 423.5 c 0
 208.45 423.5 177.9 419.65 177.9 263.1 c 0
 177.9 127.15 200.85 107.5 272.85 107.5 c 0
 364.85 107.5 464.4 116.85 464.4 116.85 c 1
 464.4 28.9502 l 1
 386.7 -10.5498 295.9 -4 212.9 -5 c 1
 113.9 -5 37.9004 46.75 37.9004 266 c 0
EndSplineSet
Substitution2: "'smcp' Lowercase to Small Capitals lookup 16-1" ccaron.smcp
EndChar

StartChar: eogonek
Encoding: 337 281 251
Width: 525
VWidth: 0
Flags: HW
LayerCount: 2
Fore
SplineSet
177.9 309 m 1
 310.6 309 l 2
 339.75 309 354.9 323.35 354.9 348.65 c 0
 354.9 415.7 345.35 428 278.05 428 c 0
 204.1 428 176.8 423.7 177.9 309 c 1
37.9004 268 m 0
 37.9004 496.2 101.5 535 269.9 535 c 0
 423.5 535 494.9 517.5 494.9 341.5 c 0
 494.9 246.9 442.9 208.5 346.9 208.5 c 2
 177.9 208.5 l 1
 177.9 112.65 214.1 106.95 289.9 106.95 c 0
 370.9 106.95 409.9 106.5 484.9 117.5 c 1
 484.9 23 l 1
 405.2 -36.75 438.05 -89.4004 493.4 -87 c 1
 493.4 -163.5 l 1
 396.34 -187.171 304.375 -71.6849 397.895 3.10421 c 1
 336.168 -4.97825 267.753 -5 212.9 -5 c 0
 77.9004 -5 37.9004 73.2002 37.9004 268 c 0
EndSplineSet
Substitution2: "'smcp' Lowercase to Small Capitals lookup 16-1" eogonek.smcp
EndChar

StartChar: ecaron
Encoding: 338 283 252
Width: 525
VWidth: 0
Flags: HW
LayerCount: 2
Fore
SplineSet
121.2 729.25 m 1
 214.65 729.25 l 1
 277.6 669.25 l 1
 336.15 729.25 l 1
 429.7 729.25 l 1
 327.9 593.75 l 1
 223.9 593.75 l 1
 121.2 729.25 l 1
177.9 309 m 1
 310.6 309 l 2
 339.75 309 354.9 323.35 354.9 348.65 c 0
 354.9 415.7 345.35 428 278.05 428 c 0
 204.1 428 176.8 423.7 177.9 309 c 1
37.9004 268 m 0
 37.9004 496.2 101.5 535 269.9 535 c 0
 423.5 535 494.9 517.5 494.9 341.5 c 0
 494.9 246.9 442.9 208.5 346.9 208.5 c 2
 177.9 208.5 l 1
 177.9 112.65 214.1 106.95 289.9 106.95 c 0
 370.9 106.95 409.9 106.5 484.9 117.5 c 1
 484.9 23 l 1
 409.95 -4.9502 295.9 -5 212.9 -5 c 0
 77.9004 -5 37.9004 73.2002 37.9004 268 c 0
EndSplineSet
Substitution2: "'smcp' Lowercase to Small Capitals lookup 16-1" ecaron.smcp
EndChar

StartChar: dcaron
Encoding: 339 271 253
Width: 607
VWidth: 0
Flags: HW
LayerCount: 2
Fore
SplineSet
562.45 781.1 m 1
 658.9 781.1 l 1
 658.9 714.1 l 1
 648.45 580.1 l 1
 572.9 580.1 l 1
 562.9 714.1 l 1
 562.45 781.1 l 1
177.9 268.5 m 0
 177.9 150.05 202.35 113.65 247.55 113.65 c 0
 300.15 113.65 342.25 127.2 372.05 146.45 c 1
 372.05 409.3 l 1
 335.5 423.45 295.95 429.25 247.55 429.25 c 0
 203.35 429.25 177.9 404 177.9 268.5 c 0
37.9 263 m 0
 37.9 432.55 64.1 539 211.25 539 c 0
 256.25 539 323.45 526.65 372.05 504.5 c 1
 372.05 785 l 1
 511.6 785 l 1
 511.6 0 l 1
 396.45 0 l 1
 372.05 53.5 l 1
 338.9 26.8 274.3 -6 211.25 -6 c 0
 80.55 -6 37.9 97.55 37.9 263 c 0
EndSplineSet
AlternateSubs2: "'salt' Access All Alternates in Latin lookup 4-1" dcaron.salt
Substitution2: "'smcp' Lowercase to Small Capitals lookup 16-1" dcaron.smcp
EndChar

StartChar: nacute
Encoding: 340 324 254
Width: 550
VWidth: 0
Flags: HW
LayerCount: 2
Fore
SplineSet
232.125 600 m 1
 322.625 738.5 l 1
 445.125 738.5 l 1
 323.125 600 l 1
 232.125 600 l 1
45.7002 0 m 1
 45.7002 531 l 1
 158.2 531 l 1
 185.7 474.5 l 1
 231.3 507.3 273.2 540 354.2 540 c 0
 477.8 540 512.7 454.7 512.7 353.5 c 2
 512.7 0 l 1
 372.7 0 l 1
 372.7 355.7 l 2
 372.7 408.5 349.1 427.5 314.05 427.5 c 0
 257.7 427.5 226.95 413 185.7 381.5 c 1
 185.7 0 l 1
 45.7002 0 l 1
EndSplineSet
AlternateSubs2: "'salt' Access All Alternates in Latin lookup 4-1" nacute.salt
Substitution2: "'smcp' Lowercase to Small Capitals lookup 16-1" nacute.smcp
EndChar

StartChar: ncaron
Encoding: 341 328 255
Width: 550
VWidth: 0
Flags: HW
LayerCount: 2
Fore
SplineSet
129.9 735.5 m 1
 223.35 735.5 l 1
 286.3 675.5 l 1
 344.85 735.5 l 1
 438.4 735.5 l 1
 336.6 600 l 1
 232.6 600 l 1
 129.9 735.5 l 1
45.7002 0 m 1
 45.7002 531 l 1
 158.2 531 l 1
 185.7 474.5 l 1
 231.3 507.3 273.2 540 354.2 540 c 0
 477.8 540 512.7 454.7 512.7 353.5 c 2
 512.7 0 l 1
 372.7 0 l 1
 372.7 355.7 l 2
 372.7 408.5 349.1 427.5 314.05 427.5 c 0
 257.7 427.5 226.95 413 185.7 381.5 c 1
 185.7 0 l 1
 45.7002 0 l 1
EndSplineSet
AlternateSubs2: "'salt' Access All Alternates in Latin lookup 4-1" ncaron.salt
Substitution2: "'smcp' Lowercase to Small Capitals lookup 16-1" ncaron.smcp
EndChar

StartChar: ohungarumlaut
Encoding: 342 337 256
Width: 560
VWidth: 0
Flags: HW
LayerCount: 2
Fore
SplineSet
312.6 596 m 1
 403.1 734.5 l 1
 525.6 734.5 l 1
 403.6 596 l 1
 312.6 596 l 1
156.7 596 m 1
 247.2 734.5 l 1
 369.7 734.5 l 1
 247.7 596 l 1
 156.7 596 l 1
177.9 258 m 0
 177.9 120.6 205.75 107.5 280.15 107.5 c 0
 359 107.5 382.4 118.2 382.4 258 c 0
 382.4 406.75 363.6 423.5 280.15 423.5 c 0
 197.3 423.5 177.9 406.65 177.9 258 c 0
37.9004 258 m 0
 37.9004 475 100.65 536 280.15 536 c 0
 463 536 522.4 469 522.4 258 c 0
 522.4 61 465.75 -5 280.15 -5 c 0
 96.75 -5 37.9004 68 37.9004 258 c 0
EndSplineSet
Substitution2: "'smcp' Lowercase to Small Capitals lookup 16-1" ohungarumlaut.smcp
EndChar

StartChar: rcaron
Encoding: 343 345 257
Width: 417
VWidth: 0
Flags: HW
LayerCount: 2
Fore
SplineSet
67.2002 731.95 m 1
 160.65 731.95 l 1
 223.6 671.95 l 1
 282.15 731.95 l 1
 375.7 731.95 l 1
 273.9 596.45 l 1
 169.9 596.45 l 1
 67.2002 731.95 l 1
45.7002 0 m 1
 45.7002 531 l 1
 163.7 531 l 1
 185.7 464 l 1
 222.5 499.55 272 536.45 338.05 536.45 c 0
 361 536.45 383 535.55 397.2 530.1 c 1
 397.2 394.95 l 1
 383 396.3 350.55 397.65 320.45 397.65 c 0
 262.45 397.65 220.35 388.2 185.7 338.55 c 1
 185.7 0 l 1
 45.7002 0 l 1
EndSplineSet
AlternateSubs2: "'salt' Access All Alternates in Latin lookup 4-1" rcaron.salt
Substitution2: "'smcp' Lowercase to Small Capitals lookup 16-1" rcaron.smcp
EndChar

StartChar: uring
Encoding: 344 367 258
Width: 550
VWidth: 0
Flags: HW
LayerCount: 2
Fore
SplineSet
228.45 698 m 0
 228.45 674.05 247.95 655.55 271.9 655.55 c 0
 295.85 655.55 314.35 674.05 314.35 698 c 0
 314.35 721.95 295.85 741.45 271.9 741.45 c 0
 247.95 741.45 228.45 721.95 228.45 698 c 0
169.9 698 m 0
 169.9 755 215.9 801 271.9 801 c 0
 327.9 801 372.9 755 372.9 698 c 0
 372.9 641 327.9 596 271.9 596 c 0
 215.9 596 169.9 641 169.9 698 c 0
37.9004 177.5 m 2
 37.9004 531 l 1
 177.9 531 l 1
 177.9 175.3 l 2
 177.9 122.5 201.5 103.5 236.55 103.5 c 0
 292.9 103.5 323.65 118 364.9 149.5 c 1
 364.9 531 l 1
 504.9 531 l 1
 504.9 0 l 1
 392.4 0 l 1
 364.9 56.5 l 1
 312.15 24.7998 277.4 -9 196.4 -9 c 0
 72.7998 -9 37.9004 76.2998 37.9004 177.5 c 2
EndSplineSet
AlternateSubs2: "'salt' Access All Alternates in Latin lookup 4-1" uring.salt
Substitution2: "'smcp' Lowercase to Small Capitals lookup 16-1" uring.smcp
EndChar

StartChar: uhungarumlaut
Encoding: 345 369 259
Width: 550
VWidth: 0
Flags: HW
LayerCount: 2
Fore
SplineSet
303.85 596 m 1
 394.35 734.5 l 1
 516.85 734.5 l 1
 394.85 596 l 1
 303.85 596 l 1
147.95 596 m 1
 238.45 734.5 l 1
 360.95 734.5 l 1
 238.95 596 l 1
 147.95 596 l 1
37.9004 177.5 m 2
 37.9004 531 l 1
 177.9 531 l 1
 177.9 175.3 l 2
 177.9 122.5 201.5 103.5 236.55 103.5 c 0
 292.9 103.5 323.65 118 364.9 149.5 c 1
 364.9 531 l 1
 504.9 531 l 1
 504.9 0 l 1
 392.4 0 l 1
 364.9 56.5 l 1
 312.15 24.7998 277.4 -9 196.4 -9 c 0
 72.7998 -9 37.9004 76.2998 37.9004 177.5 c 2
EndSplineSet
AlternateSubs2: "'salt' Access All Alternates in Latin lookup 4-1" uhungarumlaut.salt
Substitution2: "'smcp' Lowercase to Small Capitals lookup 16-1" uhungarumlaut.smcp
EndChar

StartChar: tcommaaccent
Encoding: 346 355 260
Width: 381
VWidth: 0
Flags: HW
LayerCount: 2
Fore
SplineSet
56.7998 -124.7 m 1
 101 -109.7 l 1
 129 -97.7002 130.8 -81.2998 130.8 -43.2998 c 1
 225.3 -43.2998 l 1
 225.3 -145.3 199.9 -184.8 113.3 -184.8 c 2
 56.7998 -184.8 l 1
 56.7998 -124.7 l 1
15.0498 425 m 1
 15.0498 503 l 1
 100.85 532 l 1
 124.35 680 l 1
 240.85 680 l 1
 240.85 532 l 1
 359.55 532 l 1
 359.55 425 l 1
 240.85 425 l 1
 240.85 212 l 2
 240.85 133.8 258.9 117.1 286.3 106.9 c 1
 286.3 106.9 346.3 85.9004 353.3 85.9004 c 1
 353.3 -0.0996094 l 1
 231.2 -0.0996094 l 2
 152.55 -0.0996094 100.85 49 100.85 190 c 2
 100.85 425 l 1
 15.0498 425 l 1
EndSplineSet
AlternateSubs2: "'salt' Access All Alternates in Latin lookup 4-1" tcommaaccent.salt
Substitution2: "'smcp' Lowercase to Small Capitals lookup 16-1" tcommaaccent.smcp
EndChar

StartChar: Lslash
Encoding: 347 321 261
Width: 570
VWidth: 0
Flags: HW
LayerCount: 2
Fore
SplineSet
14.05 305.15 m 1
 14.05 377.15 l 1
 92.1 410.4 l 1
 92.1 732 l 1
 232.1 732 l 1
 232.1 470.45 l 1
 344.6 518.35 l 1
 344.15 446.8 l 1
 232.1 398.45 l 1
 232.1 181 l 2
 232.1 128 265.1 129 294.1 129 c 2
 545.1 129 l 1
 545.1 0 l 1
 244.6 0 l 2
 164.846 0 92.1 29.5 92.1 142.5 c 2
 92.1 338.4 l 1
 14.05 305.15 l 1
EndSplineSet
Substitution2: "'c2sc' Capitals to Small Capitals in Latin lookup 17 subtable" lslash.smcp
EndChar

StartChar: uni00AD
Encoding: 173 173 262
Width: 354
VWidth: 0
Flags: HW
LayerCount: 2
Fore
SplineSet
20 231 m 1
 20 349 l 1
 334 349 l 1
 334 231 l 1
 20 231 l 1
EndSplineSet
Substitution2: "'case' Case-Sensitive Forms lookup 1-1" uni00AD.alt
Substitution2: "'c2sc' Capitals to Small Capitals in Latin lookup 17 subtable" uni00AD.smcp
Substitution2: "'smcp' Lowercase to Small Capitals lookup 16-1" uni00AD.smcp
EndChar

StartChar: lslash
Encoding: 348 322 263
Width: 357
VWidth: 0
Flags: HW
LayerCount: 2
Fore
SplineSet
10.55 350.3 m 1
 10.55 422.3 l 1
 85.6 454.1 l 1
 85.6 783 l 1
 225.6 783 l 1
 225.6 513.6 l 1
 341.1 563.5 l 1
 340.65 491.95 l 1
 225.6 442.05 l 1
 225.6 211 l 2
 225.6 133.9 244.2 117.2 271.6 107 c 1
 271.6 107 331.6 86 338.6 86 c 1
 338.6 0 l 1
 223.1 0 l 2
 136.2 0 85.6 48 85.6 189 c 2
 85.6 382.55 l 1
 10.55 350.3 l 1
EndSplineSet
Substitution2: "'smcp' Lowercase to Small Capitals lookup 16-1" lslash.smcp
EndChar

StartChar: Dcroat
Encoding: 349 272 264
Width: 662
VWidth: 0
Flags: HW
LayerCount: 2
Fore
SplineSet
200.75 124.85 m 1
 361.25 124.85 l 2
 452 124.85 484.4 217.15 484.4 364 c 0
 484.4 558.05 435.7 606.25 361.25 606.25 c 2
 200.75 605.8 l 1
 200.75 405.5 l 1
 312.25 405.5 l 1
 312.25 340.5 l 1
 200.75 340.5 l 1
 200.75 124.85 l 1
-4.25 340.5 m 1
 -4.25 405.5 l 1
 60.75 405.5 l 1
 60.75 731.55 l 2
 60.75 732 345.25 732 372.25 732 c 0
 582.95 732 625.75 544.35 625.75 363 c 0
 625.75 147.5 550.95 0 372.25 0 c 2
 60.75 0 l 1
 60.75 340.5 l 1
 -4.25 340.5 l 1
EndSplineSet
Substitution2: "'c2sc' Capitals to Small Capitals in Latin lookup 17 subtable" dcroat.smcp
EndChar

StartChar: dcroat
Encoding: 350 273 265
Width: 563
VWidth: 0
Flags: HW
LayerCount: 2
Fore
SplineSet
174.6 268.5 m 0
 174.6 150.05 199.05 113.65 244.25 113.65 c 0
 296.85 113.65 338.95 127.2 368.75 146.45 c 1
 368.75 409.3 l 1
 332.2 423.45 292.65 429.25 244.25 429.25 c 0
 200.05 429.25 174.6 404 174.6 268.5 c 0
34.6 263 m 0
 34.6 432.55 60.8 539 207.95 539 c 0
 252.95 539 320.15 526.65 368.75 504.5 c 1
 368.75 605 l 1
 262.15 605 l 1
 262.15 670 l 1
 368.75 670 l 1
 368.75 785 l 1
 508.3 785 l 1
 508.3 670 l 1
 573.7 670 l 1
 573.7 605 l 1
 508.3 605 l 1
 508.3 0 l 1
 393.15 0 l 1
 368.75 53.5 l 1
 335.6 26.8 271 -6 207.95 -6 c 0
 77.25 -6 34.6 97.55 34.6 263 c 0
EndSplineSet
AlternateSubs2: "'salt' Access All Alternates in Latin lookup 4-1" dcroat.salt
Substitution2: "'smcp' Lowercase to Small Capitals lookup 16-1" dcroat.smcp
EndChar

StartChar: questiondown.alt
Encoding: 351 -1 266
Width: 542
VWidth: 0
Flags: HW
LayerCount: 2
Fore
SplineSet
247.8 618.9 m 2
 247.8 708.9 l 2
 247.8 725.55 257.35 731.9 271.35 731.9 c 2
 358.8 731.9 l 2
 372.8 731.9 382.8 722.9 382.8 708.9 c 2
 382.8 618.9 l 2
 382.8 603.9 374.8 593.9 358.8 593.9 c 2
 271.35 593.9 l 2
 254.7 593.9 247.8 603.8 247.8 618.9 c 2
30.1 188.9 m 2
 30.1 262.4 l 2
 30.1 397.4 105.1 459.65 257.15 446.9 c 1
 257.15 448.25 258.05 534.2 257.15 536.9 c 1
 370.1 536.9 l 1
 370.1 341.9 l 1
 344 342.35 281.7 342.8 255.6 341.9 c 0
 206.6 339.9 169.65 319.5 169.65 260.2 c 2
 169.65 206.5 l 2
 169.65 147.2 203.6 122.45 278.6 122.45 c 2
 528.15 122.9 l 1
 528.15 18.4 l 1
 434.95 -0.1 361.15 -12.1 246.15 -7.1 c 1
 94.15 -7.1 30.1 90.9 30.1 188.9 c 2
EndSplineSet
EndChar

StartChar: at.alt
Encoding: 352 -1 267
Width: 869
VWidth: 0
Flags: HW
LayerCount: 2
Fore
SplineSet
348.95 245.35 m 0
 348.95 224.35 365.95 206.35 395.65 206.8 c 0
 438.15 206.35 482.2 222.5 511.85 249.8 c 1
 511.85 328.8 l 1
 392.45 318.3 l 2
 362.9 315.4 348.5 301.15 348.95 272.2 c 0
 348.4 271.2 348.4 246.35 348.95 245.35 c 0
49.6 418.3 m 2
 49.6 503.8 85.05 615.3 256.55 615.3 c 2
 448.45 615.3 l 2
 533.2 615.3 623.45 595.2 623.45 458.8 c 2
 623.45 103.3 l 1
 533.35 103.3 l 1
 513.85 161.8 l 1
 511.85 161.8 449.95 94.3 358.95 94.3 c 0
 273.95 93.4 230.5 159.8 230.95 227.8 c 2
 230.95 269.8 l 2
 230.95 359.7 284.1 408.3 376.45 408.3 c 0
 427.4 408.3 511.85 407.3 511.85 408.3 c 2
 511.85 408.3 512.85 450.75 511.85 451.3 c 0
 511.85 494.65 491.2 502.8 449.85 502.8 c 2
 256.55 502.8 l 2
 208.55 502.8 162.55 492.8 162.55 412.8 c 2
 162.55 125.3 l 2
 162.55 35.3 216.55 16.8 256.55 16.8 c 2
 589.05 16.8 l 2
 671.05 16.8 692.05 57.3 692.05 125.3 c 2
 692.05 582.3 l 2
 692.05 659.3 650.05 699.05 589.05 699.05 c 2
 185.05 699.05 l 1
 185.05 784.55 l 1
 233.05 794.55 363.55 812.55 489.55 811.55 c 2
 589.05 811.1 l 2
 700 810.2 804.55 750.75 804.55 582.3 c 2
 804.55 125.3 l 2
 804.55 -22.2 737.5 -96.7 594.55 -96.7 c 2
 256.55 -96.7 l 2
 143.55 -96.7 50.05 -37.45 50.05 114.3 c 2
 49.6 418.3 l 2
EndSplineSet
EndChar

StartChar: questiondown
Encoding: 191 191 268
Width: 543
VWidth: 0
Flags: HW
LayerCount: 2
Fore
SplineSet
246.35 359.9 m 2
 246.35 447.2 l 2
 246.35 463.4 257.8 471.1 270.9 471.55 c 2
 355.1 471.55 l 2
 369.1 471.1 379.1 462.55 379.1 448.55 c 2
 379.1 359.9 l 2
 378.65 345.35 371.1 335.35 356.45 334.9 c 2
 269.1 334.9 l 1
 253.35 336.7 246.8 345.7 246.35 359.9 c 2
30.1 3.85 m 2
 29.2 130.75 103.65 199.3 255.7 186.55 c 1
 255.7 187.9 256.6 273.85 255.7 276.55 c 1
 370.1 276.55 l 1
 370.55 81.55 l 1
 344.45 82 281.7 82.45 255.6 81.55 c 0
 206.6 79.55 177.2 51.05 175.4 -1.5 c 1
 175.4 -1.5 174.95 -45.75 174.95 -54.75 c 0
 174.95 -101.9 205.85 -139.25 278.6 -137.9 c 0
 301.1 -137.9 528.5 -137.45 528.5 -137.45 c 2
 527.15 -137.45 528.5 -242.4 527.6 -241.95 c 0
 434.4 -260.45 360.6 -272.45 245.6 -267.45 c 1
 85.95 -267.9 30.1 -161.8 30.1 -70.1 c 2
 30.1 3.85 l 2
EndSplineSet
Substitution2: "'case' Case-Sensitive Forms lookup 1-1" questiondown.alt
Substitution2: "'smcp' Lowercase to Small Capitals lookup 16-1" questiondown.smcp
EndChar

StartChar: oe
Encoding: 353 339 269
Width: 868
VWidth: 0
Flags: HW
LayerCount: 2
Fore
SplineSet
521.95 309 m 1
 654.2 309 l 2
 683.35 309 698.5 323.35 698.5 348.65 c 0
 698.5 415.7 688.95 428 621.65 428 c 0
 547.25 428 518.15 419.2 521.95 309 c 1
177.9 258 m 0
 177.9 120.6 205.75 107.5 280.15 107.5 c 0
 374.15 107.5 381.5 133.95 381.5 268 c 0
 381.5 398.65 365.75 423.5 280.15 423.5 c 0
 197.3 423.5 177.9 406.65 177.9 258 c 0
37.9 258 m 0
 37.9 475 100.65 536 280.15 536 c 0
 356.8 536 410.65 523.15 446.75 490.85 c 1
 481.75 526.75 535.85 535 613.5 535 c 0
 767.1 535 838.5 517.5 838.5 341.5 c 0
 838.5 246.9 786.5 208.5 690.5 208.5 c 2
 521.95 208.5 l 1
 520.15 118.05 556.8 106.95 633.5 106.95 c 0
 714.5 106.95 753.5 106.5 828.5 117.5 c 1
 828.5 23 l 1
 753.548 -4.95071 639.5 -5 556.5 -5 c 0
 504.2 -5 468 7.4 443.1 35.7 c 1
 407.55 6.85 354.8 -5 280.15 -5 c 0
 96.75 -5 37.9 68 37.9 258 c 0
EndSplineSet
Substitution2: "'smcp' Lowercase to Small Capitals lookup 16-1" oe.smcp
EndChar

StartChar: OE
Encoding: 354 338 270
Width: 1008
VWidth: 0
Flags: HW
LayerCount: 2
Fore
SplineSet
49.6 361 m 0
 49.6 704 175.6 737 343.6 737 c 0
 422.2 737 488.85 729.75 537.85 687.2 c 1
 565.1 722.15 610 734.45 656.05 732 c 2
 656.05 732 903.2 724.8 967.55 716 c 1
 967.55 600.25 l 1
 689.05 600.25 l 2
 637.05 600.25 637.05 571.25 637.05 544.25 c 2
 637.05 430.05 l 1
 922.05 419.5 l 1
 922.05 304.4 l 1
 637.05 294.95 l 1
 637.05 180.75 l 2
 637.5 127.75 670.05 128.75 699.05 128.75 c 2
 967.55 128.75 l 1
 967.55 14 l 1
 910.9 6.3 666.05 -3 666.05 -3 c 2
 622.4 -5.45 566.3 -0.4 533.65 42.35 c 1
 486.2 4.15 422.1 -4 343.6 -4 c 0
 163.6 -4 49.6 28 49.6 361 c 0
189.6 361 m 0
 189.6 161.2 218.6 125 343.6 125 c 0
 461.1 125 497.05 163.7 497.05 361 c 0
 497.05 589.05 454.85 608 343.6 608 c 0
 235.35 608 189.6 594 189.6 361 c 0
EndSplineSet
EndChar

StartChar: Ydieresis
Encoding: 355 376 271
Width: 656
VWidth: 0
Flags: HW
LayerCount: 2
Fore
SplineSet
404.75 856.25 m 0
 404.75 888.65 431.6 914.5 464 914.5 c 0
 496.4 914.5 522.25 888.65 522.25 856.25 c 0
 522.25 823.85 496.4 797 464 797 c 0
 431.6 797 404.75 823.85 404.75 856.25 c 0
149.75 856.25 m 0
 149.75 888.65 176.6 914.5 209 914.5 c 0
 241.4 914.5 267.25 888.65 267.25 856.25 c 0
 267.25 823.85 241.4 797 209 797 c 0
 176.6 797 149.75 823.85 149.75 856.25 c 0
34 732 m 1
 186.5 732 l 1
 329.3 381 l 1
 485.5 732 l 1
 638 732 l 1
 397.1 227 l 1
 397.1 0 l 1
 257.1 0 l 1
 257.1 227 l 1
 34 732 l 1
EndSplineSet
Substitution2: "'c2sc' Capitals to Small Capitals in Latin lookup 17 subtable" ydieresis.smcp
EndChar

StartChar: guillemotright
Encoding: 187 187 272
Width: 580
VWidth: 0
Flags: HW
LayerCount: 2
Fore
SplineSet
257.45 223.3 m 1
 390.5 354 l 1
 260.25 481.35 l 1
 337 557 l 1
 543 354 l 1
 332 146 l 1
 257.45 223.3 l 1
37.9 223.3 m 1
 170.95 354 l 1
 40.7 481.35 l 1
 117.45 557 l 1
 323.45 354 l 1
 112.45 146 l 1
 37.9 223.3 l 1
EndSplineSet
EndChar

StartChar: cent
Encoding: 162 162 273
Width: 487
VWidth: 0
Flags: HW
LayerCount: 2
Fore
SplineSet
30.1 266 m 0
 30.1 487.95 104.55 539.15 212.85 536.9 c 1
 212.85 634 l 1
 299.25 634 l 1
 299.25 533.55 l 1
 347.05 528.65 401.75 519.65 450.15 504.5 c 1
 450.15 417.5 l 1
 450.15 417.5 354.05 424.4 265.05 424.4 c 0
 200.65 424.4 170.1 419.65 170.1 263.1 c 0
 170.1 127.15 193.05 106.6 265.05 106.6 c 0
 357.05 106.6 456.6 115.95 456.6 115.95 c 1
 456.6 28.05 l 1
 406.55 3.25 352.25 -3.75 297.05 -5.1 c 1
 297.05 -95.45 l 1
 210.65 -95.45 l 1
 210.65 -5.9 l 1
 106 -5.7 30.1 44.35 30.1 266 c 0
EndSplineSet
EndChar

StartChar: sterling
Encoding: 163 163 274
Width: 582
VWidth: 0
Flags: HW
LayerCount: 2
Fore
SplineSet
37.9 0 m 1
 37.9 108.5 l 1
 104.4 129 l 1
 104.4 313.5 l 1
 37.9 313.5 l 1
 37.9 386 l 1
 104.4 408.5 l 1
 104.4 483 l 2
 104.4 704.15 203.05 732 359.9 732 c 0
 416.9 732 544.9 716 544.9 716 c 1
 544.9 604 l 1
 356.4 604 l 2
 269.6 604 244.4 598.8 244.4 495.1 c 2
 244.4 408.5 l 1
 465.9 391.5 l 1
 465.9 313.5 l 1
 244.4 313.5 l 1
 244.4 129 l 1
 543.9 129 l 1
 543.9 0 l 1
 37.9 0 l 1
EndSplineSet
Substitution2: "'smcp' Lowercase to Small Capitals lookup 16-1" sterling.smcp
EndChar

StartChar: yen
Encoding: 165 165 275
Width: 634
VWidth: 0
Flags: HW
LayerCount: 2
Fore
SplineSet
15.05 732 m 1
 167.55 732 l 1
 310.35 401.7 l 1
 465.2 732 l 1
 619.05 732 l 1
 414.35 337.5 l 1
 524.95 337.5 l 1
 524.95 256.5 l 1
 378.15 256.5 l 1
 378.15 220.25 l 1
 524.95 220.25 l 1
 524.95 139.25 l 1
 378.15 139.25 l 1
 378.15 0 l 1
 238.15 0 l 1
 238.15 139.25 l 1
 97.95 139.25 l 1
 97.95 220.25 l 1
 238.15 220.25 l 1
 238.15 256.5 l 1
 97.95 256.5 l 1
 97.95 337.5 l 1
 204.15 337.5 l 1
 15.05 732 l 1
EndSplineSet
Substitution2: "'smcp' Lowercase to Small Capitals lookup 16-1" yen.smcp
EndChar

StartChar: section
Encoding: 167 167 276
Width: 541
VWidth: 0
Flags: HW
LayerCount: 2
Fore
SplineSet
181.8 366.2 m 2
 181.8 330 198.05 326 226.8 326 c 2
 312.85 326 l 2
 356.45 326 359.85 339.2 359.85 367.2 c 1
 360.85 368.2 359.85 405 359.85 405 c 2
 359.85 431.75 357.85 448 312.85 448 c 2
 226.8 448 l 2
 187.65 448 181.8 436.05 181.8 403 c 2
 181.8 366.2 l 2
42.8 336.5 m 2
 42.8 371 l 2
 42.8 411.1 43 467.3 103.3 486 c 1
 47.85 509.75 41.8 557.2 41.8 590 c 2
 41.8 638 l 2
 41.8 736 96.8 784 182.8 784 c 0
 258.75 784 408.9 776.15 462.3 765 c 1
 462.3 666 l 1
 221.3 666 l 2
 194.45 666 182.25 656 181.8 630.3 c 2
 181.8 595.5 l 2
 181.8 573.45 196.4 560.6 222.4 560.6 c 2
 345.3 560.6 l 2
 458.3 560.6 500.75 518.05 500.3 434.7 c 2
 500.3 400.2 l 2
 500.3 366.15 496.1 307.3 441.8 292.5 c 1
 493 284.3 499.3 227 499.3 194 c 2
 499.3 137.5 l 2
 499.3 16.4 425.3 -8 361.3 -8 c 0
 278.2 -8 128.35 -0.7 78.8 11 c 1
 78.8 110 l 1
 316.2 110 l 2
 343.6 110 359.4 114.55 359.85 141.35 c 2
 359.85 180.8 l 2
 359.85 207.4 347.9 213.5 318.35 213.5 c 2
 193.8 213.5 l 2
 102.8 213.5 42.8 237.8 42.8 336.5 c 2
EndSplineSet
EndChar

StartChar: g.salt
Encoding: 356 -1 277
Width: 555
VWidth: 0
Flags: HW
LayerCount: 2
Fore
SplineSet
177.9 280.65 m 0
 177.9 179.9 178.85 109.1 258.75 109.1 c 0
 303.05 109.1 325.9 113.1 369.85 130.8 c 1
 369.85 433.3 l 1
 259.85 433.3 l 2
 179.8 433.3 177.9 342 177.9 280.65 c 0
37.9 276.8 m 0
 37.9 456.35 107.35 540.3 232.35 540.3 c 0
 338.35 540.3 459 524.05 509.85 510.15 c 1
 509.85 -60 l 2
 509.85 -196.1 428 -285.05 301.35 -272 c 2
 59.85 -248 l 1
 59.85 -155 l 1
 284.85 -155 l 2
 337.85 -155 369.85 -124 369.85 -60 c 2
 369.85 37.25 l 1
 328.95 10.15 277.35 -1.2 232.35 -1.2 c 0
 79.35 -1.2 37.9 100.1 37.9 276.8 c 0
EndSplineSet
EndChar

StartChar: guillemotleft
Encoding: 171 171 278
Width: 580
VWidth: 0
Flags: HW
LayerCount: 2
Fore
SplineSet
257.45 354 m 1
 463.45 557 l 1
 540.2 481.35 l 1
 409.95 354 l 1
 543 223.3 l 1
 468.45 146 l 1
 257.45 354 l 1
37.9 354 m 1
 243.9 557 l 1
 320.65 481.35 l 1
 190.4 354 l 1
 323.45 223.3 l 1
 248.9 146 l 1
 37.9 354 l 1
EndSplineSet
EndChar

StartChar: paragraph
Encoding: 182 182 279
Width: 577
VWidth: 0
Flags: HW
LayerCount: 2
Fore
SplineSet
131.6 510.9 m 2
 131.6 461.55 163.6 456.5 191.6 456.5 c 2
 240.1 456.5 l 1
 240.1 630.5 l 1
 191.6 630.5 l 2
 140.35 630.5 131.6 608.1 131.6 572.4 c 2
 131.6 510.9 l 2
30.1 499 m 2
 30.1 592 l 2
 30.1 687 99.75 732 186.1 732 c 2
 562.65 732 l 1
 562.65 628.5 l 1
 509.6 628.5 l 1
 509.6 0 l 1
 408.1 0 l 1
 408.1 630.5 l 1
 341.6 630.5 l 1
 341.6 -270 l 1
 240.1 -270 l 1
 240.1 372 l 1
 234.1 370 218.95 354.55 186.1 355 c 0
 77.05 355 30.1 421 30.1 499 c 2
EndSplineSet
EndChar

StartChar: macron
Encoding: 175 175 280
Width: 367
VWidth: 0
Flags: HW
LayerCount: 2
Fore
SplineSet
37.9 531 m 1
 37.9 610.5 l 1
 329.9 610.5 l 1
 329.9 531 l 1
 37.9 531 l 1
EndSplineSet
Substitution2: "'smcp' Lowercase to Small Capitals lookup 16-1" macron.smcp
EndChar

StartChar: copyright
Encoding: 169 169 281
Width: 800
VWidth: 0
Flags: HW
LayerCount: 2
Fore
SplineSet
223.3 365 m 0
 223.3 526 281.35 583 367.3 583 c 0
 408.3 583 493.7 575.6 550.8 559 c 1
 550.8 485 l 1
 487.8 494 422.3 497 389.3 497 c 0
 335.3 497 314.8 461.5 314.8 362 c 0
 314.8 278 333.85 233 393.15 233 c 0
 457.45 233 519.05 242.35 556.8 249 c 1
 556.8 175 l 1
 499.4 151.5 439.25 147 372.25 147 c 0
 293.25 147 223.3 188 223.3 365 c 0
133.3 368 m 0
 133.3 216.2 182.3 86.45 296.3 86 c 2
 522.3 86 l 2
 606.9 86.45 667.8 164 667.8 368 c 0
 667.8 488 658.8 646 527.8 646 c 2
 296.3 646 l 2
 207.3 646 133.3 595.15 133.3 368 c 0
41.8 368 m 0
 41.8 548.6 83.95 732 296.3 732 c 2
 527.8 732 l 2
 727.65 732 759.3 542.05 759.3 368 c 0
 759.3 138.7 678.8 0 527.8 0 c 2
 296.3 0 l 2
 107.35 0 41.8 186.15 41.8 368 c 0
EndSplineSet
EndChar

StartChar: registered
Encoding: 174 174 282
Width: 800
VWidth: 0
Flags: HW
LayerCount: 2
Fore
SplineSet
339.3 390 m 1
 414.3 390 l 2
 466.3 390 472.8 398.05 472.8 445.5 c 0
 472.8 491.45 450.75 494 414.3 494 c 2
 339.3 494 l 1
 339.3 390 l 1
247.8 153 m 1
 247.8 580 l 1
 430.3 580 l 2
 496.3 580 564.3 555.25 564.3 446.5 c 0
 564.3 351.95 525.95 327.45 485.9 315.5 c 1
 573.05 153 l 1
 474.1 153 l 1
 390.8 312 l 1
 339.3 324 l 1
 339.3 153 l 1
 247.8 153 l 1
133.3 368 m 0
 133.3 216.2 182.3 86.45 296.3 86 c 2
 522.3 86 l 2
 606.9 86.45 667.8 164 667.8 368 c 0
 667.8 488 658.8 646 527.8 646 c 2
 296.3 646 l 2
 207.3 646 133.3 595.15 133.3 368 c 0
41.8 368 m 0
 41.8 548.6 83.95 732 296.3 732 c 2
 527.8 732 l 2
 727.65 732 759.3 542.05 759.3 368 c 0
 759.3 138.7 678.8 0 527.8 0 c 2
 296.3 0 l 2
 107.35 0 41.8 186.15 41.8 368 c 0
EndSplineSet
EndChar

StartChar: plusminus
Encoding: 177 177 283
Width: 500
VWidth: 0
Flags: HW
LayerCount: 2
Fore
SplineSet
42.8 381.5 m 1
 42.8 499.5 l 1
 190.8 499.5 l 1
 190.8 648.5 l 1
 308.8 648.5 l 1
 308.8 499.5 l 1
 458.8 499.5 l 1
 458.8 381.5 l 1
 308.8 381.5 l 1
 308.8 232.5 l 1
 190.8 232.5 l 1
 190.8 381.5 l 1
 42.8 381.5 l 1
42.8 70.5 m 1
 42.8 188.5 l 1
 458.8 188.5 l 1
 458.8 70.5 l 1
 42.8 70.5 l 1
EndSplineSet
EndChar

StartChar: logicalnot
Encoding: 172 172 284
Width: 494
VWidth: 0
Flags: HW
LayerCount: 2
Fore
SplineSet
33.5 239.5 m 1
 33.5 352 l 1
 460.5 352 l 1
 460.5 295 460.5 216 460.5 159 c 1
 348 159 l 1
 348 239.5 l 1
 33.5 239.5 l 1
EndSplineSet
EndChar

StartChar: guilsinglleft
Encoding: 357 8249 285
Width: 356
VWidth: 0
Flags: HW
LayerCount: 2
Fore
SplineSet
37.9 354 m 1
 243.9 557 l 1
 320.65 481.35 l 1
 190.4 354 l 1
 323.45 223.3 l 1
 248.9 146 l 1
 37.9 354 l 1
EndSplineSet
EndChar

StartChar: guilsinglright
Encoding: 358 8250 286
Width: 356
VWidth: 0
Flags: HW
LayerCount: 2
Fore
SplineSet
37.9 223.3 m 1
 170.95 354 l 1
 40.7 481.35 l 1
 117.45 557 l 1
 323.45 354 l 1
 112.45 146 l 1
 37.9 223.3 l 1
EndSplineSet
EndChar

StartChar: perthousand
Encoding: 359 8240 287
Width: 1379
VWidth: 0
Flags: HW
LayerCount: 2
Fore
SplineSet
1077.8 149.55 m 2
 1077.8 115.4 1086.75 100.55 1126.05 100.55 c 2
 1199.55 100.55 l 2
 1244.35 100.55 1249.8 117.2 1249.8 149.55 c 2
 1249.8 238.55 l 2
 1249.8 278.75 1236.45 287.55 1201.55 287.55 c 2
 1128.05 287.55 l 2
 1089.85 287.55 1077.8 277.5 1077.8 238.55 c 2
 1077.8 149.55 l 2
979.8 133.05 m 2
 979.8 255.05 l 2
 979.8 340.05 1013.3 385.55 1114.3 385.55 c 2
 1215.3 385.55 l 2
 1313.3 385.55 1347.8 340.05 1347.8 255.05 c 2
 1347.8 133.05 l 2
 1347.8 48.05 1314.3 2.55 1213.3 2.55 c 2
 1112.3 2.55 l 2
 1014.3 2.55 979.8 48.05 979.8 133.05 c 2
660.6 149.55 m 2
 660.6 115.4 669.55 100.55 708.85 100.55 c 2
 781.8 100.55 l 2
 826.6 100.55 832.6 117.2 832.6 149.55 c 2
 832.6 238.55 l 2
 832.6 278.75 818.7 287.55 783.8 287.55 c 2
 710.85 287.55 l 2
 672.65 287.55 660.6 277.5 660.6 238.55 c 2
 660.6 149.55 l 2
562.6 133.05 m 2
 562.6 255.05 l 2
 562.6 340.05 595.55 385.55 696.55 385.55 c 2
 798.1 385.55 l 2
 896.1 385.55 930.6 340.05 930.6 255.05 c 2
 930.6 133.05 l 2
 930.6 48.05 897.1 2.55 796.1 2.55 c 2
 694.55 2.55 l 2
 596.55 2.55 562.6 48.05 562.6 133.05 c 2
207.75 0 m 1
 654.55 732 l 1
 754.7 732 l 1
 311.75 0 l 1
 207.75 0 l 1
130.1 496 m 2
 130.1 461.85 139.05 447 178.35 447 c 2
 251.85 447 l 2
 296.65 447 302.1 463.65 302.1 496 c 2
 302.1 585 l 2
 302.1 625.2 288.75 634 253.85 634 c 2
 180.35 634 l 2
 142.15 634 130.1 623.95 130.1 585 c 2
 130.1 496 l 2
32.1 479.5 m 2
 32.1 601.5 l 2
 32.1 686.5 65.6 732 166.6 732 c 2
 267.6 732 l 2
 365.6 732 400.1 686.5 400.1 601.5 c 2
 400.1 479.5 l 2
 400.1 394.5 366.6 349 265.6 349 c 2
 164.6 349 l 2
 66.6 349 32.1 394.5 32.1 479.5 c 2
EndSplineSet
Substitution2: "'smcp' Lowercase to Small Capitals lookup 16-1" perthousand.smcp
EndChar

StartChar: dagger
Encoding: 360 8224 288
Width: 440
VWidth: 0
Flags: HW
LayerCount: 2
Fore
SplineSet
15.05 453.25 m 1
 15.05 561.75 l 1
 148.05 574.5 l 1
 158.8 770 l 1
 282.3 770 l 1
 293.05 574.5 l 1
 425.05 561.75 l 1
 425.05 453.25 l 1
 293.05 440.5 l 1
 281.3 -72 l 1
 157.8 -72 l 1
 148.05 440.5 l 1
 15.05 453.25 l 1
EndSplineSet
EndChar

StartChar: daggerdbl
Encoding: 361 8225 289
Width: 455
VWidth: 0
Flags: HW
LayerCount: 2
Fore
SplineSet
15.05 146.5 m 1
 15.05 255 l 1
 150.15 269.95 l 1
 148.05 440.5 l 1
 15.05 453.25 l 1
 15.05 561.75 l 1
 148.05 574.5 l 1
 159.25 770 l 1
 282.3 770 l 1
 293.05 574.5 l 1
 425.05 561.75 l 1
 425.05 453.25 l 1
 293.05 440.5 l 1
 290.05 269.4 l 1
 425.05 255 l 1
 425.05 146.5 l 1
 285.85 132.65 l 1
 281.3 -72 l 1
 157.8 -72 l 1
 153.8 131.55 l 1
 15.05 146.5 l 1
EndSplineSet
EndChar

StartChar: trademark
Encoding: 362 8482 290
Width: 705
VWidth: 0
Flags: HW
LayerCount: 2
Fore
SplineSet
313.05 383 m 1
 351.05 732 l 1
 445.95 732 l 1
 505.95 526.9 l 1
 554.05 732 l 1
 652.05 732 l 1
 694.05 383 l 1
 602.55 383 l 1
 583.9 567.4 l 1
 546.6 383 l 1
 466.1 383 l 1
 419.55 566.75 l 1
 404.55 383 l 1
 313.05 383 l 1
15.05 651.5 m 1
 15.05 732 l 1
 296.05 732 l 1
 296.05 651.5 l 1
 201.8 651.5 l 1
 201.8 383 l 1
 110.3 383 l 1
 110.3 651.5 l 1
 15.05 651.5 l 1
EndSplineSet
EndChar

StartChar: notequal
Encoding: 363 8800 291
Width: 457
VWidth: 0
Flags: HW
LayerCount: 2
Fore
SplineSet
15.05 184.5 m 1
 15.05 304.75 l 1
 165.35 304.75 l 1
 219.9 396.75 l 1
 15.05 396.75 l 1
 15.05 517 l 1
 289.9 517 l 1
 328.75 582.65 l 1
 400.75 582.65 l 1
 361.9 517 l 1
 442.05 517 l 1
 442.05 396.75 l 1
 291.9 396.75 l 1
 237.35 304.75 l 1
 442.05 304.75 l 1
 442.05 184.5 l 1
 167.9 184.5 l 1
 123.05 107.85 l 1
 51.05 107.85 l 1
 95.9 184.5 l 1
 15.05 184.5 l 1
EndSplineSet
EndChar

StartChar: infinity
Encoding: 364 8734 292
Width: 761
VWidth: 0
Flags: HW
LayerCount: 2
Fore
SplineSet
443.15 340.45 m 1
 466.8 305.2 499.9 269.95 549.65 269.95 c 0
 602.3 269.95 617.45 300.85 617.45 341 c 0
 617.45 381.15 611.55 413.05 549.65 413.05 c 0
 504 413.05 466.35 376.7 443.15 340.45 c 1
144.35 341 m 0
 144.35 300.85 155.5 269.95 211.05 269.95 c 0
 260.8 269.95 292.8 305.75 316.45 341 c 1
 293.25 377.25 251.2 413.05 211.05 413.05 c 0
 147.7 413.05 144.35 381.15 144.35 341 c 0
37.9 341 m 0
 37.9 428 65.9 514 203.9 514 c 0
 279.9 514 335.75 478 378.7 418.9 c 1
 416.7 481.3 481.9 514 557.9 514 c 0
 695.9 514 723.9 428 723.9 341 c 0
 723.9 249 684.9 169 557.9 169 c 0
 488.6 169 428.85 188 377.15 264.9 c 1
 330.95 188 277.9 169 203.9 169 c 0
 76.9 169 37.9 249 37.9 341 c 0
EndSplineSet
EndChar

StartChar: lessequal
Encoding: 365 8804 293
Width: 450
VWidth: 0
Flags: HW
LayerCount: 2
Fore
SplineSet
37.9 367.6 m 1
 37.9 497.1 l 1
 412.9 630.5 l 1
 412.9 501 l 1
 186.95 433.45 l 1
 412.9 355.9 l 1
 412.9 225.5 l 1
 37.9 367.6 l 1
37.9 81.45 m 1
 37.9 188.45 l 1
 412.8 188.45 l 1
 412.8 81.45 l 1
 37.9 81.45 l 1
EndSplineSet
EndChar

StartChar: greaterequal
Encoding: 366 8805 294
Width: 450
VWidth: 0
Flags: HW
LayerCount: 2
Fore
SplineSet
38.35 225.5 m 1
 38.35 355.9 l 1
 264.3 433.45 l 1
 38.35 501 l 1
 38.35 630.5 l 1
 413.35 497.1 l 1
 413.35 367.6 l 1
 38.35 225.5 l 1
37.9 81.45 m 1
 37.9 188.45 l 1
 413.35 188.45 l 1
 413.35 81.45 l 1
 37.9 81.45 l 1
EndSplineSet
EndChar

StartChar: circumflex
Encoding: 367 710 295
Width: 384
VWidth: 0
Flags: HW
LayerCount: 2
Fore
SplineSet
37.9 531 m 1
 145.55 666.5 l 1
 249.55 666.5 l 1
 346.4 531 l 1
 253.4 531 l 1
 194.5 591 l 1
 131.9 531 l 1
 37.9 531 l 1
EndSplineSet
Substitution2: "'smcp' Lowercase to Small Capitals lookup 16-1" circumflex.smcp
EndChar

StartChar: tilde
Encoding: 368 732 296
Width: 419
VWidth: 0
Flags: HW
LayerCount: 2
Fore
SplineSet
37.9 586.3 m 1
 69.65 620.95 109.4 655.8 158.65 655.8 c 1
 205.35 654.45 230.5 621.25 265.1 620.8 c 1
 297.9 619.25 330.7 638.7 357.2 659 c 1
 381.4 599.4 l 1
 354.45 570 315 530.55 268.05 531.45 c 0
 219.2 532.8 193.75 566.45 156.1 566 c 0
 114.85 565.55 95.9 550.5 62.2 531 c 1
 37.9 586.3 l 1
EndSplineSet
Substitution2: "'smcp' Lowercase to Small Capitals lookup 16-1" tilde.smcp
EndChar

StartChar: ring
Encoding: 369 730 297
Width: 278
VWidth: 0
Flags: HW
LayerCount: 2
Fore
SplineSet
96.45 632 m 0
 96.45 608.05 115.95 589.55 139.9 589.55 c 0
 163.85 589.55 182.35 608.05 182.35 632 c 0
 182.35 655.95 163.85 675.45 139.9 675.45 c 0
 115.95 675.45 96.45 655.95 96.45 632 c 0
37.9 632 m 0
 37.9 689 83.9 735 139.9 735 c 0
 195.9 735 240.9 689 240.9 632 c 0
 240.9 575 195.9 530 139.9 530 c 0
 83.9 530 37.9 575 37.9 632 c 0
EndSplineSet
Substitution2: "'smcp' Lowercase to Small Capitals lookup 16-1" ring.smcp
EndChar

StartChar: ellipsis
Encoding: 370 8230 298
Width: 807
VWidth: 0
Flags: HW
LayerCount: 2
Fore
SplineSet
296.25 23 m 2
 296.25 113 l 2
 296.25 128 304.25 138 320.25 138 c 2
 347.45 138 l 1
 374.65 138 l 1
 406.25 138 l 1
 433.45 138 l 1
 460.65 138 l 2
 478.65 138 485.65 129 485.65 113 c 2
 485.65 23 l 2
 485.65 5 474.65 0 460.65 0 c 2
 433.45 0 l 1
 406.25 0 l 1
 374.65 0 l 1
 347.45 0 l 1
 320.25 0 l 2
 306.25 0 296.25 9 296.25 23 c 2
EndSplineSet
EndChar

StartChar: fraction
Encoding: 371 8260 299
Width: 322
VWidth: 0
Flags: HW
LayerCount: 2
Fore
SplineSet
-68.55 0 m 1
 289.35 752.9 l 1
 390.65 752.9 l 1
 32.75 0 l 1
 -68.55 0 l 1
EndSplineSet
EndChar

